<svg id="Capa_1" enable-background="new 0 0 512 512" height="512" viewBox="0 0 512 512" width="512" xmlns="http://www.w3.org/2000/svg"><g><path d="m366.219 88.414 10.68 6.42c3.773 2.268 6.081 6.348 6.081 10.75v24.257c0 4.402-2.308 8.482-6.081 10.75l-10.68 6.42c-1.823 1.096-3.337 2.637-4.4 4.479l-23.657 40.975c-1.063 1.842-1.641 3.924-1.679 6.05l-.22 12.459c-.078 4.402-2.457 8.44-6.27 10.641l-21.007 12.129c-3.812 2.201-8.5 2.243-12.351.109l-10.9-6.039c-1.86-1.031-3.952-1.572-6.079-1.572h-47.314c-2.127 0-4.219.541-6.079 1.572l-10.9 6.039c-3.851 2.134-8.538 2.092-12.351-.109l-21.007-12.129c-3.812-2.201-6.192-6.24-6.27-10.641l-.22-12.459c-.038-2.126-.615-4.208-1.679-6.05l-23.657-40.975c-1.063-1.842-2.578-3.383-4.4-4.479l-10.68-6.42c-3.773-2.268-6.081-6.348-6.081-10.75v-24.257c0-4.402 2.308-8.482 6.081-10.75l10.68-6.42c1.823-1.096 3.337-2.637 4.4-4.479l23.657-40.975c1.063-1.842 1.641-3.924 1.679-6.05l.22-12.459c.078-4.402 2.457-8.44 6.27-10.641l21.007-12.129c3.812-2.201 8.5-2.243 12.351-.109l10.9 6.039c1.86 1.031 3.952 1.572 6.079 1.572h47.314c2.127 0 4.219-.541 6.079-1.572l10.9-6.039c3.851-2.134 8.538-2.092 12.351.109l21.007 12.129c3.812 2.201 6.192 6.24 6.27 10.641l.22 12.459c.038 2.126.615 4.208 1.679 6.05l23.657 40.975c1.063 1.842 2.577 3.383 4.4 4.479z" fill="#90d8f9"/><g><path d="m376.899 94.834-10.68-6.42c-1.823-1.096-3.337-2.637-4.4-4.479l-23.657-40.975c-1.063-1.842-1.641-3.924-1.679-6.05l-.22-12.459c-.078-4.402-2.457-8.44-6.27-10.641l-21.007-12.13c-3.812-2.201-8.5-2.243-12.351-.109l-4.777 2.647 16.612 9.591c3.812 2.201 6.192 6.24 6.27 10.641l.22 12.459c.038 2.126.615 4.208 1.679 6.05l23.657 40.975c1.063 1.842 2.578 3.383 4.4 4.479l10.68 6.42c3.773 2.268 6.081 6.348 6.081 10.75v24.257c0 4.402-2.308 8.482-6.081 10.75l-10.68 6.42c-1.823 1.096-3.337 2.637-4.4 4.479l-23.657 40.975c-1.063 1.842-1.641 3.924-1.679 6.05l-.22 12.459c-.078 4.402-2.457 8.44-6.27 10.641l-16.612 9.591 4.777 2.647c3.851 2.133 8.538 2.092 12.351-.109l21.007-12.129c3.812-2.201 6.192-6.24 6.27-10.641l.22-12.459c.038-2.127.615-4.208 1.679-6.05l23.657-40.975c1.063-1.842 2.578-3.383 4.4-4.479l10.68-6.42c3.773-2.268 6.081-6.348 6.081-10.75v-24.257c0-4.401-2.308-8.481-6.081-10.749z" fill="#75cef9"/></g><circle cx="256" cy="117.713" fill="#f4fbff" r="79.339"/><path d="m256 38.373c-3.965 0-7.862.295-11.671.857 38.284 5.645 67.668 38.63 67.668 78.483s-29.384 72.838-67.668 78.483c3.809.562 7.705.857 11.671.857 43.818 0 79.339-35.521 79.339-79.339 0-43.819-35.521-79.341-79.339-79.341z" fill="#e4f6ff"/><path d="m489.06 218.368h-466.12c-3.777 0-6.838-3.062-6.838-6.838v-55.965c0-3.777 3.062-6.838 6.838-6.838h466.12c3.777 0 6.838 3.062 6.838 6.838v55.965c0 3.776-3.061 6.838-6.838 6.838z" fill="#e4936b"/><path d="m489.06 148.726h-24.343c3.777 0 6.838 3.062 6.838 6.838v55.965c0 3.777-3.062 6.838-6.838 6.838h24.343c3.777 0 6.839-3.062 6.839-6.838v-55.965c0-3.776-3.062-6.838-6.839-6.838z" fill="#e27d47"/><path d="m457.168 218.368h-402.336v270.853c0 12.58 10.198 22.779 22.779 22.779h356.778c12.58 0 22.779-10.198 22.779-22.779z" fill="#ecbe6b"/><path d="m54.832 218.368v21.616h361.437c8.531 0 15.446 6.915 15.446 15.446v233.791c0 12.58-10.198 22.779-22.779 22.779h25.453c12.58 0 22.779-10.198 22.779-22.779v-270.853z" fill="#eab14d"/><path d="m304.513 309.898h-97.027c-12.039 0-21.798-9.759-21.798-21.798 0-12.039 9.759-21.798 21.798-21.798h97.027c12.039 0 21.798 9.759 21.798 21.798.001 12.039-9.759 21.798-21.798 21.798z" fill="#e4936b"/><path d="m304.513 266.302h-25.357c12.039 0 21.798 9.759 21.798 21.798s-9.759 21.798-21.798 21.798h25.357c12.039 0 21.798-9.759 21.798-21.798.001-12.039-9.759-21.798-21.798-21.798z" fill="#e27d47"/><g><path d="m394.196 480.804h-91.462c-4.268 0-7.726-3.459-7.726-7.726s3.459-7.726 7.726-7.726h91.462c4.268 0 7.726 3.459 7.726 7.726s-3.459 7.726-7.726 7.726z" fill="#eab14d"/></g></g></svg>