<svg id="Layer_3" height="512" viewBox="0 0 64 64" width="512" xmlns="http://www.w3.org/2000/svg" data-name="Layer 3"><path d="m60 58h-28a2 2 0 0 1 -2-2v-4a2 2 0 0 1 2-2h5l3.8-4.561a4 4 0 0 1 3.073-1.439h11.254a4 4 0 0 1 3.073 1.439l3.337 4.005a2 2 0 0 1 .463 1.28v5.276a2 2 0 0 1 -2 2z" fill="#b52f28"/><path d="m59 54v-5.276a2 2 0 0 0 -.464-1.28l-2.815-3.378a3.912 3.912 0 0 0 -.594-.066h-11.254a4 4 0 0 0 -3.073 1.439l-3.8 4.561h-5a2 2 0 0 0 -2 2v4h27a2 2 0 0 0 2-2z" fill="#d23f34"/><path d="m48 44v4a2 2 0 0 1 -2 2h-9l3.8-4.561a4 4 0 0 1 3.073-1.439z" fill="#c0dafc"/><path d="m46 44h-2.127a4 4 0 0 0 -3.073 1.439l-2.133 2.561h5.333a2 2 0 0 0 2-2z" fill="#f7fafd"/><path d="m30 56h-26v-4h26.002" fill="#4c6cb5"/><path d="m28 53v-1h-24v2h23a1 1 0 0 0 1-1z" fill="#5576b7"/><path d="m30 52a2 2 0 0 1 2-2h5l3.8-4.561a4 4 0 0 1 3.073-1.439h2.127v-23.182l-19-13.818-19 13.818v31.182z" fill="#e2e7f6"/><path d="m32 50v-9a5 5 0 0 0 -5-5 5 5 0 0 0 -5 5v11h8a2 2 0 0 1 2-2z" fill="#5e87ca"/><path d="m38 9.92v-7.92h18l6 6v32h-16v-19.182l3 2.182 3-3z" fill="#c8cded"/><path d="m27 7 22 16 3-3-25-18-25 18 3 3z" fill="#5e87ca"/><circle cx="40" cy="58" fill="#474747" r="4"/><circle cx="54" cy="58" fill="#474747" r="4"/><path d="m54 54a3.994 3.994 0 0 0 -3.281 6.28 3.994 3.994 0 0 0 5.562-5.561 3.977 3.977 0 0 0 -2.281-.719z" fill="#545454"/><path d="m40 54a3.994 3.994 0 0 0 -3.281 6.28 3.994 3.994 0 0 0 5.562-5.561 3.977 3.977 0 0 0 -2.281-.719z" fill="#545454"/><path d="m27 36a4.988 4.988 0 0 0 -1 .1v15.9h2v-15.9a4.988 4.988 0 0 0 -1-.1z" fill="#3b5892"/><circle cx="27" cy="23" fill="#f0ae42" r="9"/><path d="m34 22a8.991 8.991 0 0 0 -3.977-7.469 9 9 0 0 0 -8.046 15.938 8.981 8.981 0 0 0 12.023-8.469z" fill="#f9d266"/><path d="m31 21v-1a3 3 0 0 0 -3-3v-1h-2v1a3 3 0 0 0 -3 3v1a3 3 0 0 0 3 3v3a1 1 0 0 1 -1-1v-1h-2v1a3 3 0 0 0 3 3v1h2v-1a3 3 0 0 0 3-3v-1a3 3 0 0 0 -3-3v-3a1 1 0 0 1 1 1v1zm-2 4v1a1 1 0 0 1 -1 1v-3a1 1 0 0 1 1 1zm-3-3a1 1 0 0 1 -1-1v-1a1 1 0 0 1 1-1z" fill="#d5883e"/><path d="m12 32h6v8h-6z" fill="#78a0d4"/><path d="m36 32h6v8h-6z" fill="#78a0d4"/><path d="m40 37v-5h-4v6h3a1 1 0 0 0 1-1z" fill="#86b1e0"/><path d="m16 37v-5h-4v6h3a1 1 0 0 0 1-1z" fill="#86b1e0"/><g fill="#9da1bf"><path d="m56 2v6h6"/><path d="m41 5h12v2h-12z"/><path d="m47 11h12v2h-12z"/><path d="m51 15h8v2h-8z"/><path d="m49 33h10v2h-10z"/><path d="m49 29h10v2h-10z"/></g><path d="m27 13a10 10 0 1 0 10 10 10.011 10.011 0 0 0 -10-10zm0 18a8 8 0 1 1 8-8 8.009 8.009 0 0 1 -8 8z"/><path d="m28 17v-1h-2v1a3 3 0 0 0 -3 3v1a3 3 0 0 0 3 3v3a1 1 0 0 1 -1-1v-1h-2v1a3 3 0 0 0 3 3v1h2v-1a3 3 0 0 0 3-3v-1a3 3 0 0 0 -3-3v-3a1 1 0 0 1 1 1v1h2v-1a3 3 0 0 0 -3-3zm1 8v1a1 1 0 0 1 -1 1v-3a1 1 0 0 1 1 1zm-3-3a1 1 0 0 1 -1-1v-1a1 1 0 0 1 1-1z"/><path d="m18 31h-6a1 1 0 0 0 -1 1v8a1 1 0 0 0 1 1h6a1 1 0 0 0 1-1v-8a1 1 0 0 0 -1-1zm-1 8h-4v-6h4z"/><path d="m42 31h-6a1 1 0 0 0 -1 1v8a1 1 0 0 0 1 1h6a1 1 0 0 0 1-1v-8a1 1 0 0 0 -1-1zm-1 8h-4v-6h4z"/><path d="m62 41a1 1 0 0 0 1-1v-32a1 1 0 0 0 -.293-.707l-6-6a1 1 0 0 0 -.707-.293h-18a1 1 0 0 0 -1 1v5.968l-9.416-6.78a1 1 0 0 0 -1.168 0l-25 18a1 1 0 0 0 -.123 1.519l3 3a1 1 0 0 0 1.3.1l1.407-1.025v28.218h-3a1 1 0 0 0 -1 1v4a1 1 0 0 0 1 1h25.184a3 3 0 0 0 2.816 2h3.1a5 5 0 0 0 9.8 0h4.2a5 5 0 0 0 9.8 0h1.1a3 3 0 0 0 3-3v-5.276a3.007 3.007 0 0 0 -.7-1.92l-3.332-4.004a4.989 4.989 0 0 0 -3.842-1.8h-8.126v-2zm-5-36.586 2.586 2.586h-2.586zm-18-1.414h16v5a1 1 0 0 0 1 1h5v30h-14v-16.218l1.412 1.027a1 1 0 0 0 1.3-.1l3-3a1 1 0 0 0 -.123-1.519l-13.589-9.782zm-33.9 18.688-1.561-1.563 23.461-16.893 23.461 16.893-1.561 1.563-21.312-15.497a1 1 0 0 0 -1.176 0zm-.1 31.312h24v2h-24zm26-3.816a3 3 0 0 0 -1.816 1.816h-1.184v-13.858a4 4 0 0 1 3 3.858zm-5 1.816h-3v-10a4 4 0 0 1 3-3.858zm14 10a3 3 0 1 1 3-3 3 3 0 0 1 -3 3zm14 0a3 3 0 1 1 3-3 3 3 0 0 1 -3 3zm3.431-14.92 3.337 4a1 1 0 0 1 .232.64v5.28a1 1 0 0 1 -1 1h-1.1a5 5 0 0 0 -9.8 0h-4.2a5 5 0 0 0 -9.8 0h-3.1a1 1 0 0 1 -1-1v-4a1 1 0 0 1 1-1h14a3 3 0 0 0 3-3v-3h6.126a2.992 2.992 0 0 1 2.305 1.08zm-18.296 2.92 2.434-2.92a2.992 2.992 0 0 1 2.3-1.08h3.131v3a1 1 0 0 1 -1 1zm4.739-6a4.985 4.985 0 0 0 -3.841 1.8l-3.5 4.2h-3.533v-8a6 6 0 0 0 -12 0v10h-12v-29.672l18-13.092 18 13.091v21.673z"/><path d="m41 5h12v2h-12z"/><path d="m47 11h12v2h-12z"/><path d="m51 15h8v2h-8z"/><path d="m49 33h10v2h-10z"/><path d="m49 29h10v2h-10z"/></svg>