<svg id="Icons" enable-background="new 0 0 512 512" height="512" viewBox="0 0 512 512" width="512" xmlns="http://www.w3.org/2000/svg"><g><g><circle cx="256" cy="256" fill="#e52e44" r="256"/><circle cx="256" cy="256" fill="#fa4654" r="205.642"/></g><g><g><g><path d="m260.733 162.947v195.862c0 1.305-.529 2.493-1.385 3.348-.314.314-.671.579-1.059.794-.683.375-1.459.591-2.29.591-2.616 0-4.733-2.117-4.733-4.733v-195.862c0-2.61 2.117-4.727 4.733-4.727.831 0 1.606.215 2.29.591 1.459.8 2.444 2.357 2.444 4.136z" fill="#efb732"/><path d="m260.733 162.947v195.862c0 1.305-.529 2.493-1.385 3.348-.314.314-.671.579-1.059.794-1.459-.806-2.45-2.357-2.45-4.142v-195.862c0-1.779.991-3.336 2.45-4.136 1.459.8 2.444 2.357 2.444 4.136z" fill="#fbdb58"/></g><g><path d="m245.112 282.174v14.261c0 1.102-1.237 1.766-2.148 1.132-13.208-9.183-39.41.228-40.592-47.19-.031-1.237 1.471-1.883 2.345-1.003l1.213 1.213 9.423 9.423c3.441 3.441 8.106 5.373 12.968 5.373 4.641 0 8.839 1.877 11.873 4.918 3.041 3.04 4.918 7.238 4.918 11.873z" fill="#efb732"/><path d="m245.112 282.174v7.417c-12.698-7.663-35.588-1.151-39.182-39.004l9.423 9.423c3.441 3.441 8.106 5.373 12.968 5.373 4.641 0 8.839 1.877 11.873 4.918 3.041 3.04 4.918 7.238 4.918 11.873z" fill="#fbdb58"/><g fill="#f9eaa5"><ellipse cx="223.409" cy="270.696" rx="4.345" ry="7.05" transform="matrix(.278 -.961 .961 .278 -98.735 410.021)"/><ellipse cx="236.364" cy="276.856" rx="3.026" ry="4.911" transform="matrix(.611 -.791 .791 .611 -127.23 294.657)"/></g></g><g><path d="m245.112 245.723v14.261c0 1.102-1.237 1.766-2.148 1.132-13.208-9.183-39.41.228-40.592-47.19-.031-1.237 1.471-1.883 2.345-1.003l1.213 1.213 9.423 9.423c3.441 3.441 8.106 5.373 12.968 5.373 4.641 0 8.839 1.877 11.873 4.918 3.041 3.041 4.918 7.238 4.918 11.873z" fill="#efb732"/><path d="m245.112 245.723v7.417c-12.698-7.663-35.588-1.151-39.182-39.004l9.423 9.423c3.441 3.441 8.106 5.373 12.968 5.373 4.641 0 8.839 1.877 11.873 4.918 3.041 3.041 4.918 7.238 4.918 11.873z" fill="#fbdb58"/><g fill="#f9eaa5"><ellipse cx="223.409" cy="234.246" rx="4.345" ry="7.05" transform="matrix(.278 -.961 .961 .278 -63.722 383.706)"/><ellipse cx="236.364" cy="240.405" rx="3.026" ry="4.911" transform="matrix(.611 -.791 .791 .611 -98.384 280.49)"/></g></g><g><path d="m245.112 209.272v14.261c0 1.102-1.237 1.766-2.148 1.132-13.208-9.183-39.41.228-40.592-47.19-.031-1.237 1.471-1.883 2.345-1.003l1.213 1.213 9.423 9.423c3.441 3.441 8.106 5.373 12.968 5.373 4.641 0 8.839 1.877 11.873 4.918 3.041 3.041 4.918 7.239 4.918 11.873z" fill="#efb732"/><path d="m245.112 209.272v7.417c-12.698-7.663-35.588-1.151-39.182-39.004l9.423 9.423c3.441 3.441 8.106 5.373 12.968 5.373 4.641 0 8.839 1.877 11.873 4.918 3.041 3.041 4.918 7.239 4.918 11.873z" fill="#fbdb58"/><g fill="#f9eaa5"><ellipse cx="223.409" cy="197.795" rx="4.345" ry="7.05" transform="matrix(.278 -.961 .961 .278 -28.709 357.392)"/><ellipse cx="236.364" cy="203.955" rx="3.026" ry="4.911" transform="matrix(.611 -.791 .791 .611 -69.538 266.322)"/></g></g><g><path d="m245.112 172.822v14.261c0 1.102-1.237 1.766-2.148 1.132-13.208-9.183-39.41.228-40.592-47.19-.031-1.237 1.471-1.883 2.345-1.003l1.213 1.213 9.423 9.423c3.441 3.441 8.106 5.373 12.968 5.373 4.641 0 8.839 1.877 11.873 4.918 3.041 3.04 4.918 7.238 4.918 11.873z" fill="#efb732"/><path d="m245.112 172.822v7.417c-12.698-7.663-35.588-1.151-39.182-39.004l9.423 9.423c3.441 3.441 8.106 5.373 12.968 5.373 4.641 0 8.839 1.877 11.873 4.918 3.041 3.04 4.918 7.238 4.918 11.873z" fill="#fbdb58"/><g fill="#f9eaa5"><ellipse cx="223.409" cy="161.345" rx="4.345" ry="7.05" transform="matrix(.278 -.961 .961 .278 6.304 331.077)"/><ellipse cx="236.364" cy="167.504" rx="3.026" ry="4.911" transform="matrix(.611 -.791 .791 .611 -40.691 252.155)"/></g></g><g><path d="m250.42 141.117-1.243 14.207c-.096 1.098-1.386 1.652-2.239.941-12.358-10.299-39.28-3.208-36.324-50.548.077-1.235 1.63-1.748 2.424-.795l1.102 1.314 8.566 10.209c3.128 3.727 7.607 6.059 12.451 6.483 4.623.404 8.641 2.64 11.399 5.934 2.764 3.293 4.268 7.638 3.864 12.255z" fill="#efb732"/><path d="m250.42 141.117-.646 7.388c-11.981-8.74-35.352-4.248-35.634-42.27l8.566 10.209c3.128 3.727 7.607 6.059 12.451 6.483 4.623.404 8.641 2.64 11.399 5.934 2.764 3.294 4.268 7.639 3.864 12.256z" fill="#fbdb58"/><g fill="#f9eaa5"><ellipse cx="229.8" cy="127.792" rx="4.345" ry="7.05" transform="matrix(.361 -.933 .933 .361 27.716 296.021)"/><ellipse cx="242.169" cy="135.057" rx="3.026" ry="4.911" transform="matrix(.678 -.735 .735 .678 -21.295 221.505)"/></g></g><g><path d="m266.888 282.174v14.261c0 1.102 1.237 1.766 2.148 1.132 13.208-9.183 39.41.228 40.592-47.19.031-1.237-1.471-1.883-2.345-1.003l-1.212 1.213-9.423 9.423c-3.441 3.441-8.106 5.373-12.968 5.373-4.641 0-8.839 1.877-11.873 4.918-3.042 3.04-4.919 7.238-4.919 11.873z" fill="#efb732"/><path d="m266.888 282.174v7.417c12.698-7.663 35.588-1.151 39.182-39.004l-9.423 9.423c-3.441 3.441-8.106 5.373-12.968 5.373-4.641 0-8.839 1.877-11.873 4.918-3.041 3.04-4.918 7.238-4.918 11.873z" fill="#fbdb58"/><g fill="#f9eaa5"><ellipse cx="288.591" cy="270.696" rx="7.05" ry="4.345" transform="matrix(.961 -.278 .278 .961 -63.891 90.925)"/><ellipse cx="275.636" cy="276.856" rx="4.911" ry="3.026" transform="matrix(.791 -.611 .611 .791 -111.746 226.265)"/></g></g><g><path d="m266.888 245.723v14.261c0 1.102 1.237 1.766 2.148 1.132 13.208-9.183 39.41.228 40.592-47.19.031-1.237-1.471-1.883-2.345-1.003l-1.212 1.213-9.423 9.423c-3.441 3.441-8.106 5.373-12.968 5.373-4.641 0-8.839 1.877-11.873 4.918-3.042 3.041-4.919 7.238-4.919 11.873z" fill="#efb732"/><path d="m266.888 245.723v7.417c12.698-7.663 35.588-1.151 39.182-39.004l-9.423 9.423c-3.441 3.441-8.106 5.373-12.968 5.373-4.641 0-8.839 1.877-11.873 4.918-3.041 3.041-4.918 7.238-4.918 11.873z" fill="#fbdb58"/><g fill="#f9eaa5"><ellipse cx="288.591" cy="234.246" rx="7.05" ry="4.345" transform="matrix(.961 -.278 .278 .961 -53.755 89.488)"/><ellipse cx="275.636" cy="240.405" rx="4.911" ry="3.026" transform="matrix(.791 -.611 .611 .791 -89.463 218.661)"/></g></g><g><path d="m266.888 209.272v14.261c0 1.102 1.237 1.766 2.148 1.132 13.208-9.183 39.41.228 40.592-47.19.031-1.237-1.471-1.883-2.345-1.003l-1.212 1.213-9.423 9.423c-3.441 3.441-8.106 5.373-12.968 5.373-4.641 0-8.839 1.877-11.873 4.918-3.042 3.041-4.919 7.239-4.919 11.873z" fill="#efb732"/><path d="m266.888 209.272v7.417c12.698-7.663 35.588-1.151 39.182-39.004l-9.423 9.423c-3.441 3.441-8.106 5.373-12.968 5.373-4.641 0-8.839 1.877-11.873 4.918-3.041 3.041-4.918 7.239-4.918 11.873z" fill="#fbdb58"/><g fill="#f9eaa5"><ellipse cx="288.591" cy="197.795" rx="7.05" ry="4.345" transform="matrix(.961 -.278 .278 .961 -43.619 88.05)"/><ellipse cx="275.636" cy="203.955" rx="4.911" ry="3.026" transform="matrix(.791 -.611 .611 .791 -67.179 211.056)"/></g></g><g><path d="m266.888 172.822v14.261c0 1.102 1.237 1.766 2.148 1.132 13.208-9.183 39.41.228 40.592-47.19.031-1.237-1.471-1.883-2.345-1.003l-1.212 1.213-9.423 9.423c-3.441 3.441-8.106 5.373-12.968 5.373-4.641 0-8.839 1.877-11.873 4.918-3.042 3.04-4.919 7.238-4.919 11.873z" fill="#efb732"/><path d="m266.888 172.822v7.417c12.698-7.663 35.588-1.151 39.182-39.004l-9.423 9.423c-3.441 3.441-8.106 5.373-12.968 5.373-4.641 0-8.839 1.877-11.873 4.918-3.041 3.04-4.918 7.238-4.918 11.873z" fill="#fbdb58"/><g fill="#f9eaa5"><ellipse cx="288.591" cy="161.345" rx="7.05" ry="4.345" transform="matrix(.961 -.278 .278 .961 -33.483 86.612)"/><ellipse cx="275.636" cy="167.504" rx="4.911" ry="3.026" transform="matrix(.791 -.611 .611 .791 -44.896 203.452)"/></g></g><g><path d="m261.58 141.117 1.243 14.207c.096 1.098 1.386 1.652 2.239.941 12.358-10.299 39.28-3.208 36.324-50.548-.077-1.235-1.63-1.748-2.424-.795l-1.102 1.314-8.566 10.209c-3.128 3.727-7.607 6.059-12.451 6.483-4.623.404-8.641 2.64-11.399 5.934-2.764 3.293-4.268 7.638-3.864 12.255z" fill="#efb732"/><path d="m261.58 141.117.646 7.388c11.981-8.74 35.352-4.248 35.634-42.27l-8.566 10.209c-3.128 3.727-7.607 6.059-12.451 6.483-4.623.404-8.641 2.64-11.399 5.934-2.764 3.294-4.268 7.639-3.864 12.256z" fill="#fbdb58"/><g fill="#f9eaa5"><ellipse cx="282.2" cy="127.792" rx="7.05" ry="4.345" transform="matrix(.933 -.361 .361 .933 -27.098 110.403)"/><ellipse cx="269.831" cy="135.057" rx="4.911" ry="3.026" transform="matrix(.735 -.678 .678 .735 -20.083 218.72)"/></g></g><g><path d="m253.379 109.787-3.691 13.775c-.285 1.064-1.652 1.386-2.368.538-10.382-12.289-38.126-9.98-26.995-56.088.29-1.203 1.908-1.439 2.525-.362l.857 1.485 6.663 11.541c2.433 4.214 6.439 7.288 11.136 8.547 4.483 1.201 8.051 4.101 10.195 7.823 2.15 3.724 2.877 8.264 1.678 12.741z" fill="#efb732"/><path d="m253.379 109.787-1.92 7.164c-10.282-10.688-34.077-10.323-27.752-47.816l6.663 11.541c2.433 4.214 6.439 7.288 11.136 8.547 4.483 1.201 8.051 4.101 10.195 7.823 2.15 3.724 2.877 8.264 1.678 12.741z" fill="#fbdb58"/><g fill="#f9eaa5"><ellipse cx="235.385" cy="93.084" rx="4.345" ry="7.05" transform="matrix(.517 -.856 .856 .517 33.976 246.397)"/><ellipse cx="246.305" cy="102.386" rx="3.026" ry="4.911" transform="matrix(.795 -.606 .606 .795 -11.653 170.262)"/></g></g><g><path d="m258.621 109.787 3.691 13.775c.285 1.064 1.652 1.386 2.368.538 10.382-12.289 38.126-9.98 26.995-56.088-.29-1.203-1.908-1.439-2.525-.362l-.857 1.485-6.663 11.541c-2.433 4.214-6.439 7.288-11.136 8.547-4.483 1.201-8.052 4.101-10.195 7.823-2.15 3.724-2.877 8.264-1.678 12.741z" fill="#efb732"/><path d="m258.621 109.787 1.92 7.164c10.282-10.688 34.077-10.323 27.752-47.816l-6.663 11.541c-2.433 4.214-6.439 7.288-11.136 8.547-4.483 1.201-8.052 4.101-10.195 7.823-2.15 3.724-2.877 8.264-1.678 12.741z" fill="#fbdb58"/><g fill="#f9eaa5"><ellipse cx="276.615" cy="93.084" rx="7.05" ry="4.345" transform="matrix(.856 -.517 .517 .856 -8.272 156.484)"/><ellipse cx="265.695" cy="102.386" rx="4.911" ry="3.026" transform="matrix(.606 -.795 .795 .606 23.205 251.636)"/></g></g></g><g><g><path d="m139.631 196.653c7.106 46.58 23.813 91.432 49.33 131.607.511.807.69 1.718.565 2.542-.046.304-.134.591-.258.86-.221.47-.555.875-1.005 1.168-1.414.925-3.421.35-4.463-1.292-25.974-40.894-42.98-86.549-50.213-133.963-.29-1.898.846-3.635 2.52-3.867.532-.074 1.049.009 1.525.216 1.014.44 1.806 1.463 1.999 2.729z" fill="#efb732"/><path d="m139.631 196.653c7.106 46.58 23.813 91.432 49.33 131.607.511.807.69 1.718.565 2.542-.046.304-.134.591-.258.86-1.112.015-2.27-.596-2.974-1.707-25.753-40.548-42.614-85.814-49.786-132.825-.195-1.281.274-2.499 1.125-3.206 1.013.44 1.805 1.463 1.998 2.729z" fill="#fbdb58"/></g><g><path d="m153.822 283.089c1.387 3.251 2.824 6.485 4.31 9.697.344.743-.17 1.53-.903 1.351-10.273-2.928-23.87 11.447-38.001-23.974-.346-.931.405-1.732 1.167-1.255.352.219.705.438 1.057.655 2.74 1.69 5.491 3.335 8.25 4.933 3.025 1.754 6.379 2.057 9.307.926 2.8-1.073 5.838-.715 8.5.678 2.667 1.397 4.96 3.818 6.313 6.989z" fill="#efb732"/><path d="m153.822 283.089c.721 1.692 1.456 3.377 2.204 5.058-9.591-2.097-21.893 8.944-34.574-18.584 2.74 1.69 5.491 3.335 8.25 4.933 3.025 1.754 6.379 2.057 9.307.926 2.8-1.073 5.838-.715 8.5.678 2.667 1.397 4.96 3.818 6.313 6.989z" fill="#fbdb58"/><g fill="#f9eaa5"><path d="m137.093 277.101c2.554-.094 4.814 1.267 5.073 3.056.256 1.786-1.583 3.375-4.137 3.515-2.554.139-4.854-1.258-5.112-3.094-.258-1.839 1.623-3.382 4.176-3.477z"/><path d="m147.489 279.477c1.754.635 2.988 2.072 2.767 3.245-.223 1.169-1.828 1.636-3.594 1.012-1.765-.621-3.013-2.105-2.778-3.287.234-1.182 1.851-1.604 3.605-.97z"/></g></g><g><path d="m144.167 257.795c1.13 3.342 2.311 6.669 3.543 9.978.285.765-.288 1.51-1.005 1.276-10.015-3.703-24.671 9.595-36.027-26.771-.273-.953.535-1.7 1.26-1.161.334.246.669.49 1.004.733 2.602 1.894 5.218 3.743 7.845 5.547 2.88 1.973 6.201 2.54 9.207 1.635 2.874-.857 5.874-.27 8.421 1.324 2.552 1.594 4.65 4.182 5.752 7.439z" fill="#efb732"/><path d="m144.167 257.795c.588 1.738 1.189 3.472 1.805 5.202-9.4-2.825-22.511 7.241-33.03-21.147 2.602 1.894 5.218 3.743 7.845 5.547 2.88 1.973 6.201 2.54 9.207 1.635 2.874-.857 5.874-.27 8.421 1.324 2.552 1.594 4.65 4.182 5.752 7.439z" fill="#fbdb58"/><g fill="#f9eaa5"><path d="m127.955 250.556c2.553.104 4.701 1.625 4.821 3.431.118 1.799-1.84 3.237-4.396 3.184-2.556-.054-4.742-1.624-4.856-3.472-.117-1.854 1.878-3.247 4.431-3.143z"/><path d="m138.135 253.716c1.699.765 2.819 2.293 2.507 3.441s-1.949 1.488-3.66.734c-1.711-.753-2.84-2.328-2.515-3.485.323-1.159 1.968-1.455 3.668-.69z"/></g></g><g><path d="m136.496 231.864c.87 3.418 1.791 6.823 2.763 10.213.225.782-.404 1.482-1.1 1.193-9.7-4.46-25.333 7.682-33.862-29.456-.198-.969.665-1.652 1.346-1.062.314.27.629.54.945.809 2.449 2.091 4.915 4.136 7.397 6.137 2.72 2.193 5.988 3.007 9.055 2.339 2.93-.636 5.878.185 8.294 1.968 2.42 1.786 4.314 4.528 5.162 7.859z" fill="#efb732"/><path d="m136.496 231.864c.452 1.778.919 3.552 1.399 5.322-9.156-3.541-22.998 5.502-31.307-23.624 2.449 2.091 4.915 4.136 7.397 6.137 2.72 2.193 5.988 3.007 9.055 2.339 2.93-.636 5.878.185 8.294 1.968 2.42 1.785 4.314 4.527 5.162 7.858z" fill="#fbdb58"/><g fill="#f9eaa5"><path d="m120.888 223.403c2.538.299 4.562 1.984 4.543 3.791-.022 1.8-2.082 3.088-4.627 2.836-2.544-.251-4.603-1.981-4.575-3.834.026-1.854 2.121-3.093 4.659-2.793z"/><path d="m130.795 227.335c1.635.891 2.635 2.503 2.235 3.623-.4 1.119-2.057 1.336-3.706.45-1.649-.883-2.653-2.537-2.24-3.666.413-1.13 2.075-1.3 3.711-.407z"/></g></g><g><path d="m130.838 205.414c.605 3.478 1.262 6.946 1.972 10.403.164.799-.517 1.446-1.189 1.105-9.33-5.204-25.848 5.733-31.503-32.019-.123-.986.79-1.599 1.423-.956.293.295.586.589.88.881 2.282 2.279 4.583 4.512 6.904 6.703 2.544 2.399 5.74 3.467 8.849 3.035 2.971-.406 5.847.639 8.119 2.606 2.277 1.97 3.955 4.852 4.545 8.242z" fill="#efb732"/><path d="m130.838 205.414c.315 1.809.644 3.615.986 5.418-8.857-4.242-23.354 3.729-29.404-26.004 2.282 2.279 4.583 4.512 6.904 6.703 2.544 2.399 5.74 3.467 8.849 3.035 2.971-.406 5.847.639 8.119 2.606 2.278 1.97 3.956 4.852 4.546 8.242z" fill="#fbdb58"/><g fill="#f9eaa5"><path d="m115.925 195.764c2.508.497 4.397 2.335 4.239 4.135-.159 1.801-2.313 2.92-4.831 2.474-2.518-.45-4.436-2.326-4.268-4.181.168-1.849 2.352-2.928 4.86-2.428z"/><path d="m125.501 200.454c1.562 1.018 2.435 2.703 1.95 3.788s-2.154 1.173-3.73.164c-1.576-1.007-2.451-2.737-1.952-3.832s2.17-1.139 3.732-.12z"/></g></g><g><path d="m130.989 181.717c.1 3.498.254 6.998.46 10.496.048.81-.719 1.335-1.338.885-8.503-6.592-26.477 1.155-26.588-36.669.02-.984 1.012-1.418 1.546-.676.247.339.495.678.742 1.015 1.927 2.627 3.883 5.211 5.864 7.753 2.172 2.787 5.185 4.384 8.325 4.488 3.001.111 5.7 1.615 7.668 3.908 1.974 2.302 3.223 5.393 3.321 8.8z" fill="#efb732"/><path d="m130.989 181.717c.052 1.819.119 3.64.199 5.459-8.169-5.571-23.701-.338-25.377-30.407 1.927 2.627 3.883 5.211 5.864 7.753 2.172 2.787 5.185 4.384 8.325 4.488 3.001.111 5.7 1.615 7.668 3.908 1.974 2.301 3.223 5.392 3.321 8.799z" fill="#fbdb58"/><g fill="#f9eaa5"><path d="m117.6 169.792c2.412.914 4.02 3.026 3.603 4.758-.417 1.73-2.713 2.459-5.144 1.588-2.43-.868-4.059-3.042-3.624-4.819.434-1.776 2.754-2.44 5.165-1.527z"/><path d="m126.413 175.99c1.401 1.25 2.025 3.043 1.388 4.024-.637.978-2.304.787-3.72-.463-1.417-1.249-2.034-3.083-1.383-4.07s2.313-.746 3.715.509z"/></g></g><g><path d="m166.76 277.571c1.331 3.121 2.711 6.225 4.137 9.309.331.715 1.257.809 1.599.149 5.392-9.507 22.286-10.506 12.138-39.705-.247-.767-1.303-.857-1.647-.124-.159.337-.318.674-.477 1.012-1.232 2.625-2.43 5.281-3.595 7.968-1.276 2.941-3.606 5.261-6.537 6.39-2.797 1.077-4.862 3.27-5.891 5.992-1.035 2.721-1.026 5.967.273 9.009z" fill="#efb732"/><path d="m166.76 277.571c.693 1.624 1.398 3.242 2.116 4.856 5.549-8.292 20.1-10.074 13.634-34.214-1.232 2.625-2.43 5.281-3.595 7.968-1.276 2.941-3.606 5.261-6.537 6.39-2.797 1.077-4.862 3.27-5.891 5.992-1.035 2.72-1.026 5.966.273 9.008z" fill="#fbdb58"/><g fill="#f9eaa5"><path d="m174.891 262.44c-1.987 1.562-2.787 3.928-1.788 5.253.999 1.324 3.394 1.073 5.348-.527 1.955-1.602 2.755-3.913 1.788-5.199-.967-1.287-3.361-1.09-5.348.473z"/><path d="m168.767 270.809c-.845 1.604-.731 3.412.242 4.022.972.606 2.421-.224 3.251-1.828.829-1.607.737-3.378-.221-3.984-.956-.605-2.426.188-3.272 1.79z"/></g></g><g><path d="m157.492 253.288c1.085 3.209 2.219 6.403 3.401 9.58.275.738 1.189.897 1.582.269 6.11-9.056 23.036-8.747 15.172-38.604-.187-.787-1.232-.95-1.633-.25-.185.323-.369.647-.553.971-1.43 2.521-2.83 5.076-4.198 7.663-1.499 2.831-4.002 4.959-7.01 5.864-2.872.856-5.101 2.882-6.335 5.517-1.243 2.629-1.486 5.859-.426 8.99z" fill="#efb732"/><path d="m157.492 253.288c.564 1.669 1.142 3.334 1.733 4.994 6.173-7.833 20.821-8.484 16.236-33.027-1.43 2.521-2.83 5.076-4.198 7.663-1.499 2.831-4.002 4.959-7.01 5.864-2.872.856-5.101 2.882-6.335 5.517-1.243 2.628-1.486 5.858-.426 8.989z" fill="#fbdb58"/><g fill="#f9eaa5"><path d="m166.768 238.844c-2.102 1.4-3.081 3.704-2.188 5.094.894 1.395 3.3 1.328 5.373-.116 2.073-1.442 3.05-3.685 2.184-5.041-.865-1.352-3.268-1.343-5.369.063z"/><path d="m160.017 246.71c-.966 1.535-.993 3.343-.07 4.022.923.68 2.431-.037 3.382-1.572.95-1.536.996-3.306.088-3.983-.906-.671-2.435-.004-3.4 1.533z"/></g></g><g><path d="m150.127 228.395c.835 3.282 1.719 6.55 2.653 9.805.217.757 1.116.986 1.556.39 6.788-8.561 23.644-6.932 18.095-37.319-.126-.798-1.156-1.046-1.608-.374-.209.308-.418.617-.626.926-1.619 2.405-3.211 4.845-4.774 7.321-1.712 2.709-4.37 4.643-7.44 5.31-2.929.635-5.306 2.487-6.741 5.014-1.44 2.526-1.93 5.726-1.115 8.927z" fill="#efb732"/><path d="m150.127 228.395c.434 1.706.882 3.41 1.343 5.109 6.756-7.34 21.414-6.848 18.726-31.682-1.619 2.405-3.211 4.845-4.774 7.321-1.712 2.709-4.37 4.643-7.44 5.31-2.929.635-5.306 2.487-6.741 5.014-1.439 2.527-1.929 5.727-1.114 8.928z" fill="#fbdb58"/><g fill="#f9eaa5"><path d="m160.487 214.708c-2.203 1.235-3.358 3.449-2.573 4.911.784 1.46 3.188 1.575 5.366.296 2.177-1.282 3.323-3.441 2.565-4.857-.759-1.416-3.155-1.588-5.358-.35z"/><path d="m153.151 222.032c-1.081 1.454-1.247 3.257-.379 4.005.867.746 2.427.151 3.493-1.308 1.066-1.458 1.247-3.22.395-3.963-.854-.743-2.428-.187-3.509 1.266z"/></g></g><g><path d="m144.696 203.003c.581 3.339 1.212 6.668 1.893 9.987.158.772 1.038 1.069 1.522.508 7.426-8.022 24.107-5.083 20.905-35.856-.065-.809-1.072-1.133-1.575-.499-.232.291-.464.584-.696.877-1.799 2.278-3.573 4.592-5.322 6.944-1.915 2.572-4.713 4.298-7.825 4.728-2.968.411-5.482 2.07-7.106 4.486-1.63 2.409-2.363 5.569-1.796 8.825z" fill="#efb732"/><path d="m144.696 203.003c.302 1.737.618 3.471.947 5.202 7.299-6.805 21.876-5.174 21.101-30.186-1.799 2.278-3.573 4.592-5.322 6.944-1.915 2.572-4.713 4.298-7.825 4.728-2.968.411-5.482 2.07-7.106 4.486-1.629 2.41-2.362 5.57-1.795 8.826z" fill="#fbdb58"/><g fill="#f9eaa5"><path d="m156.075 190.14c-2.291 1.066-3.612 3.187-2.942 4.704.67 1.52 3.058 1.82 5.327.711 2.269-1.112 3.577-3.18 2.93-4.652-.647-1.473-3.024-1.831-5.315-.763z"/><path d="m148.199 196.885c-1.19 1.365-1.493 3.157-.685 3.968.807.81 2.409.34 3.583-1.035 1.175-1.371 1.49-3.118.697-3.925s-2.406-.375-3.595.992z"/></g></g><g><path d="m138.158 180.96c.625 3.371 1.3 6.725 2.025 10.064.168.774 1.05 1.056 1.524.473 7.296-8.38 23.992-5.55 20.42-36.837-.074-.823-1.086-1.144-1.58-.488-.229.302-.457.604-.685.906-1.771 2.352-3.517 4.741-5.236 7.167-1.882 2.656-4.656 4.461-7.759 4.97-2.96.479-5.448 2.236-7.036 4.736-1.593 2.495-2.283 5.723-1.673 9.009z" fill="#efb732"/><path d="m138.158 180.96c.325 1.753.664 3.501 1.016 5.246 7.187-7.142 21.763-5.668 20.688-31.129-1.771 2.352-3.517 4.741-5.236 7.167-1.882 2.656-4.656 4.461-7.759 4.97-2.96.479-5.448 2.236-7.036 4.736-1.593 2.496-2.283 5.724-1.673 9.01z" fill="#fbdb58"/><g fill="#f9eaa5"><path d="m149.348 167.617c-2.276 1.131-3.567 3.321-2.878 4.847.689 1.528 3.077 1.779 5.329.608 2.252-1.173 3.534-3.293 2.868-4.782-.666-1.488-3.044-1.806-5.319-.673z"/><path d="m141.571 174.657c-1.168 1.424-1.448 3.241-.631 4.045.817.803 2.408.279 3.562-1.14 1.154-1.42 1.446-3.201.644-4.002-.802-.804-2.407-.324-3.575 1.097z"/></g></g><g><path d="m131.236 158.587c-.663 3.404-1.276 6.826-1.838 10.266-.13.796-.993 1.1-1.499.503-6.868-8.539-26.038-6.324-17.812-42.625.236-.934 1.289-1.06 1.643-.201.165.395.33.791.496 1.185 1.29 3.067 2.618 6.098 3.984 9.091 1.496 3.282 4.073 5.652 7.101 6.61 2.891.921 5.188 3.084 6.605 5.814 1.418 2.73 1.964 6.037 1.32 9.357z" fill="#efb732"/><path d="m131.236 158.587c-.345 1.77-.676 3.545-.994 5.325-6.758-7.465-23-6.88-18.016-36.198 1.29 3.067 2.618 6.098 3.984 9.091 1.496 3.282 4.073 5.652 7.101 6.61 2.891.921 5.188 3.084 6.605 5.814 1.418 2.731 1.964 6.038 1.32 9.358z" fill="#fbdb58"/><g fill="#f9eaa5"><path d="m120.808 143.51c2.143 1.541 3.246 4.004 2.464 5.558-.783 1.551-3.177 1.626-5.348.114-2.172-1.513-3.275-4.057-2.465-5.642.811-1.581 3.206-1.568 5.349-.03z"/><path d="m128.025 151.854c1.092 1.582 1.309 3.468.476 4.247-.834.774-2.415.147-3.521-1.441-1.106-1.584-1.307-3.522-.458-4.293s2.412-.091 3.503 1.487z"/></g></g><g><path d="m134.619 158.454c.924 3.31 1.895 6.591 2.914 9.844.236.755 1.134.921 1.552.281 6.474-9.428 23.312-8.112 17.03-39.541-.145-.833-1.18-1.056-1.616-.331-.202.332-.403.664-.604.996-1.56 2.588-3.088 5.211-4.585 7.867-1.64 2.904-4.237 5.052-7.277 5.935-2.899.841-5.213 2.932-6.566 5.658-1.358 2.718-1.749 6.065-.848 9.291z" fill="#efb732"/><path d="m134.619 158.454c.48 1.721.974 3.435 1.48 5.14 6.48-8.17 21.087-8.129 17.796-33.891-1.56 2.588-3.088 5.211-4.585 7.867-1.64 2.904-4.237 5.052-7.277 5.935-2.899.841-5.213 2.932-6.566 5.658-1.358 2.718-1.749 6.065-.848 9.291z" fill="#fbdb58"/><g fill="#f9eaa5"><path d="m144.536 143.619c-2.161 1.414-3.249 3.784-2.429 5.24.82 1.457 3.215 1.432 5.349-.008 2.133-1.443 3.222-3.722 2.428-5.158-.792-1.426-3.188-1.491-5.348-.074z"/><path d="m137.438 151.673c-1.034 1.575-1.145 3.453-.263 4.155.883.706 2.414-.018 3.432-1.59 1.019-1.569 1.151-3.397.282-4.113-.867-.71-2.418-.03-3.451 1.548z"/></g></g></g><g><g><path d="m378.413 197.575c-7.233 47.414-24.239 93.069-50.213 133.963-.52.818-1.284 1.377-2.092 1.608-.297.087-.596.124-.893.122-.52-.011-1.028-.146-1.478-.439-1.415-.925-1.72-2.961-.698-4.57 25.517-40.175 42.224-85.027 49.33-131.607.283-1.857 1.851-3.18 3.524-2.945.532.075 1.006.299 1.403.637.85.711 1.313 1.941 1.117 3.231z" fill="#efb732"/><path d="m378.413 197.575c-7.233 47.414-24.239 93.069-50.213 133.963-.52.818-1.284 1.377-2.092 1.608-.297.087-.596.124-.893.122-.466-1.015-.387-2.315.317-3.425 25.738-40.523 42.589-85.762 49.757-132.745.195-1.277.992-2.309 2.007-2.754.85.711 1.313 1.941 1.117 3.231z" fill="#fbdb58"/></g><g><path d="m345.24 277.571c-1.331 3.121-2.711 6.225-4.137 9.309-.331.715-1.257.809-1.599.149-5.392-9.507-22.286-10.506-12.137-39.704.246-.767 1.303-.857 1.647-.124.159.337.318.674.477 1.012 1.232 2.625 2.43 5.281 3.595 7.968 1.276 2.941 3.606 5.261 6.537 6.39 2.797 1.077 4.862 3.27 5.891 5.992 1.033 2.72 1.024 5.966-.274 9.008z" fill="#efb732"/><path d="m345.24 277.571c-.693 1.624-1.398 3.242-2.116 4.856-5.549-8.291-20.1-10.074-13.634-34.214 1.232 2.625 2.43 5.281 3.595 7.968 1.276 2.941 3.606 5.261 6.537 6.39 2.797 1.077 4.862 3.27 5.891 5.992 1.034 2.72 1.025 5.966-.273 9.008z" fill="#fbdb58"/><g fill="#f9eaa5"><path d="m337.108 262.44c1.987 1.562 2.787 3.928 1.788 5.253-.999 1.324-3.394 1.073-5.348-.527-1.955-1.602-2.755-3.913-1.788-5.199.967-1.288 3.362-1.09 5.348.473z"/><path d="m343.232 270.809c.845 1.604.731 3.412-.242 4.022-.972.606-2.421-.224-3.251-1.828-.829-1.607-.736-3.378.221-3.984.956-.605 2.427.188 3.272 1.79z"/></g></g><g><path d="m354.508 253.288c-1.085 3.209-2.219 6.403-3.401 9.58-.275.738-1.189.897-1.582.269-6.11-9.056-23.036-8.747-15.172-38.604.187-.787 1.232-.95 1.633-.25.185.323.369.647.553.971 1.43 2.521 2.83 5.076 4.198 7.663 1.499 2.831 4.002 4.959 7.01 5.864 2.872.856 5.1 2.882 6.335 5.517 1.243 2.628 1.485 5.859.426 8.99z" fill="#efb732"/><path d="m354.508 253.288c-.564 1.669-1.142 3.334-1.733 4.994-6.173-7.833-20.821-8.484-16.236-33.027 1.43 2.521 2.83 5.076 4.198 7.663 1.499 2.831 4.002 4.959 7.01 5.864 2.872.856 5.1 2.882 6.335 5.517 1.243 2.627 1.485 5.858.426 8.989z" fill="#fbdb58"/><g fill="#f9eaa5"><path d="m345.231 238.844c2.102 1.4 3.081 3.704 2.188 5.094-.894 1.395-3.3 1.328-5.373-.116-2.073-1.442-3.049-3.685-2.184-5.041.865-1.352 3.269-1.343 5.369.063z"/><path d="m351.983 246.71c.966 1.536.993 3.343.07 4.022-.923.68-2.431-.037-3.382-1.572-.95-1.536-.996-3.306-.088-3.983.905-.671 2.435-.004 3.4 1.533z"/></g></g><g><path d="m361.872 228.395c-.835 3.282-1.719 6.55-2.653 9.805-.217.757-1.117.986-1.556.39-6.788-8.561-23.645-6.932-18.095-37.319.126-.798 1.156-1.046 1.608-.374.209.308.418.618.626.926 1.619 2.405 3.211 4.845 4.774 7.321 1.712 2.709 4.37 4.643 7.44 5.31 2.929.635 5.306 2.487 6.741 5.014 1.44 2.526 1.931 5.726 1.115 8.927z" fill="#efb732"/><path d="m361.872 228.395c-.434 1.706-.882 3.41-1.343 5.109-6.756-7.34-21.414-6.848-18.726-31.682 1.619 2.405 3.211 4.845 4.774 7.321 1.712 2.709 4.37 4.643 7.44 5.31 2.929.635 5.306 2.487 6.741 5.014 1.439 2.527 1.93 5.727 1.114 8.928z" fill="#fbdb58"/><g fill="#f9eaa5"><path d="m351.513 214.708c2.203 1.235 3.358 3.449 2.573 4.911-.784 1.46-3.188 1.575-5.366.296-2.177-1.282-3.323-3.441-2.565-4.857.759-1.416 3.155-1.588 5.358-.35z"/><path d="m358.849 222.032c1.081 1.454 1.247 3.257.379 4.005-.867.746-2.427.151-3.493-1.308-1.066-1.458-1.247-3.22-.395-3.963.853-.743 2.427-.187 3.509 1.266z"/></g></g><g><path d="m367.303 203.003c-.581 3.339-1.212 6.668-1.893 9.987-.159.771-1.038 1.069-1.521.508-7.426-8.022-24.106-5.083-20.905-35.856.065-.809 1.072-1.133 1.575-.499.232.291.464.584.696.877 1.799 2.277 3.573 4.593 5.322 6.944 1.915 2.572 4.713 4.298 7.826 4.728 2.968.411 5.482 2.07 7.106 4.486 1.628 2.409 2.361 5.569 1.794 8.825z" fill="#efb732"/><path d="m367.303 203.003c-.302 1.737-.618 3.471-.947 5.202-7.299-6.805-21.876-5.173-21.101-30.186 1.799 2.277 3.573 4.593 5.322 6.944 1.915 2.572 4.713 4.298 7.826 4.728 2.968.411 5.482 2.07 7.106 4.486 1.628 2.41 2.361 5.57 1.794 8.826z" fill="#fbdb58"/><g fill="#f9eaa5"><path d="m355.924 190.14c2.291 1.066 3.612 3.187 2.942 4.704-.67 1.52-3.058 1.82-5.327.711-2.269-1.112-3.577-3.18-2.93-4.652.648-1.473 3.024-1.831 5.315-.763z"/><path d="m363.801 196.885c1.19 1.365 1.493 3.157.685 3.968-.807.81-2.409.34-3.583-1.035-1.175-1.371-1.49-3.118-.697-3.925.792-.807 2.405-.375 3.595.992z"/></g></g><g><path d="m373.841 180.96c-.625 3.371-1.3 6.725-2.025 10.064-.168.774-1.05 1.056-1.524.473-7.296-8.38-23.991-5.55-20.42-36.837.074-.823 1.086-1.144 1.58-.488.229.302.457.604.685.906 1.771 2.352 3.517 4.741 5.236 7.167 1.882 2.656 4.656 4.461 7.759 4.97 2.96.479 5.448 2.236 7.036 4.736 1.594 2.495 2.284 5.723 1.673 9.009z" fill="#efb732"/><path d="m373.841 180.96c-.325 1.753-.664 3.501-1.016 5.246-7.188-7.142-21.763-5.668-20.688-31.129 1.771 2.352 3.517 4.741 5.236 7.167 1.882 2.656 4.656 4.461 7.759 4.97 2.96.479 5.448 2.236 7.036 4.736 1.594 2.496 2.284 5.724 1.673 9.01z" fill="#fbdb58"/><g fill="#f9eaa5"><path d="m362.652 167.617c2.276 1.131 3.567 3.321 2.878 4.847-.689 1.528-3.077 1.779-5.329.608-2.252-1.173-3.534-3.293-2.868-4.782.665-1.488 3.043-1.806 5.319-.673z"/><path d="m370.429 174.657c1.168 1.424 1.448 3.241.631 4.045-.817.803-2.408.279-3.562-1.14-1.154-1.42-1.446-3.201-.644-4.002.802-.804 2.406-.325 3.575 1.097z"/></g></g><g><path d="m358.178 283.089c-1.387 3.251-2.824 6.485-4.31 9.697-.344.743.17 1.53.903 1.351 10.273-2.928 23.87 11.447 38.001-23.974.346-.931-.405-1.732-1.167-1.255-.352.219-.705.438-1.057.655-2.74 1.69-5.491 3.335-8.25 4.932-3.025 1.754-6.379 2.057-9.307.926-2.8-1.073-5.838-.716-8.5.678-2.668 1.398-4.96 3.819-6.313 6.99z" fill="#efb732"/><path d="m358.178 283.089c-.721 1.692-1.456 3.377-2.204 5.058 9.591-2.097 21.893 8.944 34.574-18.584-2.74 1.69-5.491 3.335-8.25 4.932-3.025 1.754-6.379 2.057-9.307.926-2.8-1.073-5.838-.716-8.5.678-2.668 1.398-4.96 3.819-6.313 6.99z" fill="#fbdb58"/><g fill="#f9eaa5"><path d="m374.906 277.101c-2.554-.094-4.814 1.267-5.073 3.056-.256 1.786 1.583 3.375 4.137 3.515 2.554.139 4.854-1.258 5.112-3.094.259-1.839-1.623-3.382-4.176-3.477z"/><path d="m364.51 279.476c-1.754.635-2.988 2.072-2.767 3.245.223 1.169 1.828 1.636 3.594 1.012 1.765-.621 3.013-2.105 2.778-3.287-.233-1.181-1.851-1.603-3.605-.97z"/></g></g><g><path d="m367.832 257.795c-1.13 3.342-2.311 6.669-3.543 9.978-.285.765.288 1.51 1.005 1.276 10.015-3.703 24.672 9.595 36.027-26.771.273-.953-.535-1.7-1.26-1.161-.334.246-.669.49-1.004.733-2.602 1.894-5.218 3.743-7.845 5.547-2.88 1.973-6.202 2.54-9.207 1.635-2.874-.857-5.874-.27-8.421 1.324-2.552 1.594-4.65 4.182-5.752 7.439z" fill="#efb732"/><path d="m367.832 257.795c-.588 1.738-1.189 3.472-1.805 5.202 9.4-2.825 22.511 7.241 33.03-21.147-2.602 1.894-5.218 3.743-7.845 5.547-2.88 1.973-6.202 2.54-9.207 1.635-2.874-.857-5.874-.27-8.421 1.324-2.552 1.594-4.65 4.182-5.752 7.439z" fill="#fbdb58"/><g fill="#f9eaa5"><path d="m384.044 250.556c-2.554.104-4.7 1.625-4.821 3.431-.118 1.799 1.84 3.237 4.396 3.184 2.556-.054 4.742-1.624 4.857-3.472.117-1.854-1.878-3.248-4.432-3.143z"/><path d="m373.865 253.715c-1.699.765-2.819 2.293-2.507 3.441s1.949 1.488 3.66.734 2.84-2.328 2.515-3.485c-.324-1.158-1.969-1.454-3.668-.69z"/></g></g><g><path d="m375.503 231.864c-.87 3.418-1.791 6.823-2.763 10.213-.225.782.404 1.482 1.1 1.193 9.7-4.46 25.333 7.682 33.862-29.456.198-.969-.665-1.652-1.346-1.062-.314.27-.629.54-.945.809-2.449 2.091-4.915 4.136-7.397 6.137-2.72 2.193-5.988 3.007-9.055 2.339-2.93-.636-5.878.185-8.294 1.968-2.42 1.786-4.313 4.528-5.162 7.859z" fill="#efb732"/><path d="m375.503 231.864c-.452 1.778-.919 3.552-1.399 5.322 9.156-3.541 22.998 5.502 31.307-23.624-2.449 2.091-4.915 4.136-7.397 6.137-2.72 2.193-5.988 3.007-9.055 2.339-2.93-.636-5.878.185-8.294 1.968-2.42 1.785-4.313 4.527-5.162 7.858z" fill="#fbdb58"/><g fill="#f9eaa5"><path d="m391.111 223.403c-2.538.299-4.562 1.984-4.543 3.791.022 1.8 2.082 3.088 4.627 2.836 2.545-.251 4.603-1.981 4.575-3.834-.026-1.854-2.121-3.094-4.659-2.793z"/><path d="m381.204 227.335c-1.635.891-2.634 2.503-2.235 3.623.4 1.12 2.057 1.336 3.706.45 1.648-.883 2.653-2.537 2.24-3.666-.412-1.13-2.075-1.3-3.711-.407z"/></g></g><g><path d="m381.161 205.414c-.605 3.478-1.262 6.946-1.972 10.403-.164.799.517 1.445 1.189 1.105 9.329-5.204 25.848 5.733 31.503-32.019.123-.986-.79-1.599-1.423-.956-.293.295-.586.589-.88.881-2.282 2.279-4.583 4.512-6.904 6.703-2.543 2.4-5.74 3.467-8.849 3.035-2.971-.406-5.847.639-8.119 2.606-2.277 1.969-3.954 4.852-4.545 8.242z" fill="#efb732"/><path d="m381.161 205.414c-.315 1.809-.644 3.615-.986 5.418 8.857-4.242 23.354 3.729 29.404-26.004-2.282 2.279-4.583 4.512-6.904 6.703-2.543 2.4-5.74 3.467-8.849 3.035-2.971-.406-5.847.639-8.119 2.606-2.278 1.969-3.955 4.852-4.546 8.242z" fill="#fbdb58"/><g fill="#f9eaa5"><path d="m396.074 195.764c-2.508.497-4.397 2.335-4.239 4.135.159 1.801 2.313 2.92 4.831 2.474 2.518-.45 4.436-2.326 4.268-4.181-.168-1.849-2.351-2.928-4.86-2.428z"/><path d="m386.498 200.454c-1.562 1.018-2.435 2.703-1.95 3.788s2.154 1.173 3.73.164c1.576-1.007 2.451-2.738 1.952-3.832-.499-1.095-2.169-1.139-3.732-.12z"/></g></g><g><path d="m381.01 181.717c-.1 3.498-.254 6.998-.46 10.496-.048.81.719 1.335 1.338.885 8.503-6.592 26.477 1.155 26.588-36.669-.021-.984-1.012-1.418-1.546-.676-.247.339-.495.678-.742 1.015-1.927 2.627-3.883 5.211-5.864 7.753-2.172 2.787-5.185 4.384-8.325 4.488-3.001.111-5.7 1.615-7.668 3.908-1.973 2.302-3.223 5.393-3.321 8.8z" fill="#efb732"/><path d="m381.01 181.717c-.052 1.819-.119 3.64-.199 5.459 8.169-5.571 23.701-.338 25.378-30.407-1.927 2.627-3.883 5.211-5.864 7.753-2.172 2.787-5.185 4.384-8.325 4.488-3.001.111-5.7 1.615-7.668 3.908-1.974 2.301-3.224 5.392-3.322 8.799z" fill="#fbdb58"/><g fill="#f9eaa5"><path d="m394.399 169.792c-2.412.914-4.02 3.026-3.603 4.758.417 1.73 2.714 2.459 5.144 1.588 2.43-.868 4.059-3.042 3.624-4.819-.434-1.776-2.753-2.44-5.165-1.527z"/><path d="m385.587 175.99c-1.401 1.25-2.025 3.043-1.388 4.024.637.978 2.304.787 3.72-.463 1.417-1.249 2.034-3.083 1.383-4.07-.652-.987-2.313-.746-3.715.509z"/></g></g><g><path d="m377.38 158.454c-.924 3.31-1.896 6.591-2.914 9.844-.237.755-1.134.921-1.552.281-6.474-9.428-23.312-8.112-17.03-39.541.145-.833 1.18-1.055 1.616-.331.202.332.403.664.604.996 1.56 2.588 3.088 5.211 4.585 7.867 1.64 2.904 4.237 5.052 7.277 5.935 2.899.841 5.213 2.932 6.566 5.658 1.358 2.718 1.75 6.065.848 9.291z" fill="#efb732"/><path d="m377.38 158.454c-.48 1.721-.974 3.435-1.48 5.14-6.48-8.17-21.087-8.129-17.796-33.891 1.56 2.588 3.088 5.211 4.585 7.867 1.64 2.904 4.237 5.052 7.277 5.935 2.899.841 5.213 2.932 6.566 5.658 1.358 2.718 1.75 6.065.848 9.291z" fill="#fbdb58"/><g fill="#f9eaa5"><path d="m367.464 143.619c2.161 1.414 3.249 3.784 2.429 5.24-.82 1.457-3.215 1.432-5.349-.008-2.134-1.443-3.222-3.722-2.428-5.158.791-1.427 3.187-1.491 5.348-.074z"/><path d="m374.561 151.673c1.034 1.575 1.145 3.453.263 4.155-.883.706-2.414-.018-3.433-1.59-1.019-1.569-1.151-3.397-.282-4.113.868-.71 2.419-.03 3.452 1.548z"/></g></g><g><path d="m380.764 158.586c.663 3.404 1.276 6.826 1.838 10.266.13.796.992 1.1 1.499.503 6.868-8.539 26.038-6.324 17.812-42.625-.236-.934-1.289-1.06-1.643-.201-.165.395-.33.791-.496 1.185-1.29 3.067-2.618 6.098-3.984 9.091-1.496 3.282-4.073 5.652-7.101 6.61-2.891.921-5.188 3.084-6.605 5.814-1.419 2.731-1.965 6.038-1.32 9.357z" fill="#efb732"/><path d="m380.764 158.586c.345 1.77.676 3.545.994 5.325 6.758-7.465 23.001-6.88 18.016-36.198-1.29 3.067-2.618 6.098-3.984 9.091-1.496 3.282-4.073 5.652-7.101 6.61-2.891.921-5.188 3.084-6.605 5.814-1.419 2.732-1.965 6.039-1.32 9.358z" fill="#fbdb58"/><g fill="#f9eaa5"><path d="m391.191 143.51c-2.143 1.541-3.246 4.004-2.464 5.558.783 1.551 3.177 1.626 5.348.114 2.172-1.513 3.275-4.057 2.465-5.642-.81-1.581-3.206-1.568-5.349-.03z"/><path d="m383.974 151.854c-1.092 1.582-1.309 3.468-.476 4.247.834.774 2.415.147 3.521-1.441 1.106-1.584 1.307-3.522.458-4.293-.848-.772-2.412-.091-3.503 1.487z"/></g></g></g></g><g><path d="m393.4 366.25c-.19.23-.41.47-.66.71l-.25.25c-6.81 6.83-12.71 13.39-18.01 19.66-38.32 45.3-45.38 75.06-138.76 75.06-55.23 0-64.4 6.59-76.03 31.33-3.64-1.48-7.23-3.03-10.78-4.68-17.71-8.16-34.33-18.29-49.58-30.12-4.27-3.3-8.43-6.73-12.48-10.31 16.35-16.34 32.96-32.95 48.34-48.33 63.75-63.74 84.9-50.57 96.35-50.57 5.95 0 14.93-5.47 22.17-10.73 6.69-4.84 11.9-9.5 11.9-9.5 3.62-3.62 6.98-5.55 9.92-6.19 8-1.74 12.97 5.98 12.09 14.83-.46 4.63-2.5 9.56-6.56 13.62-5.72 5.71-48.38 30.97-48.38 30.97s15.91 0 32.41 0h31.53c23.36 0 43.27-52.06 65.49-52.06 11.61 0 17.15 2.93 19.79 5.73 2.42 2.55 2.42 4.99 2.42 4.99l-2.56 3.07v.01l-.08.09-.31.38-.08.1-8.27 9.92h.05.01c.05.01.13.01.24.01h.01c1.91.13 12.07.92 17.81 3.69 3.64 1.77 5.49 4.35 2.26 8.07z" fill="#eea47d"/><path d="m390.44 364.93c-.44-.18-.88-.36-1.31-.53h-.01s0-.01-.01-.01c-.01-.01-.02-.01-.04-.01-.73-.29-1.45-.56-2.14-.82-.09-.03-.18-.06-.26-.1 0 0-.01 0-.02 0-2.07-.75-3.84-1.32-4.97-1.7-5.74-1.95-13.28-1.14-13.28-1.14l4.7-5.85.01-.02.21-.26 7.72-9.6.07-.1.18-.23.08-.1.31-.38c-.59-.47-1.33-1.08-2.2-1.65-.01-.01-.01-.01-.02-.02-.01 0-.01 0-.02-.01-.61-.4-1.28-.78-2.03-1.09-1.07-.45-2.29-.75-3.65-.75-22.21 0-45.86 56.55-69.22 56.55-15.48 0-63.93 0-63.93 0s12.23-7.25 24.48-14.86c-16.5 0-32.41 0-32.41 0s42.66-25.26 48.38-30.97c4.06-4.06 6.1-8.99 6.56-13.62-3.75-.85-8.61.74-14.09 6.22 0 0-22.62 20.23-34.07 20.23s-32.6-13.17-96.34 50.56l-43.79 43.79c15.25 11.83 31.87 21.96 49.58 30.12 3.55 1.65 7.14 3.2 10.78 4.68 11.63-24.74 20.8-31.33 76.03-31.33 93.38 0 100.44-29.76 138.76-75.06 5.3-6.27 11.2-12.83 18.01-19.66l.25-.25c.25-.24.47-.48.66-.71-.98-.47-1.97-.91-2.96-1.32z" fill="#d48d77"/><path d="m391.14 358.18c-.86 1.07-1.75 2.19-2.67 3.38-.51.66-1.02 1.32-1.52 1.97v.01c-.01.01-.02.02-.02.02-5.52 7.13-10.74 13.72-15.7 19.79-52.04 63.69-75.41 71.07-118.15 71.07-82.45 0-91.96 5.24-104.17 34.16 3.55 1.65 7.14 3.2 10.78 4.68 11.63-24.74 20.8-31.33 76.03-31.33 93.38 0 100.44-29.76 138.76-75.06 5.3-6.27 11.2-12.83 18.01-19.66l.25-.25c.25-.24.47-.48.66-.71 3.23-3.72 1.38-6.3-2.26-8.07z" fill="#eea47d"/><path d="m384.32 340.911-2.551 3.075-.007.007-.39.468-.078.099-8.226 9.92-8.247 9.948-26.521 31.99c-12.109 12.116-24.254 25.961-43.37 25.961 0 0 31.63-14.341 45.191-33.677 5.406-7.709 13.533-18.132 21.356-27.874 0-.007 0-.007.007-.014l.418-.517c5.484-6.823 10.784-13.278 14.851-18.188l.39-.475h.007c.085-.106.17-.213.262-.319 1.8-2.175 3.33-4.01 4.492-5.399 2.416 2.557 2.416 4.995 2.416 4.995z" fill="#eea47d"/><path d="m274.538 335.313-5.194 5.194c-3.769 3.77-9.884 3.77-13.654 0l-1.778-1.778c-.064-.064-.135-.135-.198-.206 6.689-4.839 11.896-9.502 11.896-9.502 3.621-3.621 6.979-5.548 9.92-6.193 2.742 3.77 2.409 9.084-.992 12.485z" fill="#f3c3b1"/><path d="m382.066 344.267c-3.769-3.769-9.881-3.769-13.65 0l-5.193 5.193c-3.769 3.769-4.653 10.467 1.613 14.975z" fill="#f5b890"/><path d="m381.77 343.999c-1.343-1.237-2.945-2.032-4.626-2.369l-15.658 19.184c.798 1.472 1.543 2.517 3.349 3.62z" fill="#f3c3b1"/><path d="m392.49 367.212c-6.809 6.83-12.711 13.392-18.011 19.662-.071-.071-.142-.135-.213-.205l-1.778-1.778c-.128-.128-.255-.262-.368-.397-.213-.234-.411-.475-.595-.723-.099-.142-.198-.283-.291-.425-2.452-3.741-2.034-8.821 1.254-12.109l5.194-5.194c2.437-2.437 5.846-3.295 8.97-2.586.007 0 .014.007.014.007.092.021.191.043.283.071.744.191 1.474.475 2.161.857.007 0 .007.007.014.007.007-.007.007-.007.007 0 .05.021.092.05.135.078.326.177.638.383.942.602.071.057.135.106.205.156.113.092.227.177.333.269.071.064.149.128.22.198.12.106.241.22.361.34z" fill="#f5b890"/><path d="m392.49 367.212c-6.809 6.83-12.711 13.392-18.011 19.662-.071-.071-.142-.135-.213-.205l-1.778-1.778c-.128-.128-.255-.262-.368-.397-.213-.234-.411-.475-.595-.723-.099-.142-.198-.283-.291-.425 4.953-6.065 10.182-12.655 15.694-19.783h.007c0-.007.007-.014.014-.021.73.191 1.445.468 2.126.836.014 0 .021.007.035.014.007 0 .007.007.014.007.05.028.099.05.142.078.326.184.638.383.942.602.071.057.135.106.205.156.113.092.227.177.333.269.071.064.149.128.22.198.12.106.241.22.361.34z" fill="#f3c3b1"/></g></g></svg>