<svg height="512pt" viewBox="-3 0 512 512" width="512pt" xmlns="http://www.w3.org/2000/svg"><path d="m477.085938 147.5c-1.972657-2.734375-3.035157-6.023438-3.035157-9.394531v-25.042969h-442.980469v25.042969c0 3.371093-1.0625 6.660156-3.035156 9.394531l-28.035156 38.863281.00390625 3.882813h505.11718775v-3.886719zm0 0" fill="#83afe4"/><path d="m448.773438 71.445312c0-7.679687-3.941407-14.796874-10.398438-18.953124-51.023438-32.859376-115.585938-52.492188-185.800781-52.492188-70.226563 0-134.796875 19.628906-185.824219 52.488281-6.457031 4.160157-10.398438 11.273438-10.398438 18.953125v22.71875h392.421876zm0 0" fill="#0573cf"/><path d="m448.773438 71.441406v22.71875h-23.8125v-15.503906c0-7.679688-3.9375-14.792969-10.390626-18.945312-51.027343-32.863282-115.589843-52.492188-185.8125-52.492188-32.347656 0-63.488281 4.164062-92.660156 11.867188 35.789063-12.289063 75.15625-19.08203175 116.476563-19.08203175 70.210937 0 134.78125 19.62890575 185.796875 52.49218775 6.457031 4.152344 10.402344 11.265625 10.402344 18.945312zm0 0" fill="#005aaf"/><path d="m478.296875 512h-451.46875c-1.929687 0-3.492187-1.5625-3.492187-3.492188v-318.652343c0-1.925781 1.5625-3.492188 3.492187-3.492188h451.46875c1.929687 0 3.492187 1.566407 3.492187 3.492188v318.652343c0 1.929688-1.5625 3.492188-3.492187 3.492188zm0 0" fill="#ececf1"/><path d="m480.851562 512h-31.140624c-.515626 0-.9375-.417969-.9375-.9375v-323.761719c0-.515625.421874-.9375.9375-.9375h31.140624c.519532 0 .9375.421875.9375.9375v323.761719c0 .519531-.417968.9375-.9375.9375zm0 0" fill="#d3d3d8"/><path d="m474.050781 123.023438h-442.980469v-30.953126c0-3.59375 2.914063-6.507812 6.507813-6.507812h429.96875c3.59375 0 6.507813 2.914062 6.507813 6.507812v30.953126zm0 0" fill="#babac0"/><path d="m474.050781 123.023438h-17.453125v-37.460938h10.949219c3.59375 0 6.507813 2.914062 6.507813 6.507812v30.953126zm0 0" fill="#a1a1a7"/><path d="m505.121094 186.359375h-17.03125l-27.25-37.1875c-2.757813-3.824219-4.242188-8.417969-4.242188-13.128906v-13.019531h17.453125v15.078124c0 3.375 1.0625 6.660157 3.035157 9.398438zm0 0" fill="#5290d9"/><path d="m128.542969 315.445312c-1.925781 0-3.5-1.578124-3.496094-3.503906v-.035156c0-13.664062-11.078125-24.742188-24.742187-24.742188-13.664063 0-24.738282 11.078126-24.738282 24.742188v.035156c0 1.925782-1.574218 3.503906-3.5 3.503906h-10.890625c-2.847656 0-5.15625 2.304688-5.15625 5.152344v142.179688c0 2.84375 2.308594 5.152344 5.15625 5.152344h78.257813c2.847656 0 5.152344-2.308594 5.152344-5.152344v-142.179688c0-2.847656-2.304688-5.152344-5.152344-5.152344zm0 0" fill="#c9f0ff"/><path d="m432.976562 315.445312c-1.886718 0-3.417968-1.53125-3.417968-3.421874v-.117188c0-13.664062-11.074219-24.742188-24.738282-24.742188-13.664062 0-24.742187 11.078126-24.742187 24.742188v.035156c.003906 1.925782-1.574219 3.503906-3.496094 3.503906h-10.890625c-2.847656 0-5.15625 2.304688-5.15625 5.152344v142.179688c0 2.84375 2.308594 5.152344 5.15625 5.152344h78.257813c2.847656 0 5.152343-2.308594 5.152343-5.152344v-142.179688c0-2.847656-2.304687-5.152344-5.152343-5.152344zm0 0" fill="#c9f0ff"/><path d="m128.542969 315.445312c-1.925781 0-3.5-1.578124-3.496094-3.503906v-.035156c0-13.664062-11.078125-24.742188-24.742187-24.742188-13.664063 0-24.738282 11.078126-24.738282 24.742188v.035156c0 1.925782-1.574218 3.503906-3.5 3.503906h-10.890625c-2.847656 0-5.15625 2.304688-5.15625 5.152344v142.179688c0 2.84375 2.308594 5.152344 5.15625 5.152344h78.257813c2.847656 0 5.152344-2.308594 5.152344-5.152344v-142.179688c0-2.847656-2.304688-5.152344-5.152344-5.152344zm0 0" fill="#c9f0ff"/><path d="m449.105469 320.597656v142.175782c0 2.84375-2.308594 5.152343-5.15625 5.152343h-16.625c2.84375 0 5.152343-2.308593 5.152343-5.152343 0 0 0-75.367188 0-75.375 0-13.132813-.15625-47.734376-.199218-52.023438-.039063-4.089844-1.203125-7.382812-5.46875-8.652344-3.042969-.910156-6.433594-.609375-9.175782-2.425781-2.980468-1.957031-4.351562-4.554687-5.042968-7.441406-1.371094-5.773438-.039063-12.722657-3.460938-18.152344-2.980468-4.710937-7.496094-8.238281-12.652344-10.082031 2.609376-.949219 5.414063-1.453125 8.339844-1.453125 13.671875 0 24.742188 11.070312 24.742188 24.738281v.113281c0 1.886719 1.527344 3.421875 3.410156 3.421875h10.980469c2.84375.003906 5.15625 2.3125 5.15625 5.15625zm0 0" fill="#9ae7fd"/><path d="m144.589844 320.597656v142.175782c0 2.84375-2.308594 5.152343-5.15625 5.152343h-16.628906c2.847656 0 5.15625-2.308593 5.15625-5.152343 0 0 0-75.367188 0-75.375 0-13.132813-.15625-47.734376-.199219-52.023438-.042969-4.089844-1.203125-7.382812-5.472657-8.652344-3.039062-.910156-6.429687-.609375-9.171874-2.425781-2.980469-1.957031-4.351563-4.554687-5.042969-7.441406-1.371094-5.773438-.039063-12.722657-3.464844-18.152344-2.976563-4.710937-7.492187-8.238281-12.648437-10.082031 2.609374-.949219 5.414062-1.453125 8.339843-1.453125 13.671875 0 24.742188 11.070312 24.742188 24.738281v.113281c0 1.886719 1.523437 3.421875 3.410156 3.421875h10.980469c2.84375.003906 5.15625 2.3125 5.15625 5.15625zm0 0" fill="#9ae7fd"/><path d="m291.042969 294.230469c-2.628907 0-4.777344-2.148438-4.773438-4.777344v-.046875c0-18.640625-15.113281-33.753906-33.753906-33.753906s-33.753906 15.109375-33.753906 33.753906v.046875c0 2.628906-2.148438 4.777344-4.773438 4.777344h-16.734375c-2.847656 0-5.15625 2.308593-5.15625 5.15625v184.09375h120.835938v-184.09375c0-2.847657-2.308594-5.15625-5.15625-5.15625zm0 0" fill="#0573cf"/><path d="m312.929688 299.382812v184.097657h-11.949219v-101.484375c0-11.835938-.070313-51.820313-.460938-60.046875-.308593-6.515625-.847656-13.03125-7.941406-14.851563-4.511719-1.160156-10.695313-.023437-14.609375-2.941406-5.941406-4.429688-3.453125-12.492188-4.605469-18.796875-1.039062-5.710937-2.320312-11.644531-5.914062-16.367187-5.136719-6.75-12.703125-11.308594-20.957031-12.800782 1.957031-.351562 3.96875-.535156 6.027343-.535156 18.640625 0 33.75 15.109375 33.75 33.75v.050781c0 2.628907 2.144531 4.773438 4.773438 4.773438h16.730469c2.855468 0 5.15625 2.308593 5.15625 5.152343zm0 0" fill="#005aaf"/><path d="m275.945312 366.660156h-46.765624c-2.847657 0-5.152344-2.304687-5.152344-5.152344v-20.238281c0-15.761719 12.773437-28.535156 28.535156-28.535156s28.535156 12.773437 28.535156 28.535156v20.238281c0 2.847657-2.308594 5.152344-5.152344 5.152344zm0 0" fill="#c9f0ff"/><path d="m281.097656 341.265625v20.234375c0 2.855469-2.308594 5.15625-5.15625 5.15625h-13.914062c2.84375 0 5.152344-2.300781 5.152344-5.15625v-20.234375c0-7.886719-3.195313-15.019531-8.359376-20.171875-3.585937-3.589844-8.132812-6.226562-13.214843-7.507812 2.226562-.554688 4.554687-.851563 6.957031-.851563 7.875 0 15.007812 3.195313 20.175781 8.359375 5.164063 5.152344 8.359375 12.289062 8.359375 20.171875zm0 0" fill="#9ae7fd"/><g fill="#0573cf"><path d="m.00390625 186.363281v16.054688c0 17.441406 14.14062475 31.578125 31.57812475 31.578125 17.441407 0 31.582031-14.136719 31.582031-31.578125v-16.054688zm0 0"/><path d="m126.257812 186.363281v16.054688c0 17.441406 14.140626 31.578125 31.582032 31.578125s31.578125-14.136719 31.578125-31.578125v-16.054688zm0 0"/><path d="m252.515625 186.363281v16.054688c0 17.441406 14.140625 31.578125 31.582031 31.578125 17.4375 0 31.578125-14.136719 31.578125-31.578125v-16.054688zm0 0"/><path d="m378.804688 186.363281v16.054688c0 17.441406 14.136718 31.578125 31.578124 31.578125 17.441407 0 31.578126-14.136719 31.578126-31.578125v-16.054688zm0 0"/><path d="m63.132812 186.363281v16.054688c0 17.441406 14.136719 31.578125 31.578126 31.578125 17.441406 0 31.578124-14.136719 31.578124-31.578125v-16.054688zm0 0"/><path d="m189.386719 186.363281v16.054688c0 17.441406 14.140625 31.578125 31.582031 31.578125 17.4375 0 31.578125-14.136719 31.578125-31.578125v-16.054688zm0 0"/><path d="m315.644531 186.363281v16.054688c0 17.441406 14.136719 31.578125 31.578125 31.578125s31.582032-14.136719 31.582032-31.578125v-16.054688zm0 0"/><path d="m441.960938 186.363281v16.054688c0 17.441406 14.140624 31.578125 31.582031 31.578125 17.4375 0 31.578125-14.136719 31.578125-31.578125v-16.054688zm0 0"/></g><path d="m63.164062 186.359375v16.0625c0 17.441406-14.144531 31.574219-31.585937 31.574219-2.949219 0-5.792969-.402344-8.503906-1.152344 13.296875-3.722656 23.058593-15.929688 23.058593-30.421875v-16.0625zm0 0" fill="#005aaf"/><path d="m189.421875 186.359375v16.0625c0 17.441406-14.140625 31.574219-31.585937 31.574219-2.949219 0-5.800782-.402344-8.515626-1.152344 13.308594-3.722656 23.070313-15.929688 23.070313-30.421875v-16.0625zm0 0" fill="#005aaf"/><path d="m315.671875 186.359375v16.0625c0 17.441406-14.132813 31.574219-31.574219 31.574219-2.949218 0-5.804687-.402344-8.515625-1.152344 13.304688-3.722656 23.070313-15.929688 23.070313-30.421875v-16.0625zm0 0" fill="#005aaf"/><path d="m441.960938 186.359375v16.0625c0 17.441406-14.132813 31.574219-31.578126 31.574219-2.945312 0-5.800781-.402344-8.511718-1.152344 13.304687-3.722656 23.070312-15.929688 23.070312-30.421875v-16.0625zm0 0" fill="#005aaf"/><path d="m126.292969 186.359375v16.0625c0 17.441406-14.144531 31.574219-31.585938 31.574219-2.949219 0-5.792969-.402344-8.503906-1.152344 13.296875-3.722656 23.058594-15.929688 23.058594-30.421875v-16.0625zm0 0" fill="#005aaf"/><path d="m252.550781 186.359375v16.0625c0 17.441406-14.140625 31.574219-31.585937 31.574219-2.949219 0-5.804688-.402344-8.515625-1.152344 13.308593-3.722656 23.070312-15.929688 23.070312-30.421875v-16.0625zm0 0" fill="#005aaf"/><path d="m378.800781 186.359375v16.0625c0 17.441406-14.132812 31.574219-31.574219 31.574219-2.949218 0-5.804687-.402344-8.515624-1.152344 13.304687-3.722656 23.070312-15.929688 23.070312-30.421875v-16.0625zm0 0" fill="#005aaf"/><path d="m505.121094 186.359375v16.0625c0 17.441406-14.144532 31.574219-31.574219 31.574219-2.949219 0-5.804687-.402344-8.515625-1.152344 13.296875-3.722656 23.058594-15.929688 23.058594-30.421875v-16.0625zm0 0" fill="#005aaf"/><path d="m276.273438 394.949219c-4.273438 0-7.734376 3.460937-7.734376 7.730469v12.667968c0 4.273438 3.460938 7.734375 7.734376 7.734375 4.269531 0 7.730468-3.460937 7.730468-7.734375v-12.667968c0-4.269532-3.460937-7.730469-7.730468-7.730469zm0 0" fill="#c9f0ff"/><path d="m330.644531 512h-156.164062v-33.4375c0-2.84375 2.308593-5.152344 5.152343-5.152344h145.859376c2.84375 0 5.152343 2.308594 5.152343 5.152344zm0 0" fill="#babac0"/><path d="m330.648438 478.566406v33.429688h-17.410157v-33.429688c0-2.84375-2.308593-5.152344-5.152343-5.152344h17.410156c2.84375-.003906 5.152344 2.308594 5.152344 5.152344zm0 0" fill="#a1a1a7"/></svg>