<?xml version="1.0" encoding="iso-8859-1"?>
<!-- Generator: Adobe Illustrator 19.0.0, SVG Export Plug-In . SVG Version: 6.00 Build 0)  -->
<svg version="1.1" id="Capa_1" xmlns="http://www.w3.org/2000/svg" xmlns:xlink="http://www.w3.org/1999/xlink" x="0px" y="0px"
	 viewBox="0 0 512.001 512.001" style="enable-background:new 0 0 512.001 512.001;" xml:space="preserve">
<path style="fill:#31C9F7;" d="M506.615,21.358c-3.413-2.851-7.913-4.046-12.291-3.254L333.933,47.597
	c-7.147,1.289-12.614,6.998-12.614,14.261v360.197c0,4.447,1.972,8.666,5.386,11.519c2.721,2.274,9.566,3.491,9.566,3.491
	l163.384-29.227c7.147-1.289,12.346-7.511,12.346-14.773V32.876C512,28.428,510.027,24.211,506.615,21.358z"/>
<g>
	<path style="fill:#7C828C;" d="M466.581,108.496c-1.486-8.158-9.309-13.562-17.457-12.08l-70.306,12.8
		c-8.156,1.485-13.565,9.301-12.08,17.457c1.32,7.248,7.638,12.325,14.751,12.325c0.893,0,1.798-0.08,2.706-0.245l70.306-12.8
		C462.657,124.468,468.065,116.653,466.581,108.496z"/>
	<path style="fill:#7C828C;" d="M466.581,151.144c-1.486-8.157-9.309-13.558-17.457-12.08l-70.306,12.8
		c-8.156,1.485-13.565,9.301-12.08,17.457c1.32,7.248,7.638,12.325,14.751,12.325c0.893,0,1.798-0.08,2.706-0.245l70.306-12.8
		C462.657,167.116,468.065,159.301,466.581,151.144z"/>
	<path style="fill:#7C828C;" d="M466.581,193.792c-1.486-8.158-9.309-13.564-17.457-12.08l-70.306,12.8
		c-8.156,1.485-13.565,9.301-12.08,17.457c1.32,7.248,7.638,12.325,14.751,12.325c0.893,0,1.798-0.08,2.706-0.245l70.306-12.8
		C462.657,209.764,468.065,201.948,466.581,193.792z"/>
	<path style="fill:#7C828C;" d="M461.429,240.109c-3.419-2.851-7.924-4.036-12.306-3.242l-70.306,12.799
		c-7.136,1.3-12.322,7.516-12.322,14.769v101.766c0,4.451,1.976,8.674,5.395,11.527c2.72,2.27,6.13,3.485,9.616,3.485
		c0.895,0,1.794-0.08,2.689-0.242l70.306-12.8c7.136-1.3,12.322-7.516,12.322-14.769V251.635
		C466.823,247.183,464.847,242.961,461.429,240.109z"/>
</g>
<path style="fill:#BBECFF;" d="M185.297,21.358c-3.413-2.851-8.939-3.602-11.357-3.375L12.532,47.063
	C6.105,48.139,1.102,53.24,0.159,59.696c-0.949,6.484,2.42,12.834,8.319,15.687l109.42,52.893v272.503
	c0,4.447,1.972,8.666,5.385,11.519c2.722,2.274,6.136,3.493,9.626,3.493c0.887,0,1.778-0.078,2.665-0.238l42.762-7.716
	c7.146-1.29,12.345-7.511,12.345-14.773V32.876C190.682,28.428,188.709,24.21,185.297,21.358z"/>
<g>
	<path style="fill:#E3F6FF;" d="M336.27,46.603l-157.933-28.5c-1.469-0.265-2.948-0.289-4.397-0.121v390.646l159.722,28.198
		c0.868,0.156,1.739,0.232,2.607,0.236L336.27,46.603L336.27,46.603z"/>
	<path style="fill:#E3F6FF;" d="M139.442,105.345L21.545,48.353c-4.652-2.249-10.135-1.947-14.51,0.798
		c-4.377,2.746-7.034,7.55-7.034,12.716v360.187c0,5.755,3.29,11.003,8.47,13.511l117.898,57.072c2.073,1.004,4.309,1.5,6.54,1.5
		c2.777,0,5.546-0.771,7.975-2.293c4.379-2.745,7.037-7.551,7.037-12.718V118.859C147.92,113.102,144.627,107.851,139.442,105.345z"
		/>
</g>
<g>
	<path style="fill:#A0ABB5;" d="M101.966,289.81l-42.929-20.782c-7.464-3.612-16.44-0.491-20.052,6.97
		c-3.613,7.463-0.491,16.44,6.97,20.052l42.929,20.782c2.108,1.021,4.335,1.504,6.53,1.504c5.574,0,10.93-3.12,13.522-8.474
		C112.549,302.4,109.428,293.422,101.966,289.81z"/>
	<path style="fill:#A0ABB5;" d="M101.966,339.889l-42.93-20.781c-7.462-3.614-16.44-0.491-20.051,6.97
		c-3.613,7.463-0.491,16.44,6.97,20.052l42.929,20.781c2.108,1.021,4.336,1.504,6.53,1.504c5.575,0,10.93-3.119,13.522-8.474
		C112.549,352.479,109.428,343.501,101.966,339.889z"/>
	<path style="fill:#A0ABB5;" d="M101.966,389.969l-42.93-20.781c-7.462-3.614-16.44-0.492-20.051,6.97
		c-3.613,7.463-0.491,16.44,6.97,20.052l42.929,20.781c2.108,1.021,4.336,1.504,6.53,1.504c5.575,0,10.93-3.119,13.522-8.474
		C112.549,402.558,109.428,393.58,101.966,389.969z"/>
</g>
<path style="fill:#BBECFF;" d="M256,32.119v390.997l77.661,13.71c0.868,0.156,1.739,0.232,2.607,0.236V46.603L256,32.119z"/>
<path style="fill:#C3CFD8;" d="M295.981,94.723l-74.912-12.781c-4.361-0.746-8.825,0.473-12.205,3.324
	c-3.38,2.852-5.33,7.05-5.33,11.472v99.566c0,7.181,5.087,13.358,12.135,14.733l74.912,14.623c0.956,0.187,1.918,0.278,2.876,0.278
	c3.453,0,6.833-1.192,9.543-3.425c3.463-2.852,5.468-7.102,5.468-11.587V109.52C308.468,102.204,303.193,95.953,295.981,94.723z"/>
<path style="fill:#7C828C;" d="M295.981,94.723l-38.886-6.635v131.036l33.486,6.537c0.956,0.187,1.918,0.278,2.876,0.278
	c3.453,0,6.833-1.192,9.543-3.425c3.463-2.852,5.468-7.102,5.468-11.587V109.52C308.468,102.204,303.193,95.953,295.981,94.723z"/>
<path style="fill:#A0ABB5;" d="M288.548,249.372l-67.769-12.221c-8.163-1.466-15.966,3.949-17.437,12.109
	c-1.472,8.158,3.95,15.966,12.109,17.437l67.769,12.221c0.901,0.162,1.797,0.241,2.682,0.241c7.123,0,13.447-5.092,14.755-12.35
	C302.128,258.65,296.706,250.843,288.548,249.372z"/>
<path style="fill:#7C828C;" d="M288.548,249.372l-31.453-5.672v30.506l26.124,4.712c0.901,0.162,1.797,0.241,2.682,0.241
	c7.123,0,13.447-5.092,14.755-12.35C302.128,258.65,296.706,250.843,288.548,249.372z"/>
<path style="fill:#A0ABB5;" d="M291.095,294.608l-67.769-12.221c-8.162-1.468-15.966,3.949-17.437,12.109
	c-1.472,8.158,3.95,15.966,12.109,17.437l67.769,12.221c0.901,0.162,1.797,0.241,2.682,0.241c7.123,0,13.447-5.092,14.755-12.35
	C304.676,303.886,299.254,296.079,291.095,294.608z"/>
<path style="fill:#7C828C;" d="M291.095,294.608L256,288.279v30.507l29.767,5.368c0.901,0.162,1.797,0.241,2.682,0.241
	c7.123,0,13.447-5.092,14.755-12.35C304.676,303.886,299.254,296.079,291.095,294.608z"/>
<path style="fill:#A0ABB5;" d="M293.643,339.843l-67.769-12.22c-8.162-1.471-15.966,3.95-17.437,12.109
	c-1.472,8.159,3.95,15.966,12.109,17.437l67.769,12.22c0.901,0.162,1.797,0.241,2.682,0.241c7.123,0,13.447-5.093,14.755-12.35
	C307.224,349.121,301.802,341.315,293.643,339.843z"/>
<path style="fill:#7C828C;" d="M293.643,339.843L256,333.055v30.506l32.315,5.827c0.901,0.162,1.797,0.241,2.682,0.241
	c7.123,0,13.447-5.093,14.755-12.35C307.224,349.121,301.802,341.315,293.643,339.843z"/>
<g>
</g>
<g>
</g>
<g>
</g>
<g>
</g>
<g>
</g>
<g>
</g>
<g>
</g>
<g>
</g>
<g>
</g>
<g>
</g>
<g>
</g>
<g>
</g>
<g>
</g>
<g>
</g>
<g>
</g>
</svg>
