<svg xmlns="http://www.w3.org/2000/svg" version="1.1" xmlns:xlink="http://www.w3.org/1999/xlink" xmlns:svgjs="http://svgjs.com/svgjs" width="512" height="512" x="0" y="0" viewBox="0 0 16 16" style="enable-background:new 0 0 512 512" xml:space="preserve" class=""><g><linearGradient id="New_Gradient_Swatch" gradientUnits="userSpaceOnUse" x1="1.526" x2="14.474" y1="1.526" y2="14.474"><stop offset="0" stop-color="#1283ff"></stop><stop offset="1" stop-color="#d21aff"></stop></linearGradient><path d="m8.5 12v-3a.4951.4951 0 0 1 .5-.5h3a3.5 3.5 0 1 1 -3.5 3.5zm3.5-11.5a3.5038 3.5038 0 0 0 -3.5 3.5v3a.4951.4951 0 0 0 .5.5h3a3.5 3.5 0 0 0 0-7zm-8 15a3.5038 3.5038 0 0 0 3.5-3.5v-3a.4951.4951 0 0 0 -.5-.5h-3a3.5 3.5 0 0 0 0 7zm0-8h3a.4951.4951 0 0 0 .5-.5v-3a3.5 3.5 0 1 0 -3.5 3.5z" fill="url(#New_Gradient_Swatch)" data-original="url(#New_Gradient_Swatch)"></path></g></svg>