<svg id="Capa_1" enable-background="new 0 0 512 512" height="512" viewBox="0 0 512 512" width="512" xmlns="http://www.w3.org/2000/svg"><g><path d="m411.313 473.436c0 17.155-13.907 31.062-31.062 31.062h-310.622c17.155 0 31.062-13.907 31.062-31.062v-465.934h310.623v465.934z" fill="#eaf6ff"/><path d="m131.909 473.436v-465.934h-31.218v465.934c0 17.155-13.907 31.062-31.062 31.062h31.218c17.155 0 31.062-13.907 31.062-31.062z" fill="#d8ecfe"/><path d="m333.658 473.436c-42.888 0-77.656-34.768-77.656-77.656v-77.656h155.311v77.656c0 42.888-34.767 77.656-77.655 77.656z" fill="#ffd597"/><path d="m306.002 395.78v-77.656h-50v77.656c0 42.888 34.768 77.656 77.656 77.656 8.746 0 17.155-1.446 25-4.112-30.623-10.407-52.656-39.402-52.656-73.544z" fill="#fcc16d"/><path d="m256.002 318.125h155.311v31.062h-155.311z" fill="#a96a53"/><path d="m256.002 318.125h50v31.062h-50z" fill="#925b46"/><path d="m131.753 162.813h93.187v93.187h-93.187z" fill="#8ac9fe"/><path d="m131.753 38.564h248.498v62.125h-248.498z" fill="#fd4755"/><path d="m69.629 504.498c-17.155 0-31.062-13.907-31.062-31.062v-403.81h62.125v403.809c-.001 17.156-13.908 31.063-31.063 31.063z" fill="#8ac9fe"/><path d="m68.566 473.436v-403.81h-30v403.809c0 17.155 13.907 31.062 31.062 31.062 5.44 0 10.553-1.399 15-3.856-9.576-5.29-16.062-15.49-16.062-27.205z" fill="#60b7ff"/><path d="m426.845 504.498h-186.374l-15.531-31.062h217.436z" fill="#8ac9fe"/><g><path d="m380.251 124.251h-248.498c-4.142 0-7.5 3.357-7.5 7.5s3.358 7.5 7.5 7.5h248.498c4.142 0 7.5-3.357 7.5-7.5s-3.358-7.5-7.5-7.5z"/><path d="m435.67 326.155h-16.857l-.001-100.386c0-4.143-3.358-7.5-7.5-7.5s-7.5 3.357-7.5 7.5v84.854h-147.81c-4.142 0-7.5 3.357-7.5 7.5v77.656c0 29.07 14.642 54.784 36.938 70.155h-60.5c-6.271 1.124-8.507 4.743-6.708 10.854l10.105 20.212h-128.176c5.209-6.72 8.031-14.924 8.031-23.56v-458.44h295.62v178.08c0 4.143 3.358 7.5 7.5 7.5s7.5-3.357 7.5-7.5v-185.58c0-4.143-3.358-7.5-7.5-7.5h-310.62c-4.142 0-7.5 3.357-7.5 7.5v54.63h-54.63c-4.142 0-7.5 3.357-7.5 7.5v122.38c0 4.143 3.358 7.5 7.5 7.5s7.5-3.357 7.5-7.5v-114.88h47.13v396.31c-1.351 14.355-9.205 22.209-23.56 23.56-12.997 0-23.57-10.568-23.57-23.56v-248.74c0-4.143-3.358-7.5-7.5-7.5s-7.5 3.357-7.5 7.5v248.74c0 21.262 17.302 38.56 38.57 38.56l357.212-.002c2.841 0 5.438-1.605 6.708-4.146l15.531-31.062c1.799-6.112-.437-9.73-6.708-10.854h-23.563v-37.185l35.532-16.091c16.155-7.316 26.593-23.503 26.593-41.236.001-24.961-20.306-45.269-45.267-45.269zm-31.858-.531v16.062h-140.31v-16.062zm-140.31 70.156v-39.094h140.31v39.396c-.163 38.545-31.571 69.853-70.154 69.853-38.684.001-70.156-31.471-70.156-70.155zm158.707 101.218h-177.103l-8.031-16.062h193.165zm-40.334-31.062c8.578-5.914 16.023-13.359 21.937-21.936v21.936zm66.281-66.94-29.344 13.289.001-71.13h16.857c16.689 0 30.268 13.578 30.268 30.269 0 11.857-6.98 22.68-17.782 27.572z"/><path d="m302.595 232.438h62.125c12.7 0 23.031-10.332 23.031-23.031s-10.332-23.03-23.031-23.03h-46.593c-4.142 0-7.5 3.357-7.5 7.5s3.358 7.5 7.5 7.5h46.593c4.428 0 8.031 3.603 8.031 8.03 0 4.429-3.603 8.031-8.031 8.031h-62.125c-12.7 0-23.031 10.332-23.031 23.031s10.332 23.031 23.031 23.031h31.062c4.428 0 8.031 3.603 8.031 8.031v15.531c0 4.143 3.358 7.5 7.5 7.5s7.5-3.357 7.5-7.5v-15.531c0-12.699-10.332-23.031-23.031-23.031h-31.062c-4.428 0-8.031-3.603-8.031-8.031s3.603-8.031 8.031-8.031z"/><path d="m232.44 162.813c0-4.143-3.358-7.5-7.5-7.5h-93.187c-4.142 0-7.5 3.357-7.5 7.5v93.187c0 4.143 3.358 7.5 7.5 7.5h93.187c4.142 0 7.5-3.357 7.5-7.5zm-15 85.687h-78.187v-78.187h78.187z"/><path d="m224.94 279.562h-93.187c-4.142 0-7.5 3.357-7.5 7.5s3.358 7.5 7.5 7.5h93.187c4.142 0 7.5-3.357 7.5-7.5s-3.358-7.5-7.5-7.5z"/><path d="m224.94 310.624h-93.187c-4.142 0-7.5 3.357-7.5 7.5s3.358 7.5 7.5 7.5h93.187c4.142 0 7.5-3.357 7.5-7.5s-3.358-7.5-7.5-7.5z"/><path d="m224.94 341.687h-93.187c-4.142 0-7.5 3.357-7.5 7.5s3.358 7.5 7.5 7.5h93.187c4.142 0 7.5-3.357 7.5-7.5s-3.358-7.5-7.5-7.5z"/><path d="m224.94 372.749h-93.187c-4.142 0-7.5 3.357-7.5 7.5s3.358 7.5 7.5 7.5h93.187c4.142 0 7.5-3.357 7.5-7.5s-3.358-7.5-7.5-7.5z"/><path d="m232.44 411.312c0-4.143-3.358-7.5-7.5-7.5h-93.187c-4.142 0-7.5 3.357-7.5 7.5s3.358 7.5 7.5 7.5h93.187c4.142 0 7.5-3.358 7.5-7.5z"/><path d="m131.753 434.873c-4.142 0-7.5 3.357-7.5 7.5s3.358 7.5 7.5 7.5h62.125c4.142 0 7.5-3.357 7.5-7.5s-3.358-7.5-7.5-7.5z"/><path d="m387.752 38.56c0-4.143-3.358-7.5-7.5-7.5h-69.9c-4.142 0-7.5 3.357-7.5 7.5s3.358 7.5 7.5 7.5h62.4v47.13h-233.5v-47.13h138.42c4.142 0 7.5-3.357 7.5-7.5s-3.358-7.5-7.5-7.5h-145.92c-4.142 0-7.5 3.357-7.5 7.5v62.131c0 4.143 3.358 7.5 7.5 7.5h248.5c4.142 0 7.5-3.357 7.5-7.5z"/></g></g></svg>