<svg height="512" viewBox="0 0 512 512" width="512" xmlns="http://www.w3.org/2000/svg"><g id="Flat"><path d="m144 24h224v464h-224z" fill="#60d1e0"/><path d="m48 88h96v400h-96z" fill="#5bccd9" transform="matrix(-1 0 0 -1 192 576)"/><path d="m368 88h96v400h-96z" fill="#5bccd9" transform="matrix(-1 0 0 -1 832 576)"/><g fill="#57bfcc"><path d="m240 56h32v32h-32z"/><path d="m304 56h32v32h-32z"/><path d="m176 56h32v32h-32z"/><path d="m240 120h32v32h-32z"/><path d="m304 120h32v32h-32z"/><path d="m176 120h32v32h-32z"/><path d="m240 184h32v32h-32z"/><path d="m304 184h32v32h-32z"/><path d="m176 184h32v32h-32z"/><path d="m80 120h32v32h-32z"/><path d="m80 184h32v32h-32z"/><path d="m400 120h32v32h-32z"/><path d="m400 184h32v32h-32z"/></g><path d="m368 88h16v400h-16z" fill="#5ac6d4"/><path d="m108 216a68 68 0 0 1 68 68v124a0 0 0 0 1 0 0h-136a0 0 0 0 1 0 0v-124a68 68 0 0 1 68-68z" fill="#ffb531"/><path d="m88 352h48v24h-48z" fill="#fec9a3"/><path d="m80.147 248h64a24 24 0 0 1 24 24v48a56 56 0 0 1 -56 56 56 56 0 0 1 -56-56v-48a24 24 0 0 1 24-24z" fill="#fec9a3"/><path d="m112.147 352a24.027 24.027 0 0 1 -24-24h16a8 8 0 0 0 16 0h16a24.027 24.027 0 0 1 -24 24z" fill="#feb784"/><path d="m80.147 296h16v16h-16z" fill="#92563a"/><path d="m128.147 296h16v16h-16z" fill="#92563a"/><path d="m40 312 13.171-1.646a126.1 126.1 0 0 0 82.829-46.354l32 40 8-16v-8a64 64 0 0 0 -64-64h-10.388a61.612 61.612 0 0 0 -38.489 13.5 61.615 61.615 0 0 0 -23.123 48.112z" fill="#ffb531"/><path d="m160 432h40v56h-40z" fill="#fec9a3"/><path d="m24 432h40v56h-40z" fill="#fec9a3"/><path d="m160 416 3.716 3.716a34.692 34.692 0 0 1 -3.716 52.284v16h-96v-16a34.692 34.692 0 0 1 -3.716-52.284l3.716-3.716z" fill="#348fd9"/><path d="m80 376 32 72 32-72z" fill="#fec9a3"/><path d="m88 416h48v32h-48z" fill="#5bccd9"/><path d="m160 488h-96v-56h-40v-24a32 32 0 0 1 32-32h24l32 72 32-72h24a32 32 0 0 1 32 32v24h-40z" fill="#348fd9"/><path d="m104 448h16v40h-16z" fill="#2b78b8"/><path d="m376 360h48v24h-48z" fill="#fec9a3"/><path d="m400.147 384a56 56 0 0 1 -56-56v-56a24 24 0 0 1 24-24h64a24 24 0 0 1 24 24v56a56 56 0 0 1 -56 56z" fill="#fec9a3"/><path d="m400 360a24.027 24.027 0 0 1 -24-24h16a8 8 0 0 0 16 0h16a24.027 24.027 0 0 1 -24 24z" fill="#feb784"/><path d="m368 304h16v16h-16z" fill="#92563a"/><path d="m416 304h16v16h-16z" fill="#92563a"/><path d="m424 216h-48a32 32 0 0 0 -32 32v32h112v-32a32 32 0 0 0 -32-32z" fill="#348fd9"/><path d="m448 304h-5.117a88.356 88.356 0 0 1 -21.441-2.64 88.42 88.42 0 0 0 -42.884 0 88.356 88.356 0 0 1 -21.441 2.64h-5.117a16 16 0 0 1 -16-16 16 16 0 0 1 16-16h96a16 16 0 0 1 16 16 16 16 0 0 1 -16 16z" fill="#459de6"/><path d="m344 384a32 32 0 0 0 -32 32v72h176v-72a32 32 0 0 0 -32-32z" fill="#348fd9"/><path d="m376 384 24 40 24-40z" fill="#e0e0de"/><path d="m448 424h16v64h-16z" fill="#2b78b8"/><path d="m392 424h16v64h-16z" fill="#2b78b8"/><path d="m424 440h24v16h-24z" fill="#459de6"/><path d="m344 440h32v16h-32z" fill="#459de6"/><path d="m232 352h48v24h-48z" fill="#fec9a3"/><path d="m224 240h64a24 24 0 0 1 24 24v56a56 56 0 0 1 -56 56 56 56 0 0 1 -56-56v-56a24 24 0 0 1 24-24z" fill="#fec9a3"/><path d="m256 344a24.027 24.027 0 0 1 -24-24h16a8 8 0 0 0 16 0h16a24.027 24.027 0 0 1 -24 24z" fill="#feb784"/><path d="m312 296-24-40h-84a20 20 0 0 1 -20-20 20 20 0 0 1 20-20h76a32 32 0 0 1 32 32z" fill="#f98500"/><path d="m224 288h16v16h-16z" fill="#92563a"/><path d="m272 288h16v16h-16z" fill="#92563a"/><path d="m200 376a32 32 0 0 0 -32 32v80h176v-80a32 32 0 0 0 -32-32z" fill="#e0e0de"/><path d="m192 416h16v72h-16z" fill="#cfcfcd"/><path d="m304 416h16v72h-16z" fill="#cfcfcd"/><path d="m232 376 16 24-8 72 16 16 16-16-8-72 16-24z" fill="#348fd9"/><path d="m64 56h80v32h-80z" fill="#5ac6d4"/><path d="m368 56h80v32h-80z" fill="#5ac6d4"/><path d="m80 376-24 32 24 8v16l32 16z" fill="#459de6"/><path d="m144 376 24 32-24 8v16l-32 16z" fill="#459de6"/></g></svg>