<svg height="496pt" viewBox="0 0 496 496" width="496pt" xmlns="http://www.w3.org/2000/svg"><path d="m232 456v32l-94.640625-67.601562c3.921875-1.597657 7.601563-3.839844 10.960937-6.636719l83.679688-69.761719zm0 0" fill="#aab2bd"/><path d="m102.640625 420.398438-94.640625 67.601562v-144l83.679688 69.761719c3.359374 2.796875 7.039062 5.039062 10.960937 6.636719zm0 0" fill="#aab2bd"/><path d="m232 488h-224l94.640625-67.601562c5.4375 2.402343 11.359375 3.601562 17.359375 3.601562s11.921875-1.199219 17.359375-3.601562zm0 0" fill="#ccd1d9"/><path d="m232 344-83.679688 69.761719c-3.359374 2.796875-7.039062 5.039062-10.960937 6.636719-5.4375 2.402343-11.359375 3.601562-17.359375 3.601562s-11.921875-1.199219-17.359375-3.601562c-3.921875-1.597657-7.601563-3.839844-10.960937-6.636719l-83.679688-69.761719zm0 0" fill="#e6e9ed"/><path d="m424 408h64v48h-64zm0 0" fill="#f0d0b4"/><path d="m452.398438 318.480469c20.960937 5.597656 35.601562 24.640625 35.601562 46.398437v43.121094h-64v-21.121094c0-12.398437 2.878906-24.640625 8.480469-35.757812l15.519531-31.121094.640625-2.480469zm0 0" fill="#b4dd7f"/><path d="m399.761719 304.480469 48.878906 13.039062-.640625 2.480469-15.519531 31.121094c-5.601563 11.117187-8.480469 23.359375-8.480469 35.757812v69.121094h-192v-112h-75.199219c5.917969-12.320312 16.960938-21.839844 30.800781-25.519531l52.636719-14 39.761719 79.519531 40-48 40 48zm0 0" fill="#b4dd7f"/><path d="m399.761719 304.480469-39.761719 79.519531-40-48 48-40zm0 0" fill="#e6e9ed"/><path d="m320 336-40 48-39.761719-79.519531 31.761719-8.480469zm0 0" fill="#e6e9ed"/><path d="m368 264v32l-48 40-48-40v-32c13.359375 10 30 16 48 16s34.640625-6 48-16zm0 0" fill="#f0d0b4"/><path d="m432 96.800781v87.199219c0-17.679688-14.320312-32-32-32v-8c-26.078125 0-51.601562-7.761719-73.28125-22.160156l-14.71875-9.839844 8 32h-2.71875c-29.042969 0-56.800781-11.519531-77.28125-32v40c-17.679688 0-32 14.320312-32 32v-74.160156c0-28.078125 11.359375-53.601563 29.839844-72 18.398437-18.480469 43.921875-29.839844 72-29.839844 26.960937 0 52.878906 10.71875 72 29.839844l10.160156 10.160156c23.28125 4.640625 40 25.039062 40 48.800781zm0 0" fill="#fcd770"/><g fill="#f0d0b4"><path d="m432 184c0 17.679688-14.320312 32-32 32l-1.519531-.238281c.960937-5.042969 1.519531-10.320313 1.519531-15.761719v-48c17.679688 0 32 14.320312 32 32zm0 0"/><path d="m400 152v48c0 5.441406-.558594 10.71875-1.519531 15.761719-4 19.597656-15.039063 36.636719-30.480469 48.238281-13.359375 10-30 16-48 16s-34.640625-6-48-16c-3.039062-2.320312-5.921875-4.800781-8.558594-7.441406-10.960937-10.957032-18.722656-25.039063-21.921875-40.796875-.960937-5.042969-1.519531-10.320313-1.519531-15.761719v-88c20.480469 20.480469 48.238281 32 77.28125 32h2.71875l-8-32 14.71875 9.839844c21.679688 14.398437 47.203125 22.160156 73.28125 22.160156zm-32 24c0-4.398438-3.601562-8-8-8s-8 3.601562-8 8 3.601562 8 8 8 8-3.601562 8-8zm-80 0c0-4.398438-3.601562-8-8-8s-8 3.601562-8 8 3.601562 8 8 8 8-3.601562 8-8zm0 0"/><path d="m240 200c0 5.441406.558594 10.71875 1.519531 15.761719l-1.519531.238281c-17.679688 0-32-14.320312-32-32s14.320312-32 32-32zm0 0"/></g><path d="m288 176c0 4.417969-3.582031 8-8 8s-8-3.582031-8-8 3.582031-8 8-8 8 3.582031 8 8zm0 0"/><path d="m368 176c0 4.417969-3.582031 8-8 8s-8-3.582031-8-8 3.582031-8 8-8 8 3.582031 8 8zm0 0"/><path d="m320 248c17.648438 0 32-14.351562 32-32h-16c0 8.824219-7.175781 16-16 16s-16-7.175781-16-16h-16c0 17.648438 14.351562 32 32 32zm0 0"/><path d="m496 364.878906c0-25.335937-17.097656-47.582031-41.566406-54.109375l-78.433594-20.914062v-22.023438c13.6875-11.320312 23.824219-26.726562 28.710938-44.304687 19.816406-2.367188 35.289062-19.085938 35.289062-39.527344v-87.207031c0-26.601563-18.351562-49.800781-43.984375-56.097657l-8.535156-8.527343c-20.746094-20.742188-48.320313-32.167969-77.65625-32.167969-60.558594 0-109.824219 49.265625-109.824219 109.824219v74.175781c0 20.441406 15.472656 37.160156 35.289062 39.519531 4.886719 17.578125 15.023438 32.984375 28.710938 44.304688v22.023437l-78.433594 20.914063c-14.09375 3.75-26.039062 12.847656-33.503906 25.230469h-152.0625v160h240v-32h256zm-16 0v35.121094h-48v-13.113281c0-11.125 2.625-22.253907 7.601562-32.199219l13.695313-27.382812c15.832031 5.605468 26.703125 20.550781 26.703125 37.574218zm-91.785156-55.207031-29.902344 59.808594-27.046875-32.457031 38.679687-32.222657zm19.449218-103.039063c.167969-2.199218.335938-4.394531.335938-6.632812v-38.527344c9.289062 3.3125 16 12.113282 16 22.527344 0 10.535156-6.871094 19.414062-16.335938 22.632812zm-97.839843-190.632812c25.0625 0 48.625 9.761719 66.34375 27.480469l11.886719 11.886719 2.378906.472656c19.445312 3.894531 33.566406 21.121094 33.566406 40.953125v55.40625c-4.671875-3.535157-10.054688-6.183594-16-7.390625v-40.808594h-16v31.703125c-21.726562-1.390625-42.617188-8.398437-60.839844-20.550781l-31.9375-21.289063 10.472656 41.855469c-23.144531-1.703125-44.6875-11.246094-61.6875-27.230469v-4.488281h-16v40.808594c-5.945312 1.214844-11.328124 3.855468-16 7.390625v-42.382813c-.007812-51.726562 42.082032-93.816406 93.816407-93.816406zm-93.824219 168c0-10.414062 6.710938-19.214844 16-22.527344v38.527344c0 2.238281.167969 4.433594.335938 6.632812-9.464844-3.21875-16.335938-12.097656-16.335938-22.632812zm32 16v-70.785156c19.984375 14.722656 43.976562 22.785156 69.257812 22.785156h12.988282l-5.484375-21.910156c20.269531 12.910156 43.316406 20.269531 67.230469 21.621094v48.289062c0 39.695312-32.296876 72-72 72-39.703126 0-71.992188-32.304688-71.992188-72zm72 88c14.40625 0 27.984375-3.550781 40-9.710938v13.96875l-40 33.335938-40-33.335938v-13.96875c12.015625 6.160157 25.59375 9.710938 40 9.710938zm-49.945312 16.800781 38.679687 32.222657-27.046875 32.457031-29.902344-59.808594zm-183.46875 115.101563c.46875.394531 1.023437.671875 1.511718 1.050781l-72.097656 51.503906v-111.378906zm17.324218 9.425781c5.179688 1.679687 10.585938 2.671875 16.089844 2.671875 5.511719 0 10.921875-.992188 16.097656-2.679688l70.941406 50.679688h-174.070312zm47.992188-8.375c.488281-.378906 1.042968-.65625 1.511718-1.050781l70.585938-58.824219v111.378906zm-8.734375-13.335937c-12.96875 10.816406-33.359375 10.816406-46.328125 0l-66.742188-55.617188h179.796875zm29.441406-71.617188c4.789063-4.542969 10.550781-8.03125 17.085937-9.769531l46.296876-12.351563 42.320312 84.640625 41.6875-50.023437 41.6875 50.023437 42.320312-84.640625 33.625 8.96875-12.34375 24.679688c-6.082031 12.152344-9.289062 25.769531-9.289062 39.359375v61.113281h-176v-112zm259.390625 112v-32h48v32zm0 0"/></svg>