<svg id="Capa_1" enable-background="new 0 0 512 512" height="512" viewBox="0 0 512 512" width="512" xmlns="http://www.w3.org/2000/svg"><g><g><g><circle cx="256" cy="256" fill="#a0e5a5" r="246"/></g></g><g><path d="m256 138.048c-5.523 0-10 4.477-10 10v19.962c-22.519 4.638-39.503 24.616-39.503 48.487 0 27.296 22.207 49.503 49.503 49.503 16.268 0 29.503 13.235 29.503 29.503s-13.235 29.503-29.503 29.503c-11.077 0-21.125-6.117-26.222-15.964-2.538-4.904-8.573-6.822-13.478-4.283s-6.822 8.573-4.283 13.478c6.981 13.486 19.504 22.797 33.983 25.758v19.958c0 5.523 4.477 10 10 10s10-4.477 10-10v-19.962c22.519-4.638 39.503-24.616 39.503-48.487 0-27.297-22.207-49.504-49.503-49.504-16.268 0-29.503-13.235-29.503-29.503s13.235-29.503 29.503-29.503c11.077 0 21.124 6.117 26.223 15.964 2.539 4.905 8.572 6.822 13.478 4.283 4.904-2.539 6.822-8.573 4.283-13.478-6.981-13.486-19.504-22.796-33.983-25.757v-19.958c-.001-5.523-4.478-10-10.001-10z"/><path d="m418.236 263.797c4.126 3.448 10.771 2.704 14.06-1.537l26.353-32.829c3.457-4.307 2.769-10.601-1.539-14.058-4.307-3.457-10.601-2.768-14.058 1.538l-10.465 13.037c-1.159-7.79-2.818-15.524-5.004-23.148-13.142-45.831-43.345-83.802-85.045-106.917-41.702-23.114-89.907-28.608-135.738-15.465-47.4 13.591-87.435 46.593-109.841 90.543-2.508 4.92-.553 10.943 4.367 13.451 4.922 2.509 10.942.552 13.451-4.367 19.896-39.028 55.447-68.334 97.536-80.402 40.696-11.67 83.501-6.792 120.529 13.732 37.028 20.525 63.847 54.241 75.516 94.937 2.038 7.106 3.575 14.315 4.608 21.576l-15.001-12.067c-4.304-3.461-10.599-2.779-14.06 1.524s-2.779 10.598 1.524 14.06l32.801 26.387c.001.002.003.003.006.005z"/><path d="m120.298 292.387c2.924 0 5.823-1.277 7.798-3.732 3.461-4.303 2.779-10.598-1.524-14.06l-32.801-26.387c-4.125-3.439-10.781-2.723-14.066 1.532l-26.352 32.829c-3.457 4.307-2.769 10.601 1.539 14.058 1.846 1.482 4.057 2.202 6.253 2.202 2.928 0 5.83-1.28 7.805-3.741l10.465-13.037c1.159 7.79 2.817 15.524 5.004 23.148 13.142 45.832 43.345 83.802 85.045 106.917 26.854 14.885 56.399 22.461 86.278 22.461 16.518 0 33.143-2.317 49.46-6.996 47.399-13.591 87.435-46.593 109.841-90.543 2.508-4.92.553-10.942-4.367-13.451-4.92-2.507-10.942-.553-13.451 4.367-19.896 39.028-55.447 68.334-97.536 80.402-40.697 11.668-83.501 6.792-120.529-13.732-37.028-20.525-63.847-54.241-75.516-94.937-2.038-7.106-3.575-14.315-4.608-21.576l15.001 12.067c1.847 1.487 4.061 2.209 6.261 2.209z"/><path d="m302.819 4.273c-5.431-1-10.647 2.585-11.651 8.016s2.585 10.647 8.016 11.651c111.725 20.654 192.816 118.249 192.816 232.06 0 130.131-105.869 236-236 236s-236-105.869-236-236c0-113.811 81.091-211.406 192.817-232.06 5.431-1.004 9.02-6.221 8.016-11.651-1.004-5.431-6.219-9.016-11.651-8.016-121.209 22.407-209.182 128.273-209.182 251.727 0 68.38 26.628 132.667 74.981 181.019 48.352 48.352 112.639 74.981 181.019 74.981s132.667-26.629 181.019-74.981c48.353-48.352 74.981-112.639 74.981-181.019 0-123.454-87.973-229.32-209.181-251.727z"/><circle cx="256" cy="10" r="10"/></g></g></svg>