<svg id="Capa_1" enable-background="new 0 0 512 512" height="512" viewBox="0 0 512 512" width="512" xmlns="http://www.w3.org/2000/svg"><g id="XMLID_22_"><g id="XMLID_668_"><path id="XMLID_676_" d="m489.827 117.695-52.58 137.623-68.879-130.233z" fill="#ff7d97"/><path id="XMLID_674_" d="m363.188 121.008-81.363 122.82-38.779-142.13z" fill="#33d6f5"/><path id="XMLID_673_" d="m240.577 99.264-97.829 110.155-18.402-146.171z" fill="#ffcd69"/><path id="XMLID_672_" d="m124.298 62.466-104.688 103.658-9.391-153.538z" fill="#a0e5a5"/></g><g id="XMLID_587_"><path id="XMLID_667_" d="m21.862 371.496 59.177 130.504 59.177-130.504z" fill="#ff7d97"/><path id="XMLID_665_" d="m145.005 367.231 86.245 114.433 29.253-140.276z" fill="#33d6f5"/><path id="XMLID_664_" d="m262.755 338.879 101.484 101.164 9.231-142.996z" fill="#ffcd69"/><path id="XMLID_655_" d="m373.47 296.285 107.759 94.451.047-149.616z" fill="#a0e5a5"/></g><circle id="XMLID_585_" cx="447.951" cy="30.119" fill="#33d6f5" r="19.995"/><circle id="XMLID_541_" cx="61.044" cy="232.069" fill="#ffcd69" r="19.995"/><circle id="XMLID_535_" cx="202.754" cy="276.057" fill="#a0e5a5" r="19.995"/><circle id="XMLID_26_" cx="447.951" cy="482.005" fill="#ff7d97" r="19.995"/><g id="XMLID_125_"><path id="XMLID_162_" d="m510.311 220.042c-3.018-4.625-9.216-5.927-13.841-2.907-14.528 9.484-29.297 18.511-44.281 27.092l44.694-116.979c1.887-.103 3.774-.193 5.661-.308 5.513-.335 9.71-5.076 9.374-10.589-.335-5.513-5.052-9.708-10.589-9.374-169.39 10.306-337.636-26.279-486.557-105.798-3.197-1.706-7.065-1.551-10.112.406-3.049 1.957-4.8 5.41-4.579 9.025l9.548 156.124c.239 3.917 2.749 7.333 6.415 8.732 1.16.442 2.367.658 3.564.658 2.589 0 5.131-1.006 7.038-2.895l90.221-89.333 15.96 126.771c.49 3.894 3.213 7.141 6.962 8.303.975.302 1.971.449 2.959.449 2.812 0 5.549-1.188 7.478-3.36l86.946-97.901 35.006 128.302c1.033 3.786 4.186 6.618 8.061 7.241.531.085 1.062.127 1.589.127 3.317 0 6.464-1.654 8.335-4.478l73.742-111.315 63.422 119.916c-127.976 67.945-270.713 103.545-417.265 103.545-5.522 0-10 4.477-10 10s4.478 10 10 10c1.782 0 3.562-.014 5.343-.024l56.527 124.658c1.621 3.574 5.183 5.87 9.107 5.87s7.486-2.296 9.107-5.87l55.227-121.793 77.89 103.346c1.915 2.54 4.889 3.981 7.985 3.981.726 0 1.458-.079 2.185-.242 3.83-.857 6.805-3.875 7.605-7.717l26.303-126.135 89.837 89.554c1.908 1.903 4.461 2.918 7.062 2.918 1.187 0 2.383-.211 3.532-.646 3.672-1.387 6.192-4.794 6.445-8.71l7.97-123.462 92.448 81.032c1.86 1.63 4.213 2.48 6.594 2.48 1.396 0 2.8-.292 4.12-.889 3.574-1.617 5.873-5.175 5.878-9.098l.038-29.796c.007-5.523-4.465-10.005-9.987-10.013-.004 0-.009 0-.013 0-5.517 0-9.993 4.469-10 9.987l-.01 7.771-80.331-70.41c27.388-12.618 54.202-26.629 80.345-42.006l-.004 14.679c-.002 5.523 4.475 10.001 9.997 10.003h.003c5.521 0 9.998-4.475 10-9.997l.008-26.804c5.406-3.37 10.785-6.792 16.129-10.28 4.626-3.02 5.927-9.216 2.909-13.841zm-35.2-91.849-39.336 102.956-55.385-104.722c31.425 2.174 63.037 2.769 94.721 1.766zm-446.866 15.308-7.122-116.451c28.045 14.293 56.703 27.108 85.909 38.438zm121.67 42.788-13.861-110.108c29.046 10.173 58.562 18.888 88.44 26.133zm135.752 33.631-30.187-110.64c30.99 6.407 62.324 11.243 93.888 14.483zm-204.628 257.866-43.847-96.696c30.544-.898 60.896-3.311 90.962-7.209zm144.924-19.752-66.854-88.704c30.159-4.968 59.99-11.446 89.397-19.398zm129.717-40.643-76.558-76.316c28.277-8.725 56.122-18.832 83.44-30.3z"/><path id="XMLID_171_" d="m447.951 60.114c16.539 0 29.995-13.456 29.995-29.995s-13.456-29.995-29.995-29.995-29.994 13.456-29.994 29.995 13.455 29.995 29.994 29.995zm0-39.99c5.512 0 9.995 4.484 9.995 9.995s-4.483 9.995-9.995 9.995c-5.511 0-9.994-4.484-9.994-9.995s4.483-9.995 9.994-9.995z"/><path id="XMLID_174_" d="m91.039 232.069c0-16.54-13.456-29.995-29.995-29.995s-29.995 13.456-29.995 29.995 13.456 29.995 29.995 29.995 29.995-13.455 29.995-29.995zm-39.99 0c0-5.511 4.483-9.995 9.995-9.995s9.995 4.484 9.995 9.995-4.483 9.995-9.995 9.995-9.995-4.484-9.995-9.995z"/><path id="XMLID_228_" d="m232.748 276.057c0-16.54-13.456-29.995-29.995-29.995s-29.994 13.456-29.994 29.995 13.455 29.995 29.994 29.995 29.995-13.456 29.995-29.995zm-39.989 0c0-5.511 4.483-9.995 9.994-9.995 5.512 0 9.995 4.484 9.995 9.995s-4.483 9.995-9.995 9.995c-5.51 0-9.994-4.484-9.994-9.995z"/><path id="XMLID_231_" d="m447.951 452.01c-16.539 0-29.994 13.456-29.994 29.995 0 16.54 13.455 29.995 29.994 29.995s29.995-13.456 29.995-29.995-13.456-29.995-29.995-29.995zm0 39.99c-5.511 0-9.994-4.484-9.994-9.995s4.483-9.995 9.994-9.995c5.512 0 9.995 4.483 9.995 9.995s-4.484 9.995-9.995 9.995z"/><path id="XMLID_232_" d="m481.279 305.95c-2.64 0-5.21 1.07-7.079 2.93-1.86 1.86-2.921 4.44-2.921 7.07s1.061 5.21 2.921 7.07c1.869 1.86 4.449 2.93 7.079 2.93 2.631 0 5.2-1.07 7.07-2.93 1.86-1.86 2.92-4.44 2.92-7.07s-1.06-5.21-2.92-7.07c-1.87-1.86-4.439-2.93-7.07-2.93z"/></g></g></svg>