<svg height="512" viewBox="0 0 128 128" width="512" xmlns="http://www.w3.org/2000/svg"><g><g><path d="m90.167 101.4a36.822 36.822 0 0 0 -6.551-.875c-.9-.081-1.783-.142-2.671-.213l-5.545 12.31-5.636-2.062-5.764-6.187-5.759 6.187-5.636 2.062-5.565-12.349c-.659.051-1.319.1-1.979.14a36.331 36.331 0 0 0 -7.228.982 15.042 15.042 0 0 0 -11.07 14.5v10.345h74.474v-10.34a15.043 15.043 0 0 0 -11.07-14.5z" fill="#fff5f5"/><path d="m79.619 63.333a7.333 7.333 0 0 1 -7.132-5.628l-.487-2.039-1.062 2.876a7.333 7.333 0 0 1 -6.878 4.791h-16.848v5.423a14.916 14.916 0 0 0 .335 3.135l1.013 4.623a44.929 44.929 0 0 0 1.817 7.315 14.714 14.714 0 0 0 27.245 0 44.829 44.829 0 0 0 1.818-7.315l1.013-4.623a14.919 14.919 0 0 0 .335-3.136v-5.422z" fill="#ffe1ba"/><path d="m81.243 67.829a4.272 4.272 0 0 0 -.455.034v.892a14.919 14.919 0 0 1 -.335 3.136l-1.027 4.688a4.517 4.517 0 0 0 1.817.388 4.569 4.569 0 0 0 0-9.138z" fill="#efc797"/><path d="m47.549 71.89a14.7 14.7 0 0 1 -.339-3.137v-.877a4.567 4.567 0 1 0 1.348 8.64z" fill="#efc797"/><path d="m37.334 126.242h3.5v-8.329a1.75 1.75 0 0 0 -3.5 0z" fill="#efe2dd"/><path d="m90.666 126.242v-8.329a1.75 1.75 0 0 0 -3.5 0v8.329z" fill="#efe2dd"/><g fill="#5b5555"><path d="m64.167 77.94h1.313a1.75 1.75 0 1 0 0-3.5h-.59l.571-3.85a1.75 1.75 0 0 0 -3.461-.514l-.676 4.556a2.877 2.877 0 0 0 2.845 3.308z"/><path d="m67.045 80.038a4.739 4.739 0 0 1 -6.257 0 1.75 1.75 0 0 0 -2.7 2.225 8.152 8.152 0 0 0 11.661 0 1.75 1.75 0 1 0 -2.7-2.225z"/><path d="m71.38 65.282a3.372 3.372 0 1 0 3.372 3.371 3.375 3.375 0 0 0 -3.372-3.371z"/><path d="m59.991 68.653a3.372 3.372 0 1 0 -3.372 3.372 3.376 3.376 0 0 0 3.372-3.372z"/></g><path d="m70.937 58.542 1.063-2.876.488 2.039a7.333 7.333 0 0 0 7.132 5.628h1.169v-7.42a12.666 12.666 0 0 0 -12.667-12.666h-8.245a12.665 12.665 0 0 0 -12.665 12.666v7.42h16.847a7.333 7.333 0 0 0 6.878-4.791z" fill="#5b5555"/><path d="m74.255 97.994a2.475 2.475 0 0 1 -.282-.569 4.511 4.511 0 0 1 -.516-1.565l-.736-5.754a14.661 14.661 0 0 1 -17.442 0l-.736 5.754a6.223 6.223 0 0 1 -.917 2.059l10.374 6.454z" fill="#efc797"/><path d="m69.759 110.56 5.636 2.062 5.55-12.315c-.79-.064-1.582-.135-2.385-.238-1.223-.162-3.407-.707-4.305-2.075l-10.255 6.379z" fill="#efe2dd"/><path d="m58.241 110.56 5.759-6.187-10.374-6.454a4.881 4.881 0 0 1 -4.348 2.16c-.744.075-1.491.137-2.238.194l5.565 12.349z" fill="#efe2dd"/><path d="m66.879 116.872 2.88-6.312-5.759-6.187-5.759 6.187 2.879 6.312z" fill="#5b5555"/><path d="m71.083 126.243-4.204-9.371h-5.759l-4.203 9.371z" fill="#463f3f"/><path d="m120.25 1.747h-34.824a6 6 0 0 0 -6 6v24a6 6 0 0 0 6 6h7.912v12.128l19-12.125h7.912a6 6 0 0 0 6-6v-24a6 6 0 0 0 -6-6.003z" fill="#b9dd39"/><path d="m105.216 18h-4.756a1.933 1.933 0 0 1 -1.931-1.932 1.022 1.022 0 0 1 1.021-1.021h9.35a1.75 1.75 0 0 0 0-3.5h-1.491v-1.8a1.75 1.75 0 1 0 -3.5 0v1.8h-2.137v-1.8a1.75 1.75 0 1 0 -3.5 0v2a4.514 4.514 0 0 0 -3.24 4.314 5.438 5.438 0 0 0 5.428 5.439h4.756a1.933 1.933 0 0 1 1.931 1.931 1.022 1.022 0 0 1 -1.021 1.021h-9.347a1.75 1.75 0 0 0 0 3.5h1.49v1.8a1.75 1.75 0 0 0 3.5 0v-1.8h2.137v1.8a1.75 1.75 0 0 0 3.5 0v-2a4.513 4.513 0 0 0 3.241-4.314 5.437 5.437 0 0 0 -5.431-5.438z" fill="#85a500"/><path d="m42.574 1.747h-34.824a6 6 0 0 0 -6 6v24a6 6 0 0 0 6 6h7.912l19 12.125v-12.122h7.912a6 6 0 0 0 6-6v-24a6 6 0 0 0 -6-6.003z" fill="#fabe2c"/><g fill="#ff9100"><path d="m15.537 16.812h6.312v11.563h-6.312z"/><path d="m28.474 11.123h6.313v17.251h-6.313z"/></g><path d="m38.381 30.124h-26.438a1.75 1.75 0 0 1 0-3.5h26.438a1.75 1.75 0 0 1 0 3.5z" fill="#5b5555"/></g><g><path d="m64.167 77.94h1.313a1.75 1.75 0 1 0 0-3.5h-.59l.571-3.85a1.75 1.75 0 0 0 -3.461-.514l-.676 4.556a2.877 2.877 0 0 0 2.845 3.308z"/><path d="m58.324 79.8a1.751 1.751 0 0 0 -.239 2.464 8.152 8.152 0 0 0 11.661 0 1.75 1.75 0 1 0 -2.7-2.225 4.739 4.739 0 0 1 -6.257 0 1.753 1.753 0 0 0 -2.465-.239z"/><path d="m71.38 72.025a3.372 3.372 0 1 0 -3.371-3.372 3.376 3.376 0 0 0 3.371 3.372z"/><path d="m59.991 68.653a3.372 3.372 0 1 0 -3.372 3.372 3.376 3.376 0 0 0 3.372-3.372z"/><path d="m96.5 107.5a1.75 1.75 0 1 0 2.711-2.215 16.957 16.957 0 0 0 -2.232-2.259 1.75 1.75 0 0 0 -2.247 2.684 13.352 13.352 0 0 1 1.768 1.79z"/><path d="m101.237 114.148a1.75 1.75 0 0 0 -1.75 1.75v8.594h-8.821v-6.579a1.75 1.75 0 0 0 -3.5 0v6.579h-14.95l-3.416-7.614 1.878-4.118 4.116 1.506a1.775 1.775 0 0 0 2.2-.925l5.045-11.194c.473.036.947.073 1.427.116l1.1.091c.958.078 1.951.158 2.894.287a1.751 1.751 0 1 0 .473-3.469c-1.039-.142-2.079-.226-3.085-.307-2.008-.185-4.053-.287-6.053-.53-2.215-.345-3.307-.935-3.6-2.7l-.608-4.757a16.427 16.427 0 0 0 4.659-6.4 31.575 31.575 0 0 0 1.54-5.807c.153.012.306.038.459.038a6.319 6.319 0 0 0 1.3-12.5v-10.3a14.432 14.432 0 0 0 -14.423-14.409h-8.244a14.432 14.432 0 0 0 -14.416 14.413v10.272a6.316 6.316 0 0 0 1.127 12.532 6.224 6.224 0 0 0 .627-.035 31.562 31.562 0 0 0 1.541 5.807 16.422 16.422 0 0 0 4.658 6.393l-.595 4.653a3.46 3.46 0 0 1 -3.534 2.794c-1.441.121-2.9.249-4.339.338a38.2 38.2 0 0 0 -7.576 1.039 16.827 16.827 0 0 0 -12.358 16.194v10.344a1.749 1.749 0 0 0 1.75 1.75h12.272.049s.032 0 .048 0h49.735.049s.032 0 .048 0h12.273a1.749 1.749 0 0 0 1.75-1.75v-10.344a1.75 1.75 0 0 0 -1.75-1.752zm-40.919-3.248 3.682-3.958 3.681 3.955-1.926 4.225h-3.51zm18.032-9.09-3.881 8.613-3.714-1.359-3.364-3.614-.661-.71 7.27-4.528a9.8 9.8 0 0 0 4.336 1.594zm5.711-29.41a2.814 2.814 0 0 1 -2.539 2.792l.641-2.929a16.544 16.544 0 0 0 .315-2.383 2.811 2.811 0 0 1 1.583 2.52zm-35.1-16.484a10.928 10.928 0 0 1 10.917-10.916h8.244a10.928 10.928 0 0 1 10.916 10.913v5.621a5.589 5.589 0 0 1 -4.849-4.234l-.489-2.041a1.75 1.75 0 0 0 -3.344-.2l-1.056 2.876a5.6 5.6 0 0 1 -5.236 3.648h-15.1zm-5.191 16.484a2.822 2.822 0 0 1 1.747-2.6 16.86 16.86 0 0 0 .32 2.472l.644 2.941a2.817 2.817 0 0 1 -2.711-2.813zm8.23 10.772a29.1 29.1 0 0 1 -1.356-5.2c-.123-.617-.244-1.23-.375-1.833l-1.011-4.619a13.134 13.134 0 0 1 -.3-2.766v-3.671h15.1a9.125 9.125 0 0 0 7.776-4.393 9.192 9.192 0 0 0 7.2 4.375v3.69a13.12 13.12 0 0 1 -.3 2.762l-1.004 4.625c-.13.6-.252 1.215-.374 1.832a29.086 29.086 0 0 1 -1.356 5.195 12.917 12.917 0 0 1 -4.139 5.415 1.7 1.7 0 0 0 -.316.23 12.989 12.989 0 0 1 -15.091 0 1.7 1.7 0 0 0 -.319-.232 12.912 12.912 0 0 1 -4.135-5.41zm12 11.559a16.484 16.484 0 0 0 7.329-1.714l.392 3.065a5.986 5.986 0 0 0 .3 1.242l-8.021 4.987-8.075-5.023a22.066 22.066 0 0 0 .746-4.271 16.481 16.481 0 0 0 7.329 1.714zm-10.05 5.451 7.32 4.555-4.025 4.324-3.714 1.358-3.874-8.6a6.839 6.839 0 0 0 4.293-1.637zm-25.437 15.718a13.316 13.316 0 0 1 9.787-12.817 34.381 34.381 0 0 1 6.883-.924c.256-.016.512-.034.769-.052l5.062 11.234a1.775 1.775 0 0 0 2.2.925l4.115-1.506 1.879 4.118-3.416 7.614h-14.958v-6.579a1.75 1.75 0 0 0 -3.5 0v6.579h-8.821zm31.107 8.594 2.633-5.87h3.494l2.633 5.87z"/><path d="m120.25 0h-34.824a7.759 7.759 0 0 0 -7.75 7.75v24a7.759 7.759 0 0 0 7.75 7.75h6.162v10.375a1.751 1.751 0 0 0 2.691 1.476l18.57-11.851h7.4a7.759 7.759 0 0 0 7.751-7.75v-24a7.759 7.759 0 0 0 -7.75-7.75zm4.25 31.75a4.254 4.254 0 0 1 -4.25 4.25h-7.912a1.765 1.765 0 0 0 -.942.274l-16.308 10.409v-8.933a1.749 1.749 0 0 0 -1.75-1.75h-7.912a4.254 4.254 0 0 1 -4.25-4.25v-24a4.254 4.254 0 0 1 4.25-4.25h34.824a4.254 4.254 0 0 1 4.25 4.25z"/><path d="m99.55 15.046h9.35a1.75 1.75 0 0 0 0-3.5h-1.491v-1.8a1.75 1.75 0 1 0 -3.5 0v1.8h-2.137v-1.8a1.75 1.75 0 1 0 -3.5 0v2a4.514 4.514 0 0 0 -3.24 4.314 5.438 5.438 0 0 0 5.428 5.44h4.756a1.933 1.933 0 0 1 1.931 1.931 1.022 1.022 0 0 1 -1.021 1.021h-9.347a1.75 1.75 0 0 0 0 3.5h1.49v1.8a1.75 1.75 0 0 0 3.5 0v-1.8h2.137v1.8a1.75 1.75 0 0 0 3.5 0v-2a4.513 4.513 0 0 0 3.241-4.314 5.437 5.437 0 0 0 -5.431-5.438h-4.756a1.933 1.933 0 0 1 -1.931-1.932 1.022 1.022 0 0 1 1.021-1.022z"/><path d="m34.662 51.625a1.752 1.752 0 0 0 1.75-1.75v-10.375h6.162a7.759 7.759 0 0 0 7.75-7.75 1.75 1.75 0 0 0 -3.5 0 4.254 4.254 0 0 1 -4.25 4.25h-7.912a1.749 1.749 0 0 0 -1.75 1.75v8.933l-16.312-10.409a1.759 1.759 0 0 0 -.938-.274h-7.912a4.254 4.254 0 0 1 -4.25-4.25v-24a4.254 4.254 0 0 1 4.25-4.25h34.824a4.254 4.254 0 0 1 4.25 4.25v10.219a1.75 1.75 0 1 0 3.5 0v-10.222a7.759 7.759 0 0 0 -7.75-7.747h-34.824a7.759 7.759 0 0 0 -7.75 7.747v24a7.759 7.759 0 0 0 7.75 7.753h7.4l18.57 11.851a1.752 1.752 0 0 0 .942.274z"/><path d="m21.85 15.061h-6.313a1.75 1.75 0 0 0 -1.75 1.75v9.813h-1.844a1.75 1.75 0 0 0 0 3.5h26.438a1.75 1.75 0 0 0 0-3.5h-1.844v-15.5a1.749 1.749 0 0 0 -1.75-1.75h-6.312a1.749 1.749 0 0 0 -1.75 1.75v15.5h-3.125v-9.813a1.751 1.751 0 0 0 -1.75-1.75zm-4.563 11.563v-8.063h2.813v8.063zm12.938-13.751h2.812v13.751h-2.812z"/></g></g></svg>