<svg height="512" viewBox="0 0 512 512" width="512" xmlns="http://www.w3.org/2000/svg"><g id="Filled_stroke_cut_Ex" data-name="Filled stroke cut Ex"><path d="m373.862 300.059h4a0 0 0 0 1 0 0v152a0 0 0 0 1 0 0h-64a0 0 0 0 1 0 0v-92a60 60 0 0 1 60-60z" fill="#fbb8b0" transform="matrix(-.898 -.439 .439 -.898 491.32 865.838)"/><path d="m330.743 268.059h4a0 0 0 0 1 0 0v152a0 0 0 0 1 0 0h-64a0 0 0 0 1 0 0v-92a60 60 0 0 1 60-60z" fill="#fbb8b0" transform="matrix(-.898 -.439 .439 -.898 423.528 786.147)"/><path d="m360.605 332.763-259.34 73a10 10 0 0 1 -12.335-6.913l-40.325-143.25 264 .4z" fill="#fac850"/><g><rect fill="#fa7d29" height="256" rx="10" width="400" x="24.605" y="24"/><path d="m64 144h176v96h-176z" fill="#fac850"/><path d="m148 104h28a0 0 0 0 1 0 0v20a20 20 0 0 1 -20 20h-28a0 0 0 0 1 0 0v-20a20 20 0 0 1 20-20z" fill="#fffefd"/><path d="m80 104h28a20 20 0 0 1 20 20v20a0 0 0 0 1 0 0h-28a20 20 0 0 1 -20-20v-20a0 0 0 0 1 0 0z" fill="#fffefd"/><path d="m240 136h-58.7a27.836 27.836 0 0 0 2.7-12v-20a8 8 0 0 0 -8-8h-28a27.917 27.917 0 0 0 -20 8.423 27.917 27.917 0 0 0 -20-8.423h-28a8 8 0 0 0 -8 8v20a27.836 27.836 0 0 0 2.7 12h-10.7a8 8 0 0 0 -8 8v96a8 8 0 0 0 8 8h176a8 8 0 0 0 8-8v-96a8 8 0 0 0 -8-8zm-8 48h-112v-32h112zm-84-72h20v12a12.013 12.013 0 0 1 -12 12h-20v-12a12.013 12.013 0 0 1 12-12zm-60 12v-12h20a12.013 12.013 0 0 1 12 12v12h-20a12.013 12.013 0 0 1 -12-12zm16 28v32h-32v-32zm-32 48h32v32h-32zm48 32v-32h112v32z"/><path d="m308 56h76a0 0 0 0 1 0 0v12a20 20 0 0 1 -20 20h-76a0 0 0 0 1 0 0v-12a20 20 0 0 1 20-20z" fill="#fffefd"/><path d="m364 96h-76a8 8 0 0 1 -8-8v-12a28.032 28.032 0 0 1 28-28h76a8 8 0 0 1 8 8v12a28.032 28.032 0 0 1 -28 28zm-68-16h68a12.013 12.013 0 0 0 12-12v-4h-68a12.013 12.013 0 0 0 -12 12z"/><path d="m56 56h56v16h-56z"/><path d="m128 56h120v16h-120z"/><g><path d="m280 120h32v16h-32z"/><path d="m328 120h64v16h-64z"/></g><g><path d="m360 160h32v16h-32z"/><path d="m280 160h64v16h-64z"/></g></g><path d="m360 504v-136l-49.1-79.939a60 60 0 0 1 15.6-81.27l9.5-6.791 64 80h14.605a10 10 0 0 0 10-10v-166h15a20 20 0 0 1 19.612 16.078l28.783 143.922-24 112v128z" fill="#ffd4cf"/><path d="m472 504h-16v-128a8.006 8.006 0 0 1 .178-1.676l8.571-40 15.645 3.352-8.394 39.172z"/><path d="m495.845 262.431-28.785-143.921a28.075 28.075 0 0 0 -27.46-22.51h-7.6v-62a18.021 18.021 0 0 0 -18-18h-380a18.021 18.021 0 0 0 -18 18v62h16v-62a2 2 0 0 1 2-2h380a2 2 0 0 1 2 2v236c0 .469-.1 2-1.395 2h-10.76l-61.6-77a8 8 0 0 0 -10.9-1.512l-9.507 6.791a67.949 67.949 0 0 0 -26.493 71.721h-261.345a2 2 0 0 1 -2-2v-158h-16v158a18.021 18.021 0 0 0 18 18h15.415l31.814 113.019a17.993 17.993 0 0 0 22.2 12.449l140.126-39.445-10.141 20.733a8 8 0 0 0 3.671 10.7l3.594 1.758a67.419 67.419 0 0 0 42.612 5.724l-6.758 13.817a8 8 0 0 0 3.671 10.7l3.594 1.758a68.128 68.128 0 0 0 68.2-4.893v69.68h16v-136a8.008 8.008 0 0 0 -1.183-4.188l-49.1-79.939c-.029-.046-.058-.093-.088-.139a51.95 51.95 0 0 1 13.516-70.434l3.342-2.388 59.268 74.088a8 8 0 0 0 6.247 3h14.605c9.754 0 17.395-7.906 17.395-18v-158h7.6a12.034 12.034 0 0 1 11.767 9.647l28.46 142.3-11.653 54.38 15.644 3.352 12-56a8.007 8.007 0 0 0 .027-3.248zm-244.472 132.033 12.841-26.256 61.967-17.443-8.909 18.213a52.008 52.008 0 0 1 -65.9 25.486zm100.627 18.836a52.08 52.08 0 0 1 -57.508 13.159l10.638-21.749a67.53 67.53 0 0 0 26.516-28.7l10.587-21.646 9.767 15.9zm-22.722-80.031-230.178 64.796a2 2 0 0 1 -2.468-1.382l-30.595-108.683h235.533q1.188 2.187 2.551 4.315z"/></g></svg>