<svg height="496pt" viewBox="0 0 496 496" width="496pt" xmlns="http://www.w3.org/2000/svg"><path d="m488 248c0 132.546875-107.453125 240-240 240s-240-107.453125-240-240 107.453125-240 240-240 240 107.453125 240 240zm0 0" fill="#85d3c1"/><path d="m360 104v32h-224v-32zm0 0" fill="#ff958a"/><path d="m170.558594 34.960938 1.441406-2.960938c3.679688-7.359375 9.28125-13.359375 16-17.519531 6.71875-4.160157 14.640625-6.480469 22.878906-6.480469 8.5625 0 16.960938 2.558594 24.082032 7.28125l13.039062 8.71875 13.039062-8.71875c7.121094-4.722656 15.519532-7.28125 24.082032-7.28125 16.480468 0 31.519531 9.28125 38.878906 24l1.441406 2.960938c.71875-1.039063 1.519532-1.921876 2.398438-2.800782l.320312-.320312c5.039063-5.039063 11.839844-7.839844 18.960938-7.839844 8.160156 0 15.839844 3.679688 20.957031 10.078125l9.441406 11.921875 10.320313 12.878906c2.71875 3.28125 4.160156 7.441406 4.160156 11.679688 0 5.921875-2.800781 11.519531-7.519531 15.121094l-24.480469 18.320312h-224l-24.480469-18.320312c-4.71875-3.601563-7.519531-9.199219-7.519531-15.121094 0-4.238282 1.441406-8.398438 4.160156-11.679688l10-12.558594 9.761719-12.242187c5.117187-6.398437 12.796875-10.078125 20.957031-10.078125 7.121094 0 13.921875 2.800781 18.960938 7.839844l.320312.320312c.878906.878906 1.679688 1.761719 2.398438 2.800782zm0 0" fill="#f9d48a"/><path d="m304 376-56-9.359375v-22.640625l8.878906-13.28125c4.480469-6.71875 11.921875-10.71875 20-10.71875h19.121094l78.320312 10.480469c23.839844 3.121093 41.679688 23.519531 41.679688 47.519531v38l1.679688 1.679688c-30.640626 30.71875-69.601563 53.121093-113.199219 63.519531l-.480469-2zm0 0" fill="#f9d48a"/><path d="m248 366.640625 56 9.359375v103.199219l.480469 2c-18.082031 4.480469-37.039063 6.800781-56.480469 6.800781-66.238281 0-126.238281-26.878906-169.679688-70.320312l1.679688-1.679688v-38c0-24 17.839844-44.398438 41.679688-47.519531l78.320312-10.480469h19.121094c8.078125 0 15.519531 4 20 10.71875l8.878906 13.28125zm0 0" fill="#f9d48a"/><g fill="#f5f7fa"><path d="m248 344-8.878906-13.28125c-4.480469-6.71875-11.921875-10.71875-20-10.71875h-19.121094v-40c13.359375 10 30 16 48 16s34.640625-6 48-16v40h-19.121094c-8.078125 0-15.519531 4-20 10.71875zm0 0"/><path d="m288 256c10.398438 0 20.640625-3.121094 29.28125-8.878906l6-4c-5.359375 14.800781-14.882812 27.597656-27.28125 36.878906-13.359375 10-30 16-48 16s-34.640625-6-48-16c-3.039062-2.320312-5.921875-4.800781-8.558594-7.441406-8.242187-8.238282-14.722656-18.238282-18.722656-29.4375l6 4c8.640625 5.757812 18.882812 8.878906 29.28125 8.878906s20.640625-3.121094 29.28125-8.878906l10.71875-7.121094 10.71875 7.121094c8.640625 5.757812 18.882812 8.878906 29.28125 8.878906zm0 0"/><path d="m360 192c0 17.679688-14.320312 32-32 32h-.398438c.238282-2.640625.398438-5.28125.398438-8v-56c17.679688 0 32 14.320312 32 32zm0 0"/><path d="m328 160v56c0 2.71875-.160156 5.359375-.398438 8-.480468 5.121094-1.523437 10.078125-2.960937 14.878906l-10.5625-3.519531c-6.636719-2.238281-12.636719-5.917969-17.597656-10.878906-5.441407-5.441407-12.800781-8.480469-20.480469-8.480469s-15.039062 3.039062-20.480469 8.480469l-7.519531 7.519531-7.519531-7.519531c-5.441407-5.441407-12.800781-8.480469-20.480469-8.480469s-15.039062 3.039062-20.480469 8.480469c-4.960937 4.960937-10.960937 8.640625-17.597656 10.878906l-10.5625 3.519531c-1.4375-4.800781-2.480469-9.757812-2.960937-14.878906-.238282-2.640625-.398438-5.28125-.398438-8v-80h160zm0 0"/><path d="m168 160v56c0 2.71875.160156 5.359375.398438 8h-.398438c-17.679688 0-32-14.320312-32-32s14.320312-32 32-32zm0 0"/></g><path d="m360 136v56c0-17.679688-14.320312-32-32-32v-24zm0 0" fill="#f9d48a"/><path d="m168 136v24c-17.679688 0-32 14.320312-32 32v-56zm0 0" fill="#f9d48a"/><path d="m324.640625 238.878906-10.5625-3.519531c-6.636719-2.238281-12.636719-5.917969-17.597656-10.878906-5.441407-5.441407-12.800781-8.480469-20.480469-8.480469s-15.039062 3.039062-20.480469 8.480469l-7.519531 7.519531-7.519531-7.519531c-5.441407-5.441407-12.800781-8.480469-20.480469-8.480469s-15.039062 3.039062-20.480469 8.480469c-4.960937 4.960937-10.960937 8.640625-17.597656 10.878906l-10.5625 3.519531-3.359375 1.121094 4.71875 3.121094 6 4c8.640625 5.757812 18.882812 8.878906 29.28125 8.878906s20.640625-3.121094 29.28125-8.878906l10.71875-7.121094 10.71875 7.121094c8.640625 5.757812 18.882812 8.878906 29.28125 8.878906s20.640625-3.121094 29.28125-8.878906l6-4 4.71875-3.121094zm0 0" fill="#f9d48a"/><path d="m216 176c0 4.417969-3.582031 8-8 8s-8-3.582031-8-8 3.582031-8 8-8 8 3.582031 8 8zm0 0"/><path d="m296 176c0 4.417969-3.582031 8-8 8s-8-3.582031-8-8 3.582031-8 8-8 8 3.582031 8 8zm0 0"/><path d="m264 392h16v16h-16zm0 0"/><path d="m216 392h16v16h-16zm0 0"/><path d="m264 440h16v16h-16zm0 0"/><path d="m216 440h16v16h-16zm0 0"/><path d="m383.097656 40.0625-8.800781-10.992188c-6.640625-8.308593-16.554687-13.070312-27.183594-13.070312-6.960937 0-13.800781 2.167969-19.648437 6.160156-9.527344-13.824218-25.160156-22.160156-42.304688-22.160156-10.183594 0-20.054687 2.992188-28.535156 8.640625l-8.625 5.742187-8.617188-5.742187c-8.488281-5.648437-18.351562-8.640625-28.542968-8.640625-17.144532 0-32.769532 8.328125-42.289063 22.144531-5.757812-3.929687-12.640625-6.144531-19.664062-6.144531-10.628907 0-20.542969 4.761719-27.191407 13.070312l-8.734374 10.914063c-70.738282 46.007813-112.960938 123.695313-112.960938 208.015625 0 136.753906 111.246094 248 248 248s248-111.246094 248-248c0-84.367188-42.191406-161.921875-112.902344-207.9375zm96.902344 207.9375c0 57.585938-21.136719 110.296875-56 150.894531v-20.871093c0-27.953126-20.886719-51.816407-48.601562-55.503907l-71.398438-9.527343v-29.160157c11.3125-9.359375 20.191406-21.511719 25.710938-35.359375l16.328124-10.886718-11.824218-3.945313c.152344-.753906.21875-1.542969.351562-2.304687 18.929688-3.160157 33.433594-19.535157 33.433594-39.335938v-84l21.273438-15.960938c6.175781-4.632812 9.902343-11.800781 10.488281-19.445312 50.710937 43.773438 80.238281 107.191406 80.238281 175.40625zm-128 128v79.289062c-12.710938 6.40625-26.089844 11.664063-40 15.664063v-101.730469l-15.351562-2.558594 40.664062-6.777343-2.625-15.78125-78.6875 13.117187v-10.796875l7.527344-11.296875c2.976562-4.464844 7.960937-7.128906 13.3125-7.128906h18.601562l77.847656 10.375c19.789063 2.640625 34.710938 19.6875 34.710938 39.648438v37.738281c-12.167969 11.605469-25.542969 21.957031-40 30.726562v-70.488281zm-208-184c0-10.414062 6.710938-19.214844 16-22.527344v45.046875c-9.289062-3.304687-16-12.105469-16-22.519531zm0-80h208v16h-208zm172.609375 115.769531c-5.417969-1.808593-10.425781-4.898437-14.472656-8.945312-6.871094-6.878907-16.402344-10.824219-26.136719-10.824219s-19.265625 3.945312-26.144531 10.832031l-1.855469 1.855469-1.855469-1.855469c-6.878906-6.886719-16.410156-10.832031-26.144531-10.832031s-19.265625 3.945312-26.144531 10.824219c-4.046875 4.046875-9.054688 7.144531-14.472657 8.945312l-2.230468.742188c-.703125-4.070313-1.152344-8.238281-1.152344-12.511719v-72h144v72c0 4.273438-.449219 8.441406-1.160156 12.511719zm-6.792969 14.566407c-14.359375 8.007812-32.90625 7.320312-46.6875-1.863282l-7.367187-4.914062 5.414062-5.414063c7.800781-7.808593 21.855469-7.808593 29.65625 0 5.359375 5.359375 11.894531 9.550781 18.984375 12.191407zm-69.578125-6.785157-7.367187 4.914063c-13.78125 9.183594-32.328125 9.878906-46.6875 1.863281 7.089844-2.640625 13.617187-6.832031 18.984375-12.191406 7.800781-7.808594 21.855469-7.808594 29.65625 0zm-80.238281-82.742187c-5.945312 1.214844-11.328125 3.855468-16 7.390625v-16.199219h16zm176-8.808594h16v16.207031c-4.671875-3.535156-10.054688-6.183593-16-7.390625zm0 25.472656c9.289062 3.3125 16 12.113282 16 22.527344s-6.710938 19.214844-16 22.527344zm-94.246094 84.3125 6.246094-4.167968 6.246094 4.167968c10.035156 6.6875 21.707031 10.214844 33.753906 10.214844 5.265625 0 10.414062-.792969 15.433594-2.113281-13.21875 15.9375-33.160156 26.113281-55.433594 26.113281-22.351562 0-42.351562-10.230469-55.566406-26.265625 16.589844 4.273437 34.847656 1.699219 49.320312-7.949219zm-33.753906 40.503906c12.015625 6.160157 25.59375 9.710938 40 9.710938s27.984375-3.550781 40-9.710938v17.710938h-11.160156c-10.726563 0-20.679688 5.328125-26.625 14.246094l-2.214844 3.328125-2.214844-3.328125c-5.953125-8.917969-15.90625-14.246094-26.625-14.246094h-11.160156zm-45.511719-256.488281c3.550781 3.558594 5.511719 8.289063 5.511719 13.3125v4.886719h16v-4.886719c0-5.816406-1.574219-11.351562-4.320312-16.417969 6.183593-11.535156 18.007812-18.695312 31.160156-18.695312 7.015625 0 13.824218 2.054688 19.664062 5.953125l17.496094 11.664063 17.496094-11.664063c5.839844-3.898437 12.648437-5.953125 19.664062-5.953125 13.144532 0 24.953125 7.144531 31.144532 18.664062-2.710938 5.015626-4.304688 10.582032-4.304688 16.449219v4.886719h16v-4.886719c0-5.023437 1.960938-9.753906 5.800781-13.601562 7.558594-7.566407 21.320313-6.808594 28.007813 1.550781l19.832031 24.777344c1.519531 1.914062 2.359375 4.3125 2.359375 6.761718 0 3.382813-1.617188 6.613282-4.320312 8.644532l-22.34375 16.753906h-218.671876l-22.34375-16.761719c-2.703124-2.03125-4.320312-5.253906-4.320312-8.636719 0-2.449218.839844-4.839843 2.367188-6.753906l19.824218-24.777344c6.695313-8.367187 20.128906-9.460937 28.296875-1.269531zm-66.257812 34.785157c.585937 7.644531 4.3125 14.820312 10.488281 19.453124l21.28125 15.960938v84c0 19.800781 14.503906 36.175781 33.425781 39.335938.132813.761718.199219 1.550781.351563 2.304687l-11.824219 3.945313 16.328125 10.886718c5.519531 13.847656 14.398438 26 25.710938 35.359375v29.160157l-71.398438 9.519531c-27.707031 3.695312-48.59375 27.558593-48.59375 55.511719v20.871093c-34.863281-40.597656-56-93.308593-56-150.894531 0-68.152344 29.535156-131.640625 80.230469-175.414062zm47.769531 382.703124v-79.289062h-16v70.480469c-14.457031-8.769531-27.832031-19.121094-40-30.726563v-37.738281c0-19.960937 14.921875-37.007813 34.710938-39.648437l77.839843-10.367188h18.601563c5.359375 0 10.335937 2.664062 13.3125 7.128906l7.535156 11.296875v10.796875l-78.6875-13.109375-2.625 15.78125 137.3125 22.882813v92.199218c-15.496094 3.269532-31.542969 5.023438-48 5.023438-37.382812 0-72.695312-8.945312-104-24.710938zm0 0"/></svg>