<svg height="512pt" viewBox="0 -80 512 512" width="512pt" xmlns="http://www.w3.org/2000/svg"><path d="m456 280c8.878906 0 16 7.199219 16 16s-7.121094 16-16 16h-448v-32zm0 0" fill="#ccd1d9"/><path d="m456 248h-448v32h448c8.878906 0 16 7.199219 16 16s-7.121094 16-16 16h-448v32h448c26.558594 0 48-21.441406 48-48s-21.441406-48-48-48zm0 0" fill="#656d78"/><path d="m432 168c13.28125 0 24 10.71875 24 24v32h-128v-32c0-13.28125 10.71875-24 24-24h16l8 8 16-8 16 8 8-8zm0 0" fill="#5d9cec"/><path d="m432 168h-16l-3.550781 3.550781c6.902343 4.21875 11.550781 11.746094 11.550781 20.449219v32h32v-32c0-13.28125-10.71875-24-24-24zm0 0" fill="#4a89dc"/><path d="m392 152c8.558594 0 16.71875-1.921875 24-5.441406v21.441406l-8 8-16-8-16 8-8-8v-21.441406c7.28125 3.519531 15.441406 5.441406 24 5.441406zm0 0" fill="#f5f7fa"/><path d="m448 79.28125v16.71875c0 22.398438-13.039062 41.601562-32 50.558594-7.28125 3.519531-15.441406 5.441406-24 5.441406s-16.71875-1.921875-24-5.441406c-18.960938-8.957032-32-28.160156-32-50.558594v-16.71875l16-15.128906v-.152344s21.359375 8.71875 43.121094 8.71875c20.40625 0 34.957031-7.757812 36.726562-8.71875l.152344.078125zm0 0" fill="#eac6bb"/><path d="m448 72v7.28125l-16-15.203125-.160156-.078125c-1.769532.960938-16.320313 8.71875-36.726563 8.71875-21.753906 0-43.113281-8.71875-43.113281-8.71875v.160156l-16 15.128906v-7.289062c0-30.960938 25.121094-56 56-56 30.960938 0 56 25.039062 56 56zm0 0" fill="#656d78"/><path d="m431.839844 64c-1.078125.585938-6.96875 3.703125-16.007813 6.039062.023438.664063.167969 1.296876.167969 1.960938v24c0 22.398438-13.039062 41.601562-32 50.558594-2.550781 1.234375-5.246094 2.195312-8 3.027344.015625 0 .03125.007812.046875.007812 2.34375.703125 4.761719 1.230469 7.210937 1.636719.300782.050781.605469.121093.910157.160156 2.566406.386719 5.175781.609375 7.832031.609375 8.558594 0 16.71875-1.921875 24-5.441406 18.960938-8.957032 32-28.167969 32-50.558594v-16.71875l-16-15.203125zm0 0" fill="#d3b1a9"/><path d="m392 16c-2.527344 0-5.007812.214844-7.457031.550781-.511719.074219-1.023438.152344-1.527344.234375-2.34375.382813-4.65625.863282-6.894531 1.527344-.03125.007812-.066406.015625-.097656.023438 22.519531 6.703124 38.960937 27.183593 39.816406 51.695312 9.039062-2.335938 14.929687-5.457031 16.007812-6.039062l.152344.085937 16 15.203125v-7.28125c0-30.960938-25.039062-56-56-56zm0 0" fill="#434a54"/><path d="m288 79.28125-16-15.203125-.160156-.078125c-1.769532.960938-16.320313 8.71875-36.726563 8.71875-21.753906 0-43.113281-8.71875-43.113281-8.71875v.160156l-16 15.128906v-23.289062c0-26.558594 21.441406-48 48-48h40v24c13.28125 0 24 10.71875 24 24zm0 0" fill="#965353"/><path d="m264 32v-24h-32v40c13.28125 0 24 2.71875 24 16v6c8.9375-2.34375 14.777344-5.414062 15.839844-6l.160156.078125 16 15.203125v-23.28125c0-13.28125-10.71875-24-24-24zm0 0" fill="#844747"/><path d="m288 79.28125v16.71875c0 22.398438-13.039062 41.601562-32 50.558594-7.28125 3.519531-15.441406 5.441406-24 5.441406s-16.71875-1.921875-24-5.441406c-18.960938-8.957032-32-28.160156-32-50.558594v-16.71875l16-15.128906v-.152344s21.359375 8.71875 43.121094 8.71875c20.40625 0 34.957031-7.757812 36.726562-8.71875l.152344.078125zm0 0" fill="#eac6bb"/><path d="m272 64.078125-.160156-.078125c-1.070313.585938-6.902344 3.65625-15.839844 6v26c0 22.398438-13.039062 41.601562-32 50.558594-2.550781 1.234375-5.246094 2.195312-8 3.027344 5.089844 1.527343 10.449219 2.414062 16 2.414062 8.558594 0 16.71875-1.921875 24-5.441406 18.960938-8.957032 32-28.167969 32-50.558594v-16.71875zm0 0" fill="#d3b1a9"/><path d="m232 152c8.558594 0 16.71875-1.921875 24-5.441406v21.441406l-8 8-16-8-16 8-8-8v-21.441406c7.28125 3.519531 15.441406 5.441406 24 5.441406zm0 0" fill="#656d78"/><path d="m272 168c13.28125 0 24 10.71875 24 24v32h-128v-32c0-13.28125 10.71875-24 24-24h16l8 8 16-8 16 8 8-8zm0 0" fill="#ed5565"/><path d="m272 168h-16l-3.550781 3.550781c6.902343 4.21875 11.550781 11.746094 11.550781 20.449219v32h32v-32c0-13.28125-10.71875-24-24-24zm0 0" fill="#da4453"/><path d="m112 168c13.28125 0 24 10.71875 24 24v32h-128v-32c0-13.28125 10.71875-24 24-24h16l8 8 16-8 16 8 8-8zm0 0" fill="#e6e9ed"/><path d="m112 168h-16l-3.550781 3.550781c6.902343 4.21875 11.550781 11.746094 11.550781 20.449219v32h32v-32c0-13.28125-10.71875-24-24-24zm0 0" fill="#ccd1d9"/><path d="m96 146.558594v21.441406l-8 8-16-8-16 8-8-8v-21.519531c7.28125 3.519531 15.441406 5.449219 24 5.449219s16.71875-1.921876 24-5.449219zm0 0" fill="#f5f7fa"/><path d="m128 78.960938v17.039062c0 22.320312-13.039062 41.601562-32 50.480469-7.28125 3.519531-15.441406 5.449219-24 5.449219s-16.71875-1.921876-24-5.449219c-18.960938-8.878907-32-28.160157-32-50.480469v-22.878906c46.480469 5.359375 65.039062-10.160156 80-13.273438 9.921875-2.085937 18.238281 1.191406 32 19.113282zm0 0" fill="#eac6bb"/><path d="m96 59.839844v36.160156c0 22.320312-13.039062 41.601562-32 50.480469-2.550781 1.230469-5.246094 2.191406-8 3.023437 5.089844 1.527344 10.449219 2.425782 16 2.425782 8.558594 0 16.71875-1.921876 24-5.449219 18.960938-8.871094 32-28.160157 32-50.480469v-17.039062c-13.761719-17.921876-22.078125-21.199219-32-19.121094zm0 0" fill="#d3b1a9"/><path d="m128 78.960938c-13.761719-17.921876-22.078125-21.199219-32-19.121094l15.921875-32.558594c10 10.640625 16.078125 25.039062 16.078125 40.71875zm0 0" fill="#edab37"/><path d="m16 73.121094c-2.558594-.320313-5.199219-.640625-8-1.121094v-4c0-33.121094 26.878906-60 60-60 17.441406 0 33.121094 7.441406 43.921875 19.28125l-15.921875 32.558594c-14.960938 3.121094-33.519531 18.640625-80 13.28125zm0 0" fill="#ffce54"/><path d="m68 8c-2.625 0-5.199219.207031-7.734375.550781-.371094.050781-.730469.121094-1.097656.167969-2.449219.386719-4.847657.867188-7.183594 1.511719 0 0-.007813 0-.015625 0 10.910156 3.015625 20.582031 8.96875 27.953125 17.050781 8.261719 8.796875 13.789063 20.175781 15.476563 32.710938.195312-.039063.410156-.113282.601562-.152344l15.921875-32.558594c-10.800781-11.839844-26.480469-19.28125-43.921875-19.28125zm0 0" fill="#f6bb42"/><path d="m456 320c-4.425781 0-8-3.574219-8-8s3.574219-8 8-8c4.414062 0 8-3.585938 8-8s-3.585938-8-8-8c-4.425781 0-8-3.574219-8-8s3.574219-8 8-8c13.230469 0 24 10.769531 24 24s-10.769531 24-24 24zm0 0"/><path d="m456 352c-4.425781 0-8-3.574219-8-8s3.574219-8 8-8c22.054688 0 40-17.945312 40-40s-17.945312-40-40-40c-4.425781 0-8-3.574219-8-8s3.574219-8 8-8c30.871094 0 56 25.128906 56 56s-25.128906 56-56 56zm0 0"/><path d="m456 256h-448c-4.425781 0-8-3.574219-8-8s3.574219-8 8-8h448c4.425781 0 8 3.574219 8 8s-3.574219 8-8 8zm0 0"/><path d="m456 352h-448c-4.425781 0-8-3.574219-8-8s3.574219-8 8-8h448c4.425781 0 8 3.574219 8 8s-3.574219 8-8 8zm0 0"/><path d="m456 352c-4.425781 0-8-3.574219-8-8v-8c0-4.425781 3.574219-8 8-8s8 3.574219 8 8v8c0 4.425781-3.574219 8-8 8zm0 0"/><path d="m400 352c-4.425781 0-8-3.574219-8-8v-8c0-4.425781 3.574219-8 8-8s8 3.574219 8 8v8c0 4.425781-3.574219 8-8 8zm0 0"/><path d="m344 352c-4.425781 0-8-3.574219-8-8v-8c0-4.425781 3.574219-8 8-8s8 3.574219 8 8v8c0 4.425781-3.574219 8-8 8zm0 0"/><path d="m288 352c-4.425781 0-8-3.574219-8-8v-8c0-4.425781 3.574219-8 8-8s8 3.574219 8 8v8c0 4.425781-3.574219 8-8 8zm0 0"/><path d="m232 352c-4.425781 0-8-3.574219-8-8v-8c0-4.425781 3.574219-8 8-8s8 3.574219 8 8v8c0 4.425781-3.574219 8-8 8zm0 0"/><path d="m176 352c-4.425781 0-8-3.574219-8-8v-8c0-4.425781 3.574219-8 8-8s8 3.574219 8 8v8c0 4.425781-3.574219 8-8 8zm0 0"/><path d="m120 352c-4.425781 0-8-3.574219-8-8v-8c0-4.425781 3.574219-8 8-8s8 3.574219 8 8v8c0 4.425781-3.574219 8-8 8zm0 0"/><path d="m64 352c-4.425781 0-8-3.574219-8-8v-8c0-4.425781 3.574219-8 8-8s8 3.574219 8 8v8c0 4.425781-3.574219 8-8 8zm0 0"/><path d="m8 352c-4.425781 0-8-3.574219-8-8v-8c0-4.425781 3.574219-8 8-8s8 3.574219 8 8v8c0 4.425781-3.574219 8-8 8zm0 0"/><path d="m400 264c-4.425781 0-8-3.574219-8-8v-8c0-4.425781 3.574219-8 8-8s8 3.574219 8 8v8c0 4.425781-3.574219 8-8 8zm0 0"/><path d="m344 264c-4.425781 0-8-3.574219-8-8v-8c0-4.425781 3.574219-8 8-8s8 3.574219 8 8v8c0 4.425781-3.574219 8-8 8zm0 0"/><path d="m176 264c-4.425781 0-8-3.574219-8-8v-8c0-4.425781 3.574219-8 8-8s8 3.574219 8 8v8c0 4.425781-3.574219 8-8 8zm0 0"/><path d="m120 264c-4.425781 0-8-3.574219-8-8v-8c0-4.425781 3.574219-8 8-8s8 3.574219 8 8v8c0 4.425781-3.574219 8-8 8zm0 0"/><path d="m8 264c-4.425781 0-8-3.574219-8-8v-8c0-4.425781 3.574219-8 8-8s8 3.574219 8 8v8c0 4.425781-3.574219 8-8 8zm0 0"/><path d="m504 304h-8c-4.425781 0-8-3.574219-8-8s3.574219-8 8-8h8c4.425781 0 8 3.574219 8 8s-3.574219 8-8 8zm0 0"/><path d="m456 264c-4.425781 0-8-3.574219-8-8v-8c0-4.425781 3.574219-8 8-8s8 3.574219 8 8v8c0 4.425781-3.574219 8-8 8zm0 0"/><path d="m288 264c-4.425781 0-8-3.574219-8-8v-8c0-4.425781 3.574219-8 8-8s8 3.574219 8 8v8c0 4.425781-3.574219 8-8 8zm0 0"/><path d="m232 264c-4.425781 0-8-3.574219-8-8v-8c0-4.425781 3.574219-8 8-8s8 3.574219 8 8v8c0 4.425781-3.574219 8-8 8zm0 0"/><path d="m64 264c-4.425781 0-8-3.574219-8-8v-8c0-4.425781 3.574219-8 8-8s8 3.574219 8 8v8c0 4.425781-3.574219 8-8 8zm0 0"/><path d="m456 288h-448c-4.425781 0-8-3.574219-8-8s3.574219-8 8-8h448c4.425781 0 8 3.574219 8 8s-3.574219 8-8 8zm0 0"/><path d="m456 320h-448c-4.425781 0-8-3.574219-8-8s3.574219-8 8-8h448c4.425781 0 8 3.574219 8 8s-3.574219 8-8 8zm0 0"/><path d="m16 104c-4.425781 0-8-3.574219-8-8v-22.9375c0-4.421875 3.574219-8 8-8s8 3.578125 8 8v22.9375c0 4.425781-3.574219 8-8 8zm0 0"/><path d="m128 104c-4.425781 0-8-3.574219-8-8v-28c0-4.425781 3.574219-8 8-8s8 3.574219 8 8v28c0 4.425781-3.574219 8-8 8zm0 0"/><path d="m128 76c-4.425781 0-8-3.574219-8-8 0-28.671875-23.328125-52-52-52s-52 23.328125-52 52c0 4.425781-3.574219 8-8 8s-8-3.574219-8-8c0-37.496094 30.503906-68 68-68s68 30.503906 68 68c0 4.425781-3.574219 8-8 8zm0 0"/><path d="m128.007812 86.96875c-2.40625 0-4.785156-1.082031-6.359374-3.136719-15.449219-20.183593-19.648438-18.503906-35.3125-12.304687-15.03125 5.945312-37.734376 14.960937-79.582032 8.335937-4.363281-.6875-7.347656-4.785156-6.648437-9.152343.679687-4.359376 4.796875-7.367188 9.152343-6.648438 37.542969 5.929688 56.980469-1.789062 71.191407-7.414062 19.261719-7.640626 32.191406-10.90625 53.902343 17.449218 2.6875 3.503906 2.023438 8.527344-1.488281 11.214844-1.449219 1.121094-3.160156 1.65625-4.855469 1.65625zm0 0"/><path d="m95.992188 67.816406c-1.175782 0-2.382813-.265625-3.511719-.824218-3.96875-1.945313-5.601563-6.746094-3.65625-10.703126l16-32.578124c1.9375-3.96875 6.726562-5.597657 10.703125-3.65625 3.96875 1.945312 5.601562 6.746093 3.65625 10.707031l-16 32.574219c-1.390625 2.832031-4.238282 4.480468-7.191406 4.480468zm0 0"/><path d="m8 199.96875c-4.425781 0-8-3.578125-8-8 0-17.648438 14.351562-32 32-32 4.425781 0 8 3.574219 8 8 0 4.421875-3.574219 8-8 8-8.824219 0-16 7.175781-16 16 0 4.421875-3.574219 8-8 8zm0 0"/><path d="m48 176.015625h-16c-4.425781 0-8-3.574219-8-8 0-4.421875 3.574219-8 8-8h16c4.425781 0 8 3.578125 8 8 0 4.425781-3.574219 8-8 8zm0 0"/><path d="m8 232c-4.425781 0-8-3.574219-8-8v-32.03125c0-4.425781 3.574219-8 8-8s8 3.574219 8 8v32.03125c0 4.425781-3.574219 8-8 8zm0 0"/><path d="m136 199.96875c-4.425781 0-8-3.578125-8-8 0-8.824219-7.175781-16-16-16-4.425781 0-8-3.578125-8-8 0-4.425781 3.574219-8 8-8 17.648438 0 32 14.351562 32 32 0 4.421875-3.574219 8-8 8zm0 0"/><path d="m112 176.015625h-16c-4.425781 0-8-3.574219-8-8 0-4.421875 3.574219-8 8-8h16c4.425781 0 8 3.578125 8 8 0 4.425781-3.574219 8-8 8zm0 0"/><path d="m136 232c-4.425781 0-8-3.574219-8-8v-32.03125c0-4.425781 3.574219-8 8-8s8 3.574219 8 8v32.03125c0 4.425781-3.574219 8-8 8zm0 0"/><path d="m136 232h-128c-4.425781 0-8-3.574219-8-8s3.574219-8 8-8h128c4.425781 0 8 3.574219 8 8s-3.574219 8-8 8zm0 0"/><path d="m48 176.015625c-4.425781 0-8-3.574219-8-8v-21.472656c0-4.421875 3.574219-8 8-8s8 3.578125 8 8v21.472656c0 4.425781-3.574219 8-8 8zm0 0"/><path d="m96 175.96875c-4.425781 0-8-3.578125-8-8v-21.425781c0-4.421875 3.574219-8 8-8s8 3.578125 8 8v21.425781c0 4.421875-3.574219 8-8 8zm0 0"/><path d="m72 159.9375c-35.289062 0-64-28.699219-64-63.96875 0-4.425781 3.574219-8 8-8s8 3.574219 8 8c0 26.457031 21.527344 47.96875 48 47.96875s48-21.511719 48-47.96875c0-4.425781 3.574219-8 8-8s8 3.574219 8 8c0 35.269531-28.710938 63.96875-64 63.96875zm0 0"/><path d="m56.007812 184c-2.9375 0-5.761718-1.617188-7.167968-4.425781-1.976563-3.949219-.375-8.757813 3.574218-10.734375l16-8c3.953126-1.960938 8.753907-.375 10.738282 3.574218 1.976562 3.953126.375 8.761719-3.578125 10.738282l-16 8c-1.140625.574218-2.367188.847656-3.566407.847656zm0 0"/><path d="m88 184c-2.039062 0-4.089844-.777344-5.648438-2.335938-3.128906-3.121093-3.144531-8.175781-.015624-11.3125l8-8.03125c3.121093-3.113281 8.175781-3.152343 11.3125-.015624 3.128906 3.121093 3.144531 8.175781.015624 11.3125l-8 8.03125c-1.558593 1.558593-3.609374 2.351562-5.664062 2.351562zm0 0"/><path d="m56 184c-2.054688 0-4.105469-.785156-5.664062-2.351562l-8-8.03125c-3.128907-3.136719-3.113282-8.191407.015624-11.3125 3.136719-3.152344 8.191407-3.121094 11.3125.015624l8 8.03125c3.128907 3.136719 3.113282 8.191407-.015624 11.3125-1.558594 1.558594-3.609376 2.335938-5.648438 2.335938zm0 0"/><path d="m87.992188 184c-1.199219 0-2.425782-.273438-3.566407-.839844l-16-8c-3.953125-1.976562-5.554687-6.785156-3.578125-10.734375 1.984375-3.953125 6.777344-5.539062 10.738282-3.578125l16 8c3.949218 1.976563 5.550781 6.785156 3.574218 10.738282-1.40625 2.796874-4.230468 4.414062-7.167968 4.414062zm0 0"/><path d="m168 199.96875c-4.425781 0-8-3.578125-8-8 0-17.648438 14.351562-32 32-32 4.425781 0 8 3.574219 8 8 0 4.421875-3.574219 8-8 8-8.824219 0-16 7.175781-16 16 0 4.421875-3.574219 8-8 8zm0 0"/><path d="m208 176.015625h-16c-4.425781 0-8-3.574219-8-8 0-4.421875 3.574219-8 8-8h16c4.425781 0 8 3.578125 8 8 0 4.425781-3.574219 8-8 8zm0 0"/><path d="m168 232c-4.425781 0-8-3.574219-8-8v-32.03125c0-4.425781 3.574219-8 8-8s8 3.574219 8 8v32.03125c0 4.425781-3.574219 8-8 8zm0 0"/><path d="m296 199.96875c-4.425781 0-8-3.578125-8-8 0-8.824219-7.175781-16-16-16-4.425781 0-8-3.578125-8-8 0-4.425781 3.574219-8 8-8 17.648438 0 32 14.351562 32 32 0 4.421875-3.574219 8-8 8zm0 0"/><path d="m272 176.015625h-16c-4.425781 0-8-3.574219-8-8 0-4.421875 3.574219-8 8-8h16c4.425781 0 8 3.578125 8 8 0 4.425781-3.574219 8-8 8zm0 0"/><path d="m296 232c-4.425781 0-8-3.574219-8-8v-32.03125c0-4.425781 3.574219-8 8-8s8 3.574219 8 8v32.03125c0 4.425781-3.574219 8-8 8zm0 0"/><path d="m296 232h-128c-4.425781 0-8-3.574219-8-8s3.574219-8 8-8h128c4.425781 0 8 3.574219 8 8s-3.574219 8-8 8zm0 0"/><path d="m208 176.015625c-4.425781 0-8-3.574219-8-8v-21.472656c0-4.421875 3.574219-8 8-8s8 3.578125 8 8v21.472656c0 4.425781-3.574219 8-8 8zm0 0"/><path d="m256 175.96875c-4.425781 0-8-3.578125-8-8v-21.425781c0-4.421875 3.574219-8 8-8s8 3.578125 8 8v21.425781c0 4.421875-3.574219 8-8 8zm0 0"/><path d="m216.007812 183.96875c-2.9375 0-5.761718-1.617188-7.167968-4.425781-1.976563-3.949219-.375-8.757813 3.574218-10.734375l16-8c3.953126-1.960938 8.753907-.375 10.738282 3.574218 1.976562 3.953126.375 8.761719-3.578125 10.738282l-16 8c-1.140625.574218-2.367188.847656-3.566407.847656zm0 0"/><path d="m248 183.96875c-2.046875 0-4.097656-.785156-5.65625-2.34375-3.128906-3.128906-3.128906-8.183594 0-11.3125l8-8c3.128906-3.128906 8.183594-3.128906 11.3125 0s3.128906 8.183594 0 11.3125l-8 8c-1.558594 1.558594-3.609375 2.34375-5.65625 2.34375zm0 0"/><path d="m216 183.96875c-2.046875 0-4.097656-.785156-5.65625-2.34375l-8-8c-3.128906-3.128906-3.128906-8.183594 0-11.3125s8.183594-3.128906 11.3125 0l8 8c3.128906 3.128906 3.128906 8.183594 0 11.3125-1.558594 1.558594-3.609375 2.34375-5.65625 2.34375zm0 0"/><path d="m247.992188 183.96875c-1.199219 0-2.425782-.273438-3.566407-.839844l-16-8c-3.953125-1.976562-5.554687-6.785156-3.578125-10.738281 1.984375-3.949219 6.785156-5.535156 10.738282-3.574219l16 8c3.949218 1.976563 5.550781 6.785156 3.574218 10.734375-1.40625 2.800781-4.230468 4.417969-7.167968 4.417969zm0 0"/><path d="m235.113281 80.726562c-23.023437 0-45.191406-8.933593-46.136719-9.320312-4.089843-1.664062-6.046874-6.328125-4.382812-10.421875 1.664062-4.089844 6.328125-6.097656 10.421875-4.390625.199219.078125 20.28125 8.132812 40.097656 8.132812 19.117188 0 32.765625-7.65625 32.894531-7.734374 3.816407-2.191407 8.710938-.878907 10.914063 2.945312 2.191406 3.824219.902344 8.6875-2.90625 10.894531-.695313.40625-17.289063 9.894531-40.902344 9.894531zm0 0"/><path d="m232 160c-35.289062 0-64-28.710938-64-64 0-4.425781 3.574219-8 8-8s8 3.574219 8 8c0 26.472656 21.527344 48 48 48s48-21.527344 48-48c0-4.425781 3.574219-8 8-8s8 3.574219 8 8c0 35.289062-28.710938 64-64 64zm0 0"/><path d="m176 104c-4.425781 0-8-3.574219-8-8v-40c0-4.425781 3.574219-8 8-8s8 3.574219 8 8v40c0 4.425781-3.574219 8-8 8zm0 0"/><path d="m288 104c-4.425781 0-8-3.585938-8-8l.015625-39.992188c0-4.421874 3.585937-8 8-8 4.425781 0 8 3.585938 8 8l-.015625 39.992188c0 4.425781-3.585938 8-8 8zm0 0"/><path d="m288.015625 64.007812c-4.421875 0-8-3.574218-8-8 0-8.832031-7.183594-16.007812-16.015625-16.007812-4.425781 0-8-3.574219-8-8s3.574219-8 8-8c17.65625 0 32.015625 14.359375 32.015625 32.007812 0 4.425782-3.574219 8-8 8zm0 0"/><path d="m264 40c-4.425781 0-8-3.574219-8-8v-24c0-4.425781 3.574219-8 8-8s8 3.574219 8 8v24c0 4.425781-3.574219 8-8 8zm0 0"/><path d="m176 64c-4.425781 0-8-3.574219-8-8 0-30.871094 25.128906-56 56-56 4.425781 0 8 3.574219 8 8s-3.574219 8-8 8c-22.054688 0-40 17.945312-40 40 0 4.425781-3.574219 8-8 8zm0 0"/><path d="m288 87.265625c-1.976562 0-3.960938-.730469-5.503906-2.195313l-16-15.183593c-3.199219-3.046875-3.335938-8.109375-.296875-11.3125 3.058593-3.199219 8.113281-3.335938 11.3125-.292969l16 15.183594c3.199219 3.046875 3.335937 8.109375.296875 11.3125-1.585938 1.65625-3.6875 2.488281-5.808594 2.488281zm0 0"/><path d="m176 87.265625c-2.128906 0-4.238281-.839844-5.816406-2.503906-3.039063-3.210938-2.886719-8.273438.320312-11.3125l16-15.113281c3.207032-3.023438 8.28125-2.871094 11.304688.328124 3.039062 3.207032 2.886718 8.273438-.320313 11.3125l-16 15.113282c-1.542969 1.445312-3.519531 2.175781-5.488281 2.175781zm0 0"/><path d="m264 16h-40c-4.425781 0-8-3.574219-8-8s3.574219-8 8-8h40c4.425781 0 8 3.574219 8 8s-3.574219 8-8 8zm0 0"/><path d="m328 199.96875c-4.425781 0-8-3.578125-8-8 0-17.648438 14.351562-32 32-32 4.425781 0 8 3.574219 8 8 0 4.421875-3.574219 8-8 8-8.824219 0-16 7.175781-16 16 0 4.421875-3.574219 8-8 8zm0 0"/><path d="m368 176.015625h-16c-4.425781 0-8-3.574219-8-8 0-4.421875 3.574219-8 8-8h16c4.425781 0 8 3.578125 8 8 0 4.425781-3.574219 8-8 8zm0 0"/><path d="m328 232c-4.425781 0-8-3.574219-8-8v-32.03125c0-4.425781 3.574219-8 8-8s8 3.574219 8 8v32.03125c0 4.425781-3.574219 8-8 8zm0 0"/><path d="m456 199.96875c-4.425781 0-8-3.578125-8-8 0-8.824219-7.175781-16-16-16-4.425781 0-8-3.578125-8-8 0-4.425781 3.574219-8 8-8 17.648438 0 32 14.351562 32 32 0 4.421875-3.574219 8-8 8zm0 0"/><path d="m432 176.015625h-16c-4.425781 0-8-3.574219-8-8 0-4.421875 3.574219-8 8-8h16c4.425781 0 8 3.578125 8 8 0 4.425781-3.574219 8-8 8zm0 0"/><path d="m456 232c-4.425781 0-8-3.574219-8-8v-32.03125c0-4.425781 3.574219-8 8-8s8 3.574219 8 8v32.03125c0 4.425781-3.574219 8-8 8zm0 0"/><path d="m456 232h-128c-4.425781 0-8-3.574219-8-8s3.574219-8 8-8h128c4.425781 0 8 3.574219 8 8s-3.574219 8-8 8zm0 0"/><path d="m368 176.015625c-4.425781 0-8-3.574219-8-8v-21.472656c0-4.421875 3.574219-8 8-8s8 3.578125 8 8v21.472656c0 4.425781-3.574219 8-8 8zm0 0"/><path d="m416 175.96875c-4.425781 0-8-3.578125-8-8v-21.425781c0-4.421875 3.574219-8 8-8s8 3.578125 8 8v21.425781c0 4.421875-3.574219 8-8 8zm0 0"/><path d="m376.007812 183.96875c-2.9375 0-5.761718-1.617188-7.167968-4.425781-1.976563-3.949219-.375-8.757813 3.574218-10.734375l16-8c3.945313-1.960938 8.753907-.375 10.738282 3.574218 1.976562 3.953126.375 8.761719-3.578125 10.738282l-16 8c-1.140625.574218-2.367188.847656-3.566407.847656zm0 0"/><path d="m408 183.96875c-2.046875 0-4.097656-.785156-5.65625-2.34375-3.128906-3.128906-3.128906-8.183594 0-11.3125l8-8c3.128906-3.128906 8.183594-3.128906 11.3125 0s3.128906 8.183594 0 11.3125l-8 8c-1.558594 1.558594-3.609375 2.34375-5.65625 2.34375zm0 0"/><path d="m376 183.96875c-2.046875 0-4.097656-.785156-5.65625-2.34375l-8-8c-3.128906-3.128906-3.128906-8.183594 0-11.3125s8.183594-3.128906 11.3125 0l8 8c3.128906 3.128906 3.128906 8.183594 0 11.3125-1.558594 1.558594-3.609375 2.34375-5.65625 2.34375zm0 0"/><path d="m407.992188 183.96875c-1.199219 0-2.425782-.273438-3.566407-.839844l-16-8c-3.953125-1.976562-5.554687-6.785156-3.578125-10.738281 1.984375-3.949219 6.792969-5.535156 10.738282-3.574219l16 8c3.949218 1.976563 5.550781 6.785156 3.574218 10.734375-1.40625 2.800781-4.230468 4.417969-7.167968 4.417969zm0 0"/><path d="m395.113281 80.726562c-23.023437 0-45.191406-8.933593-46.136719-9.320312-4.089843-1.664062-6.046874-6.328125-4.382812-10.421875 1.664062-4.089844 6.328125-6.097656 10.421875-4.390625.199219.078125 20.28125 8.132812 40.097656 8.132812 19.117188 0 32.765625-7.65625 32.894531-7.734374 3.824219-2.191407 8.710938-.878907 10.914063 2.945312 2.191406 3.824219.902344 8.6875-2.90625 10.894531-.695313.40625-17.289063 9.894531-40.902344 9.894531zm0 0"/><path d="m392 160c-35.289062 0-64-28.710938-64-64 0-4.425781 3.574219-8 8-8s8 3.574219 8 8c0 26.472656 21.527344 48 48 48s48-21.527344 48-48c0-4.425781 3.574219-8 8-8s8 3.574219 8 8c0 35.289062-28.710938 64-64 64zm0 0"/><path d="m336 104c-4.425781 0-8-3.574219-8-8v-24c0-4.425781 3.574219-8 8-8s8 3.574219 8 8v24c0 4.425781-3.574219 8-8 8zm0 0"/><path d="m448 104c-4.425781 0-8-3.585938-8-8.007812l.015625-23.992188c0-4.414062 3.585937-7.992188 8-7.992188h.007813c4.417968 0 7.992187 3.585938 7.992187 8.007813l-.015625 23.992187c0 4.417969-3.585938 7.992188-8 7.992188zm0 0"/><path d="m448.015625 80c-4.421875 0-8-3.574219-8-8 0-26.472656-21.527344-48-48-48s-48 21.527344-48 48c0 4.425781-3.574219 8-8 8-4.421875 0-8-3.574219-8-8 0-35.289062 28.710937-64 64-64s64 28.710938 64 64c0 4.425781-3.574219 8-8 8zm0 0"/><path d="m448 87.265625c-1.976562 0-3.960938-.730469-5.503906-2.195313l-16-15.183593c-3.199219-3.046875-3.335938-8.109375-.296875-11.3125 3.046875-3.199219 8.113281-3.335938 11.3125-.292969l16 15.183594c3.199219 3.046875 3.335937 8.109375.296875 11.3125-1.585938 1.65625-3.6875 2.488281-5.808594 2.488281zm0 0"/><path d="m336 87.265625c-2.128906 0-4.238281-.839844-5.816406-2.503906-3.039063-3.210938-2.886719-8.273438.320312-11.3125l16-15.113281c3.214844-3.023438 8.28125-2.871094 11.304688.328124 3.039062 3.207032 2.886718 8.273438-.320313 11.3125l-16 15.113282c-1.542969 1.445312-3.519531 2.175781-5.488281 2.175781zm0 0"/></svg>