<?xml version="1.0" encoding="UTF-8"?>
<svg xmlns="http://www.w3.org/2000/svg" id="filled_outline" data-name="filled outline" viewBox="0 0 512 512" width="512" height="512"><rect x="264" y="24" width="176" height="144" style="fill:#db8638"/><path d="M384,254.10986A9.89263,9.89263,0,0,1,374.11,264H257.13a32.01979,32.01979,0,0,1-26.63-14.25l-7.93994-11.91016L208,216v56H64V191.83008A50.81534,50.81534,0,0,1,98.81006,104h90.61987a31.98634,31.98634,0,0,1,27.78,16.12012l37.95,66.40991,12.77,22.34009L272,216h48l12.68994-12.68994a11.25448,11.25448,0,0,1,3.67005-2.4502A11.31369,11.31369,0,0,1,352,211.31006V232l26.53,13.27a9.88026,9.88026,0,0,1,5.47,8.83984Z" style="fill:#ffceb6"/><path d="M255.15991,186.53,208,216l14.56006,21.83984,45.36987-28.96972Z" style="fill:#ffbfa1"/><path d="M255.15991,186.53,208,216v56H64V191.83008A50.81534,50.81534,0,0,1,98.81006,104h90.61987a31.98634,31.98634,0,0,1,27.78,16.12012Z" style="fill:#ffb401"/><path d="M168,72v44a20,20,0,0,1-40,0V72Z" style="fill:#ffceb6"/><path d="M107.14286,218.5l26.15834-45.77711L168,192l72-48,5.26688-10.53375A9.88853,9.88853,0,0,1,254.11145,128h0A9.88854,9.88854,0,0,1,264,137.88853V160h30.358A9.642,9.642,0,0,1,304,169.64205v0a9.642,9.642,0,0,1-5.84386,8.86244L248,200l-34.81382,24.867A81.24373,81.24373,0,0,1,165.96422,240h-.00005a81.24376,81.24376,0,0,1-40.93636-11.06711Z" style="fill:#ffceb6"/><polygon points="336 24 336 72 352 56 368 72 368 24 336 24" style="fill:#f7a156"/><polygon points="112 496 144 336 144 496 208 496 208 272 64 272 64 496 112 496" style="fill:#718799"/><path d="M432,256l27.02944-27.02944a16.97054,16.97054,0,0,0,4.97056-12v0A16.97054,16.97054,0,0,0,447.02945,200h0a16.97054,16.97054,0,0,0-12,4.97056L432,208l-3.02944-3.02944a16.97054,16.97054,0,0,0-12-4.97056h0A16.97054,16.97054,0,0,0,400,216.97055v0a16.97054,16.97054,0,0,0,4.97056,12Z" style="fill:#ef5e3b"/><path d="M152,104h0a24,24,0,0,1-24-24V72l16-16h32V80A24,24,0,0,1,152,104Z" style="fill:#ffceb6"/><path d="M176,56l6.63344-13.26688A12.94424,12.94424,0,0,0,184,36.94427h0A12.94426,12.94426,0,0,0,171.05574,24H152a24,24,0,0,0-24,24V72l16-16Z" style="fill:#c47220"/><path d="M310.817,176H440a8.00008,8.00008,0,0,0,8-8V24a8.00008,8.00008,0,0,0-8-8H264a8.00008,8.00008,0,0,0-8,8v96.10205A18.01,18.01,0,0,0,254.11133,120a17.7906,17.7906,0,0,0-15.99951,9.8877l-2.84888,5.69848-11.10376-19.43091A40.08508,40.08508,0,0,0,189.42969,96h-9.73487A31.792,31.792,0,0,0,184,80V57.88867l5.78857-11.57715A20.94437,20.94437,0,0,0,171.05566,16H152a32.03635,32.03635,0,0,0-32,32V96H98.814A58.78945,58.78945,0,0,0,56,195.104V496H72V280H200V496h16V242.42188l7.84375,11.76562A39.92043,39.92043,0,0,0,257.126,272H374.11133a17.88858,17.88858,0,0,0,8-33.88867L360,227.05566V211.31348a19.31389,19.31389,0,0,0-32.97021-13.65723L316.68652,208H276.64258l-5.31165-9.29517,29.97718-12.84741A17.61915,17.61915,0,0,0,310.817,176ZM344,32h16V52.68652l-2.34326-2.34375a8.00182,8.00182,0,0,0-11.31348,0L344,52.68652Zm-72,0h56V72a8.00038,8.00038,0,0,0,13.65674,5.65723L352,67.31348l10.34326,10.34375A8.00038,8.00038,0,0,0,376,72V32h56V160H309.11377a17.63243,17.63243,0,0,0-14.75586-8H272ZM136,107.69482a31.95487,31.95487,0,0,0,24,3.29248V116a12,12,0,0,1-24,0ZM152,32h19.05566a4.94417,4.94417,0,0,1,4.42237,7.15527L171.05566,48H144a8.00035,8.00035,0,0,0-5.65674,2.34277L136,52.686V48A16.01833,16.01833,0,0,1,152,32ZM136,75.31348,147.31348,64H168V80a16,16,0,0,1-32,0ZM98.814,112H120v4a28,28,0,0,0,56,0v-4h13.42969a24.05258,24.05258,0,0,1,20.83789,12.09277L222.729,145.89966l-55.10791,36.738L99.88525,145.00684l-7.7705,13.98632,30.22363,16.791L104.2019,207.523,77.24121,191.7959A42.81407,42.81407,0,0,1,98.814,112ZM72,264V207.26123l48.99707,28.58154A89.3284,89.3284,0,0,0,200,241.27148V264Zm193.0542-44.03125A7.99921,7.99921,0,0,0,272,224h48a8.00035,8.00035,0,0,0,5.65674-2.34277l12.686-12.68653A3.31388,3.31388,0,0,1,344,211.31348V232a7.99869,7.99869,0,0,0,4.42236,7.15527l26.53223,13.26563A1.889,1.889,0,0,1,374.11133,256H257.126a23.95112,23.95112,0,0,1-19.96924-10.6875l-12.52612-18.78882,27.31567-19.511,4.58227-1.96387Zm29.95068-48.81738-50.15625,21.49511a8.01846,8.01846,0,0,0-1.49853.84375l-34.814,24.86719a73.244,73.244,0,0,1-79.47754,3.665l-11.03613-6.43774,18.30286-32.03,27.78943,15.43847a7.99588,7.99588,0,0,0,8.32275-.33691l72-48a7.99763,7.99763,0,0,0,2.71777-3.07813l5.26709-10.53417A1.8885,1.8885,0,0,1,256,137.88867V160a8.00008,8.00008,0,0,0,8,8h30.35791a1.6421,1.6421,0,0,1,.647,3.15137Z"/><rect x="400" y="104" width="16" height="16"/><rect x="376" y="104" width="16" height="16"/><rect x="368" y="128" width="48" height="16"/><path d="M152,496V336a8.00011,8.00011,0,0,0-15.84473-1.56934l-32,160,15.68946,3.13868L136,416.792V496Z"/><path d="M426.34326,261.65723a8.00063,8.00063,0,0,0,11.31348,0l27.0293-27.0293A24.9736,24.9736,0,0,0,432,197.02344a24.97319,24.97319,0,0,0-32.686,37.60449ZM416.9707,208a8.91273,8.91273,0,0,1,6.34326,2.62793l3.0293,3.0293a8.00182,8.00182,0,0,0,11.31348,0l3.0293-3.0293a8.97038,8.97038,0,1,1,12.68652,12.68555L432,244.68652l-21.37256-21.373A8.97038,8.97038,0,0,1,416.9707,208Z"/></svg>
