<svg id="Capa_1" enable-background="new 0 0 512 512" height="512" viewBox="0 0 512 512" width="512" xmlns="http://www.w3.org/2000/svg"><g><path d="m131.288 357.718h-96.633v-142.564l14.205-20h65.986l16.442 20z" fill="#e7ecf6"/><path d="m113.842 195.154v162.564h17.446v-142.564z" fill="#d8e2f1"/><g><path d="m335.134 133.433h82.889v56.43h-82.889z" fill="#eab14d"/><path d="m399.349 133.433h18.674v56.43h-18.674z" fill="#e49542"/></g><g><path d="m217.358 133.433h82.889v56.43h-82.889z" fill="#eab14d"/><path d="m281.572 133.433h18.674v56.43h-18.674z" fill="#e49542"/></g><path d="m99.581 133.433h82.889v56.43h-82.889z" fill="#eab14d"/><path d="m99.581 133.433h48.317v56.43h-48.317z" fill="#e49542"/><path d="m504.5 431.089h-497v-58.284c0-8.332 6.755-15.087 15.087-15.087h466.826c8.332 0 15.087 6.755 15.087 15.087z" fill="#365e7d"/><path d="m489.413 357.718h-21.522c8.332 0 15.087 6.755 15.087 15.087v58.285h21.522v-58.285c0-8.332-6.754-15.087-15.087-15.087z" fill="#2b4d66"/><path d="m123.377 80.91h-80.811c-4.369 0-7.911 3.542-7.911 7.911v126.332h96.634v-126.331c-.001-4.37-3.543-7.912-7.912-7.912z" fill="#80b4fb"/><path d="m123.377 80.91h-17.028c4.369 0 7.911 3.542 7.911 7.911v126.332h17.028v-126.331c0-4.37-3.542-7.912-7.911-7.912z" fill="#61a2f9"/><path d="m477.346 357.718h-346.058v-142.564h340.142c3.267 0 5.916 2.649 5.916 5.916z" fill="#c3d5ef"/><path d="m471.43 215.154h-18.446c3.267 0 5.916 2.649 5.916 5.916v136.648h18.446v-136.648c0-3.268-2.649-5.916-5.916-5.916z" fill="#b7c8ea"/><path d="m439.591 189.864h-308.303v25.29h329.798v-3.794c.001-11.872-9.624-21.496-21.495-21.496z" fill="#365e7d"/><path d="m131.288 189.864h16.609v25.29h-16.609z" fill="#2b4d66"/><path d="m439.591 189.864h-23.583c11.872 0 21.496 9.624 21.496 21.496v3.794h23.583v-3.794c0-11.872-9.624-21.496-21.496-21.496z" fill="#2b4d66"/><circle cx="82.972" cy="265.083" fill="#df6b57" r="17.446"/><path d="m272.605 357.718h-108.809v-99.078c0-1.987 1.611-3.598 3.598-3.598h101.612c1.987 0 3.598 1.611 3.598 3.598v99.078z" fill="#e7ecf6"/><path d="m269.007 255.041h-18.065c1.987 0 3.599 1.611 3.599 3.598v99.078h18.065v-99.077c-.001-1.988-1.612-3.599-3.599-3.599z" fill="#d8e2f1"/><circle cx="329.068" cy="301.814" fill="#e7ecf6" r="29.214"/><path d="m329.068 272.6c-2.925 0-5.747.435-8.411 1.235 12.034 3.613 20.803 14.769 20.803 27.979s-8.77 24.367-20.803 27.979c2.664.8 5.486 1.235 8.411 1.235 16.135 0 29.214-13.08 29.214-29.214s-13.079-29.214-29.214-29.214z" fill="#d8e2f1"/><circle cx="420.686" cy="301.814" fill="#e7ecf6" r="29.214"/><path d="m420.686 272.6c-2.925 0-5.747.435-8.411 1.235 12.034 3.613 20.803 14.769 20.803 27.979s-8.77 24.367-20.803 27.979c2.664.8 5.486 1.235 8.411 1.235 16.135 0 29.214-13.08 29.214-29.214s-13.079-29.214-29.214-29.214z" fill="#d8e2f1"/><g><path d="m82.972 240.137c-13.756 0-24.946 11.19-24.946 24.946 0 11.143 7.344 20.601 17.446 23.792v30.229h-1.168c-4.143 0-7.5 3.357-7.5 7.5s3.357 7.5 7.5 7.5h17.336c4.143 0 7.5-3.357 7.5-7.5s-3.357-7.5-7.5-7.5h-1.168v-30.229c10.102-3.191 17.446-12.649 17.446-23.792 0-13.756-11.19-24.946-24.946-24.946zm0 34.892c-5.484 0-9.946-4.462-9.946-9.946s4.462-9.946 9.946-9.946 9.946 4.462 9.946 9.946-4.462 9.946-9.946 9.946z"/><path d="m292.354 301.814c0 20.244 16.47 36.714 36.715 36.714 20.244 0 36.714-16.47 36.714-36.714s-16.47-36.714-36.714-36.714c-20.246.001-36.715 16.47-36.715 36.714zm58.428 0c0 11.973-9.741 21.714-21.714 21.714-11.974 0-21.715-9.741-21.715-21.714 0-9.338 5.926-17.318 14.215-20.378v20.378c0 4.143 3.357 7.5 7.5 7.5s7.5-3.357 7.5-7.5v-20.378c8.288 3.061 14.214 11.041 14.214 20.378z"/><path d="m420.686 265.101c-20.244 0-36.714 16.47-36.714 36.714s16.47 36.714 36.714 36.714c20.245 0 36.715-16.47 36.715-36.714-.001-20.172-16.426-36.714-36.715-36.714zm0 58.427c-11.973 0-21.714-9.741-21.714-21.714s9.741-21.714 21.714-21.714c3.249 0 6.331.722 9.101 2.007l-14.404 14.404c-2.93 2.929-2.93 7.678-.001 10.606 1.465 1.465 3.384 2.197 5.304 2.197 1.919 0 3.839-.732 5.303-2.196l14.405-14.405c1.285 2.77 2.007 5.852 2.007 9.101-.001 11.973-9.742 21.714-21.715 21.714z"/><path d="m191.855 271.186h-5.855c-4.143 0-7.5 3.357-7.5 7.5s3.357 7.5 7.5 7.5h5.855c4.143 0 7.5-3.357 7.5-7.5s-3.357-7.5-7.5-7.5z"/><path d="m221.128 271.186h-5.855c-4.143 0-7.5 3.357-7.5 7.5s3.357 7.5 7.5 7.5h5.855c4.143 0 7.5-3.357 7.5-7.5s-3.357-7.5-7.5-7.5z"/><path d="m250.4 271.186h-5.855c-4.143 0-7.5 3.357-7.5 7.5s3.357 7.5 7.5 7.5h5.855c4.143 0 7.5-3.357 7.5-7.5s-3.357-7.5-7.5-7.5z"/><path d="m191.855 298.88h-5.855c-4.143 0-7.5 3.357-7.5 7.5s3.357 7.5 7.5 7.5h5.855c4.143 0 7.5-3.357 7.5-7.5s-3.357-7.5-7.5-7.5z"/><path d="m221.128 298.88h-5.855c-4.143 0-7.5 3.357-7.5 7.5s3.357 7.5 7.5 7.5h5.855c4.143 0 7.5-3.357 7.5-7.5s-3.357-7.5-7.5-7.5z"/><path d="m250.4 298.88h-5.855c-4.143 0-7.5 3.357-7.5 7.5s3.357 7.5 7.5 7.5h5.855c4.143 0 7.5-3.357 7.5-7.5s-3.357-7.5-7.5-7.5z"/><path d="m191.855 326.574h-5.855c-4.143 0-7.5 3.357-7.5 7.5s3.357 7.5 7.5 7.5h5.855c4.143 0 7.5-3.357 7.5-7.5s-3.357-7.5-7.5-7.5z"/><path d="m221.128 326.574h-5.855c-4.143 0-7.5 3.357-7.5 7.5s3.357 7.5 7.5 7.5h5.855c4.143 0 7.5-3.357 7.5-7.5s-3.357-7.5-7.5-7.5z"/><path d="m250.4 326.574h-5.855c-4.143 0-7.5 3.357-7.5 7.5s3.357 7.5 7.5 7.5h5.855c4.143 0 7.5-3.357 7.5-7.5s-3.357-7.5-7.5-7.5z"/><path d="m99.999 108.274h-34.056c-4.143 0-7.5 3.357-7.5 7.5s3.357 7.5 7.5 7.5h34.056c4.143 0 7.5-3.357 7.5-7.5s-3.357-7.5-7.5-7.5z"/><path d="m99.999 135.619h-34.056c-4.143 0-7.5 3.357-7.5 7.5s3.357 7.5 7.5 7.5h34.056c4.143 0 7.5-3.357 7.5-7.5s-3.357-7.5-7.5-7.5z"/><path d="m99.999 162.963h-34.056c-4.143 0-7.5 3.357-7.5 7.5s3.357 7.5 7.5 7.5h34.056c4.143 0 7.5-3.357 7.5-7.5s-3.357-7.5-7.5-7.5z"/><path d="m489.413 350.218h-4.567v-75.077c0-4.143-3.357-7.5-7.5-7.5s-7.5 3.357-7.5 7.5v75.077h-189.74v-91.578c0-6.12-4.979-11.099-11.099-11.099h-101.612c-6.12 0-11.099 4.979-11.099 11.099v91.578h-17.508v-127.565h331.058v22.5c0 4.143 3.357 7.5 7.5 7.5s7.5-3.357 7.5-7.5v-24.084c0-7.397-6.019-13.416-13.416-13.416h-3.088c-1.827-14.243-14.019-25.29-28.751-25.29h-14.067v-48.93c0-4.143-3.357-7.5-7.5-7.5h-82.89c-4.143 0-7.5 3.357-7.5 7.5v48.93h-19.887v-48.93c0-4.143-3.357-7.5-7.5-7.5h-82.89c-4.143 0-7.5 3.357-7.5 7.5v48.93h-19.887v-48.93c0-4.143-3.357-7.5-7.5-7.5h-43.683v-37.112c0-8.498-6.913-15.411-15.411-15.411h-34.08c-4.143 0-7.5 3.357-7.5 7.5s3.357 7.5 7.5 7.5h34.08c.227 0 .411.185.411.411v118.832h-81.632v-118.832c0-.227.185-.411.411-.411h16.744c4.143 0 7.5-3.357 7.5-7.5s-3.357-7.5-7.5-7.5h-16.744c-8.498 0-15.411 6.913-15.411 15.411v261.396h-4.568c-12.454.001-22.587 10.134-22.587 22.588v58.285c0 4.143 3.357 7.5 7.5 7.5h256.192c4.143 0 7.5-3.357 7.5-7.5s-3.357-7.5-7.5-7.5h-248.692v-50.785c0-4.184 3.403-7.587 7.587-7.587h466.826c4.184 0 7.587 3.403 7.587 7.587v50.785h-203.32c-4.143 0-7.5 3.357-7.5 7.5s3.357 7.5 7.5 7.5h210.82c4.143 0 7.5-3.357 7.5-7.5v-58.285c0-12.454-10.133-22.587-22.587-22.587zm-36.324-142.565h-314.301v-10.29h300.803c6.434 0 11.869 4.366 13.498 10.29zm-110.455-66.719h26.444v6.186c0 4.143 3.357 7.5 7.5 7.5s7.5-3.357 7.5-7.5v-6.186h26.445v41.43h-67.89v-41.43zm-117.777 0h26.444v6.186c0 4.143 3.357 7.5 7.5 7.5s7.5-3.357 7.5-7.5v-6.186h26.445v41.43h-67.89v-41.43zm-49.886 0v41.43h-36.183v-41.43zm-132.816 81.719h81.633v127.564h-81.633zm129.141 127.565v-87.677h93.81v87.677z"/></g></g></svg>