<svg id="Capa_1" enable-background="new 0 0 512.002 512.002" height="512" viewBox="0 0 512.002 512.002" width="512" xmlns="http://www.w3.org/2000/svg"><g><g clip-rule="evenodd" fill-rule="evenodd"><path d="m90 110.001h220c5.499 0 10-4.5 10-10v-39.999c0-5.5-4.5-10-10-10h-69.999c.001-22.093-17.909-40.002-40.001-40.002s-40.001 17.909-40.001 40.001h-69.999c-5.5 0-10 4.5-10 10v39.999c0 5.501 4.5 10.001 10 10.001z" fill="#6d91ac"/><path d="m80 100.001v-40h-50c-11 0-20 9-20 20v402.001c0 11 9 20 20 20h340c11 0 20-9 20-20v-402.001c0-10.999-9-20-20-20l-50 .001v39.999h30v362.001h-300v-362.001z" fill="#60a4ff"/><path d="m90 110.001c-5.499 0-10-4.5-10-10h-30v362.001h300v-362.001h-30c0 5.499-4.5 10-10 10z" fill="#fff"/></g><g><path d="m370 50.001h-42.685c-3.463-5.973-9.928-9.999-17.315-9.999h-61.003c-4.646-22.794-24.851-40.001-48.997-40.001s-44.351 17.207-48.996 40.001h-61.004c-7.387 0-13.852 4.026-17.315 9.999h-42.685c-16.542 0-30 13.458-30 30v402.002c0 16.541 13.458 29.999 30 29.999h340c16.542 0 30-13.458 30-29.999v-402.002c0-16.542-13.458-30-30-30zm-210.001 10.001c5.522 0 10-4.478 10-10 0-16.543 13.458-30.001 30.001-30.001s30.002 13.458 30.002 30.001c0 5.522 4.478 10 10 10h69.998v39.999h-220l-.002-39.999zm220.001 422.001c0 5.514-4.486 9.999-10 9.999h-340c-5.514 0-10-4.485-10-9.999v-402.002c0-5.514 4.486-10 10-10h40v20h-19.999c-5.522 0-10 4.478-10 10v362.001c0 5.522 4.478 10 10 10h104.996c5.522 0 10-4.478 10-10s-4.478-10-10-10h-94.996v-342.001h12.683c3.463 5.974 9.928 10 17.316 10h220c7.388 0 13.853-4.026 17.316-10h12.684v342.001h-95.003c-5.522 0-10 4.478-10 10s4.478 10 10 10h105.003c5.522 0 10-4.478 10-10v-362.001c0-5.522-4.478-10-10-10h-20v-20h40c5.514 0 10 4.486 10 10z"/><path d="m200.004 60.002c5.522 0 10-4.478 10-10s-4.478-10-10-10h-.008c-5.522 0-9.996 4.478-9.996 10s4.481 10 10.004 10z"/><path d="m469.945 108.863c-1.694-3.388-5.156-5.527-8.944-5.527h-30c-5.522 0-10 4.478-10 10s4.478 10 10 10h10l-18 24c-2.272 3.03-2.639 7.084-.944 10.473 1.694 3.388 5.156 5.527 8.944 5.527h30c5.522 0 10-4.478 10-10s-4.478-10-10-10h-10l18-24c2.272-3.031 2.639-7.084.944-10.473z"/><path d="m502.002 53.334h-20l28-37.333c2.272-3.03 2.639-7.084.944-10.473-1.694-3.388-5.156-5.527-8.944-5.527h-40c-5.522 0-10 4.478-10 10s4.478 10 10 10h20l-28 37.333c-2.272 3.03-2.639 7.084-.944 10.472 1.694 3.389 5.156 5.528 8.944 5.528h40c5.522 0 10-4.478 10-10s-4.478-10-10-10z"/><path d="m150.823 240.306c-3.744 3.744-8.722 5.807-14.017 5.807-5.294 0-10.271-2.062-14.016-5.807-3.906-3.904-10.236-3.904-14.143 0-3.905 3.905-3.905 10.237 0 14.143 7.522 7.521 17.522 11.664 28.158 11.664 10.637 0 20.637-4.143 28.159-11.664 3.905-3.905 3.905-10.237 0-14.143-3.904-3.904-10.235-3.904-14.141 0z"/><path d="m263.194 266.113c10.637 0 20.637-4.143 28.159-11.664 3.905-3.905 3.905-10.237 0-14.143-3.906-3.904-10.236-3.904-14.143 0-3.744 3.744-8.722 5.807-14.017 5.807s-10.272-2.062-14.017-5.807c-3.906-3.904-10.236-3.904-14.143 0-3.905 3.905-3.905 10.237 0 14.143 7.525 7.521 17.525 11.664 28.161 11.664z"/><path d="m214.125 304.625h-28.249c-5.522 0-10 4.478-10 10s4.478 10 10 10h28.249c5.522 0 10-4.478 10-10s-4.478-10-10-10z"/><path d="m200.001 452.002h-.008c-5.522 0-9.996 4.478-9.996 10s4.481 10 10.004 10 10-4.478 10-10-4.478-10-10-10z"/></g></g></svg>