<svg height="512" viewBox="0 0 512 512" width="512" xmlns="http://www.w3.org/2000/svg"><g id="User_Lock_Privacy" data-name="User Lock Privacy"><g id="Flat"><path d="m240 416a79.745 79.745 0 0 1 -79.92-76.788l-.276-6.945 16.2-2.943v-81.324h127.996v81.324l16.195 2.943-.274 6.945a79.745 79.745 0 0 1 -79.921 76.788z" fill="#fac7b7"/><path d="m115 136.708a125.563 125.563 0 0 1 32.35-95.854 125.491 125.491 0 0 1 185.306 0 125.571 125.571 0 0 1 32.344 95.854z" fill="#525252"/><path d="m332.653 40.854a127.207 127.207 0 0 0 -21.378-18.748 136.123 136.123 0 0 1 -91.242 114.6h144.967a125.571 125.571 0 0 0 -32.347-95.852z" fill="#3f3f3f"/><path d="m480 512h-480v-83.911a79.961 79.961 0 0 1 65.689-78.709l110.014-20 .364 9.2a63.984 63.984 0 0 0 127.866 0l.365-9.2 110.013 20a79.961 79.961 0 0 1 65.689 78.709z" fill="#5fc4b8"/><path d="m414.311 349.38-11.153-2.028c-62.071 89.799-165.734 148.648-283.158 148.648a343.241 343.241 0 0 1 -120-21.528v37.528h480v-83.911a79.961 79.961 0 0 0 -65.689-78.709z" fill="#50b5a6"/><path d="m240 312a110.19 110.19 0 0 1 -103.518-72.475 36.628 36.628 0 0 1 -29.675-27.31l-4.559-18.241a27.384 27.384 0 0 1 17.064-32.3l-2.253-11a128.666 128.666 0 0 1 -2.059-13.965l-.176-1.912.712-1.784a48.765 48.765 0 0 1 6.685-11.7c15.654-20.339 44.348-25.271 66.456-12.234l11.794 6.955a71.267 71.267 0 0 0 79.063 0l11.8-6.955c22.108-13.036 50.8-8.1 66.455 12.235a48.742 48.742 0 0 1 6.686 11.7l.711 1.783-.186 1.911a128.177 128.177 0 0 1 -2.063 13.968l-2.252 11a27.2 27.2 0 0 1 11.928 8.639 28.076 28.076 0 0 1 4.978 24.295l-4.4 17.609a36.624 36.624 0 0 1 -29.674 27.311 110.19 110.19 0 0 1 -103.517 72.47z" fill="#ffdecf"/><path d="m372.616 170.31a27.213 27.213 0 0 0 -11.471-8.454 156.122 156.122 0 0 1 -216.727 94.784 110.181 110.181 0 0 0 199.1-17.115 36.624 36.624 0 0 0 29.674-27.311l4.4-17.609a28.076 28.076 0 0 0 -4.976-24.295z" fill="#ffd3c2"/><path d="m72 512a8 8 0 0 1 -8-8v-56a8 8 0 0 1 16 0v56a8 8 0 0 1 -8 8z" fill="#3fa896"/><circle cx="184" cy="48" fill="#848484" r="16"/><circle cx="224" cy="64" fill="#848484" r="12"/><circle cx="64" cy="388" fill="#97e5de" r="16"/><circle cx="104" cy="404" fill="#97e5de" r="12"/><circle cx="176" cy="152" fill="#fff5f2" r="16"/><circle cx="216" cy="168" fill="#fff5f2" r="12"/><path d="m496 384h-48v-48a40 40 0 0 0 -80 0v48h-48v-48a88 88 0 0 1 176 0z" fill="#ededed"/><path d="m446.456 325.021a39.881 39.881 0 0 1 1.544 10.979v48h48v-48a87.464 87.464 0 0 0 -13.24-46.368 152.871 152.871 0 0 1 -36.304 35.389z" fill="#e2e2e2"/><rect fill="#ffd740" height="144" rx="24" width="208" x="304" y="368"/><path d="m501.84 372.411a184.209 184.209 0 0 1 -196.921 122.151 24.039 24.039 0 0 0 23.081 17.438h160a24.028 24.028 0 0 0 24-24v-96a23.98 23.98 0 0 0 -10.16-19.589z" fill="#ffc400"/><circle cx="332" cy="392" fill="#ffe7a4" r="16"/><circle cx="340" cy="428" fill="#ffe7a4" r="12"/><path d="m436 428a28 28 0 1 0 -36 26.829v17.171a8 8 0 0 0 16 0v-17.171a28.044 28.044 0 0 0 20-26.829z" fill="#c0694e"/><path d="m392 444a27.978 27.978 0 0 1 42.922-23.675 28 28 0 1 0 -41.844 31.35 27.9 27.9 0 0 1 -1.078-7.675z" fill="#c97e67"/></g></g></svg>