<svg xmlns="http://www.w3.org/2000/svg" version="1.1" xmlns:xlink="http://www.w3.org/1999/xlink" xmlns:svgjs="http://svgjs.com/svgjs" width="512" height="512" x="0" y="0" viewBox="0 0 512 512" style="enable-background:new 0 0 512 512" xml:space="preserve" class=""><g><g><g><path d="m430.101 121.974v209.71c0 17.941-14.542 32.483-32.483 32.483h-209.7c-17.941 0-32.483-14.542-32.483-32.483v-209.71c0-17.941 14.542-32.483 32.483-32.483h209.7c17.941 0 32.483 14.542 32.483 32.483z" fill="#fcb44d" data-original="#fcb44d" class=""></path><g fill="#fb9927"><path d="m430.101 121.974v71.827h-14.069c-6.893 0-12.475-5.582-12.475-12.475v-38.736h-35.001c-6.893 0-12.475-5.582-12.475-12.475v-28.15c0-6.883 5.582-12.475 12.475-12.475h29.062c17.941.001 32.483 14.543 32.483 32.484z" fill="#fb9927" data-original="#fb9927" class=""></path><path d="m361.091 177.425c-8.553 0-15.487 6.935-15.487 15.487v83.223l-10.841-11.044c-2.912-2.966-6.894-4.637-11.051-4.637-4.158 0-8.14 1.671-11.053 4.639l-10.838 11.041v-83.222c0-8.553-6.935-15.487-15.487-15.487s-15.487 6.935-15.487 15.487v121.108c0 6.29 3.804 11.956 9.627 14.336 1.898.774 3.885 1.151 5.858 1.151 4.079 0 8.084-1.612 11.056-4.639l26.326-26.819 26.328 26.82c4.406 4.486 11.089 5.861 16.912 3.486 5.823-2.381 9.627-8.046 9.627-14.336v-121.106c-.002-8.553-6.937-15.488-15.49-15.488z" fill="#fb9927" data-original="#fb9927" class=""></path><path d="m241.364 314.016c0 8.561-6.935 15.486-15.486 15.486h-70.442v-152.079h70.442c8.551 0 15.486 6.935 15.486 15.486 0 8.561-6.935 15.486-15.486 15.486h-59.268v29.587h42.828c8.551 0 15.486 6.935 15.486 15.486s-6.935 15.486-15.486 15.486h-42.828v29.576h59.268c8.551 0 15.486 6.935 15.486 15.486z" fill="#fb9927" data-original="#fb9927" class=""></path></g><g><path d="m430.101 121.974v209.71c0 17.941-14.542 32.483-32.483 32.483h-35.189c17.941 0 32.483-14.542 32.483-32.483v-209.71c0-17.941-14.542-32.483-32.483-32.483h35.189c17.941 0 32.483 14.542 32.483 32.483z" fill="#fb9927" data-original="#fb9927" class=""></path></g></g><g><g><path d="m316.611 379.157h44.481c8.553 0 15.487-6.935 15.487-15.487 0-8.553-6.935-15.487-15.487-15.487h-44.481c-25.235 0-45.765 20.53-45.765 45.763 0 25.235 20.53 45.765 45.765 45.765h14.203c8.155 0 14.79 6.634 14.79 14.789s-6.635 14.79-14.79 14.79h-44.481c-8.553 0-15.487 6.935-15.487 15.487s6.935 15.487 15.487 15.487h44.481c25.235 0 45.765-20.53 45.765-45.765 0-25.234-20.53-45.763-45.765-45.763h-14.203c-8.155 0-14.79-6.635-14.79-14.79-.001-8.156 6.635-14.789 14.79-14.789z" fill="#fb4a59" data-original="#fb4a59" class=""></path><path d="m376.582 454.501c0 25.233-20.532 45.765-45.765 45.765h-20.176c25.233 0 45.765-20.533 45.765-45.765 0-25.233-20.532-45.765-45.765-45.765h-14.206c-8.152 0-14.793-6.631-14.793-14.794 0-8.152 6.641-14.783 14.793-14.783h20.176c-8.152 0-14.793 6.631-14.793 14.783 0 8.163 6.641 14.794 14.793 14.794h14.206c25.233 0 45.765 20.532 45.765 45.765z" fill="#f82f40" data-original="#f82f40" class=""></path><path d="m376.582 363.674c0 8.551-6.935 15.486-15.486 15.486h-20.176c8.551 0 15.486-6.935 15.486-15.486 0-8.561-6.935-15.496-15.486-15.496h20.176c8.551-.001 15.486 6.934 15.486 15.496z" fill="#f82f40" data-original="#f82f40" class=""></path><path d="m188.502 348.182c-29.151 0-52.866 23.715-52.866 52.866v46.35c0 29.151 23.715 52.866 52.866 52.866s52.866-23.715 52.866-52.866v-46.35c0-29.151-23.715-52.866-52.866-52.866zm21.891 99.216c0 12.071-9.82 21.891-21.891 21.891s-21.891-9.82-21.891-21.891v-46.35c0-12.071 9.82-21.891 21.891-21.891s21.891 9.82 21.891 21.891z" fill="#fb4a59" data-original="#fb4a59" class=""></path><path d="m241.364 401.045v46.353c0 29.146-23.711 52.868-52.858 52.868-4.008 0-7.911-.451-11.667-1.301 23.554-5.319 41.212-26.429 41.212-51.567v-46.353c0-25.138-17.658-46.248-41.212-51.567 3.756-.85 7.659-1.301 11.667-1.301 29.146 0 52.858 23.722 52.858 52.868z" fill="#f82f40" data-original="#f82f40" class=""></path><path d="m361.091 157.252c-8.553 0-15.487 6.935-15.487 15.487v83.223l-10.841-11.044c-2.912-2.966-6.894-4.637-11.051-4.637-4.158 0-8.14 1.671-11.053 4.639l-10.838 11.041v-83.222c0-8.553-6.935-15.487-15.487-15.487s-15.487 6.935-15.487 15.487v121.107c0 6.29 3.804 11.956 9.627 14.336 1.898.774 3.885 1.151 5.858 1.151 4.079 0 8.084-1.612 11.056-4.639l26.326-26.819 26.328 26.82c4.406 4.486 11.089 5.861 16.912 3.486 5.823-2.381 9.627-8.046 9.627-14.336v-121.106c-.002-8.553-6.937-15.487-15.49-15.487z" fill="#64b9fc" data-original="#64b9fc" class=""></path><path d="m376.582 172.744v121.107c0 6.285-3.809 11.95-9.631 14.332-5.823 2.371-12.506.997-16.913-3.483l-.629-.65c2.434-2.77 3.85-6.369 3.85-10.198v-121.108c0-3.914-1.448-7.481-3.83-10.198 2.843-3.252 7.019-5.298 11.667-5.298 8.551-.001 15.486 6.934 15.486 15.496z" fill="#31a7fb" data-original="#31a7fb" class=""></path><path d="m225.88 188.226c8.553 0 15.487-6.935 15.487-15.487s-6.935-15.487-15.487-15.487h-74.757c-8.553 0-15.487 6.935-15.487 15.487v60.268c-.002.097-.029.188-.029.285s.027.188.029.285v60.268c0 8.553 6.935 15.487 15.487 15.487h74.757c8.553 0 15.487-6.935 15.487-15.487s-6.935-15.487-15.487-15.487h-59.269v-29.578h42.823c8.553 0 15.487-6.935 15.487-15.487 0-8.553-6.935-15.487-15.487-15.487h-42.823v-29.579h59.269z" fill="#64b9fc" data-original="#64b9fc" class=""></path><g fill="#31a7fb"><path d="m241.364 172.744c0 8.551-6.935 15.486-15.486 15.486h-23.323c8.561 0 15.496-6.935 15.496-15.486 0-8.561-6.935-15.496-15.496-15.496h23.323c8.551-.001 15.486 6.934 15.486 15.496z" fill="#31a7fb" data-original="#31a7fb" class=""></path><path d="m224.923 233.292c0 8.551-6.935 15.486-15.486 15.486h-23.323c8.551 0 15.486-6.935 15.486-15.486s-6.935-15.486-15.486-15.486h23.323c8.551 0 15.486 6.935 15.486 15.486z" fill="#31a7fb" data-original="#31a7fb" class=""></path><path d="m241.364 293.851c0 8.551-6.935 15.486-15.486 15.486h-23.323c8.561 0 15.496-6.935 15.496-15.486 0-8.561-6.935-15.496-15.496-15.496h23.323c8.551-.001 15.486 6.934 15.486 15.496z" fill="#31a7fb" data-original="#31a7fb" class=""></path></g><path d="m90.244 157.252c-8.553 0-15.487 6.935-15.487 15.487v66.532l-46.09-74.667c-3.637-5.892-10.746-8.654-17.408-6.764-6.661 1.89-11.259 7.973-11.259 14.899v121.107c0 8.553 6.935 15.487 15.487 15.487 8.553 0 15.487-6.935 15.487-15.487v-66.532l46.09 74.667c2.872 4.652 7.909 7.353 13.179 7.353 1.405 0 2.827-.192 4.229-.59 6.661-1.891 11.259-7.974 11.259-14.899v-121.106c.001-8.553-6.934-15.487-15.487-15.487z" fill="#64b9fc" data-original="#64b9fc" class=""></path><path d="m105.736 172.744v121.107c0 6.924-4.606 12.999-11.268 14.898-1.395.399-2.822.588-4.228.588-4.438 0-8.708-1.92-11.656-5.298 2.413-2.759 3.829-6.337 3.829-10.188v-121.107c0-3.914-1.448-7.481-3.829-10.198 2.843-3.252 7.009-5.298 11.656-5.298 8.561-.001 15.496 6.934 15.496 15.496z" fill="#31a7fb" data-original="#31a7fb" class=""></path><path d="m55.109 348.182h-39.622c-8.552 0-15.487 6.935-15.487 15.487v121.107c0 8.553 6.935 15.487 15.487 15.487 8.553 0 15.487-6.935 15.487-15.487v-35.347h24.134c27.914 0 50.623-22.709 50.623-50.624.001-27.914-22.709-50.623-50.622-50.623zm0 70.272h-24.134v-39.298h24.134c10.834 0 19.648 8.814 19.648 19.648 0 10.836-8.815 19.65-19.648 19.65z" fill="#fb4a59" data-original="#fb4a59" class=""></path><path d="m105.736 398.8c0 27.919-22.715 50.633-50.623 50.633h-23.323c27.908 0 50.623-22.715 50.623-50.633 0-27.908-22.715-50.623-50.623-50.623h23.323c27.909 0 50.623 22.715 50.623 50.623z" fill="#f82f40" data-original="#f82f40" class=""></path><path d="m496.513 348.182h-74.757c-8.553 0-15.487 6.935-15.487 15.487 0 8.553 6.935 15.487 15.487 15.487h21.891v105.619c0 8.553 6.933 15.487 15.487 15.487s15.487-6.935 15.487-15.487v-105.618h21.891c8.554 0 15.487-6.935 15.487-15.487.001-8.553-6.932-15.488-15.486-15.488z" fill="#fb4a59" data-original="#fb4a59" class=""></path><path d="m512 363.674c0 8.551-6.935 15.486-15.486 15.486h-20.176c8.551 0 15.486-6.935 15.486-15.486 0-8.561-6.935-15.496-15.486-15.496h20.176c8.551-.001 15.486 6.934 15.486 15.496z" fill="#f82f40" data-original="#f82f40" class=""></path></g></g><g><path d="m491.643 62.946h-34.996v-38.738c0-6.889-5.585-12.475-12.474-12.475h-28.147c-6.889 0-12.475 5.585-12.475 12.475v38.738h-34.995c-6.889 0-12.475 5.585-12.475 12.475v28.147c0 6.889 5.585 12.475 12.475 12.475h34.995v38.738c0 6.889 5.585 12.475 12.475 12.475h28.147c6.889 0 12.474-5.585 12.474-12.475v-38.738h34.996c6.889 0 12.475-5.585 12.475-12.475v-28.148c0-6.889-5.585-12.474-12.475-12.474z" fill="#23f1a8" data-original="#23f1a8" class=""></path><g><path d="m504.122 75.419v28.145c0 6.888-5.589 12.477-12.477 12.477h-28.132c6.888 0 12.477-5.589 12.477-12.477v-28.145c0-6.888-5.59-12.478-12.477-12.478h28.132c6.887.001 12.477 5.59 12.477 12.478z" fill="#26d192" data-original="#26d192" class=""></path></g></g></g></g></svg>