<svg xmlns="http://www.w3.org/2000/svg" version="1.1" xmlns:xlink="http://www.w3.org/1999/xlink" xmlns:svgjs="http://svgjs.com/svgjs" width="512" height="512" x="0" y="0" viewBox="0 0 64 64" style="enable-background:new 0 0 512 512" xml:space="preserve" class=""><g><g id="Icons"><g><g><path d="m46 46c0-4.411 3.589-8 8-8 .692 0 1.359.097 2 .263v-10.263h-48v28h38z" fill="#f0f0f0" data-original="#f0f0f0" class=""></path></g><g><path d="m46.263 44h-14.263v2h14c0-.692.097-1.359.263-2z" fill="#505050" data-original="#505050"></path></g><g><path d="m4 56h42v4h-42z" fill="#3cc8b4" data-original="#3cc8b4"></path></g><g><path d="m56 12h-12v8h-24v-8h-12v12h48z" fill="#fa6450" data-original="#fa6450" class=""></path></g><g><path d="m8 28h4v28h-4z" fill="#d2d2d2" data-original="#d2d2d2" class=""></path></g><g><path d="m4 56h4v4h-4z" fill="#1eaa96" data-original="#1eaa96"></path></g><g><path d="m16 36h12v20h-12z" fill="#64c8f0" data-original="#64c8f0"></path></g><g><path d="m16 34h12v2h-12z" fill="#505050" data-original="#505050"></path></g><g><path d="m16 36h2v20h-2z" fill="#46aad2" data-original="#46aad2"></path></g><g><path d="m16 34h2v2h-2z" fill="#3c3c3c" data-original="#3c3c3c"></path></g><g><path d="m32 34h18v2h-18z" fill="#505050" data-original="#505050"></path></g><g><path d="m32 44h2v2h-2z" fill="#3c3c3c" data-original="#3c3c3c"></path></g><g><path d="m32 34h2v2h-2z" fill="#3c3c3c" data-original="#3c3c3c"></path></g><g><path d="m19 46c-.552 0-1-.448-1-1 0-.552.448-1 1-1 .552 0 1 .448 1 1 0 .552-.448 1-1 1z" fill="#505050" data-original="#505050"></path></g><g><path d="m4 24h56v4h-56z" fill="#d2d2d2" data-original="#d2d2d2" class=""></path></g><g><path d="m22 4h20v14h-20z" fill="#fab400" data-original="#fab400" class=""></path></g><g><path d="m22 4h2v14h-2z" fill="#dc9600" data-original="#dc9600"></path></g><g><path d="m42 4h-2l-8 8-8-8h-2l7 7-7 7h2l6-6 2 2 2-2 6 6h2l-7-7z" fill="#be7800" data-original="#be7800" class=""></path></g><g><path d="m50 39.082v-3.082h-18v8h14.263c.542-2.095 1.909-3.856 3.737-4.918z" fill="#64c8f0" data-original="#64c8f0"></path></g><g><path d="m48 46v14h2v-2h8v2h2v-14c0-3.314-2.686-6-6-6-3.314 0-6 2.686-6 6z" fill="#fa6450" data-original="#fa6450" class=""></path></g><g><path d="m50 46c0-2.972 2.163-5.433 5-5.91-.326-.055-.659-.09-1-.09-3.314 0-6 2.686-6 6v14h2v-2z" fill="#dc4632" data-original="#dc4632"></path></g><g><path d="m58 58h2v2h-2z" fill="#dc4632" data-original="#dc4632"></path></g><g><path d="m50 50h8v6h-8z" fill="#be2814" data-original="#be2814"></path></g><g><path d="m50 46h8v2h-8z" fill="#f0f0f0" data-original="#f0f0f0" class=""></path></g><g><path d="m8 12h4v12h-4z" fill="#dc4632" data-original="#dc4632"></path></g><g><path d="m32 36h2v8h-2z" fill="#46aad2" data-original="#46aad2"></path></g></g></g></g></svg>