<svg height="512pt" viewBox="0 -26 512 512" width="512pt" xmlns="http://www.w3.org/2000/svg"><path d="m494.933594 350.933594v35.421875c0 3.414062-2.765625 6.183593-6.179688 6.183593h-465.507812c-3.414063 0-6.179688-2.769531-6.179688-6.183593v-35.421875zm0 0" fill="#717b99"/><path d="m470.210938 350.933594v35.421875c0 3.414062-2.769532 6.179687-6.183594 6.179687h24.726562c3.414063 0 6.179688-2.765625 6.179688-6.179687v-35.421875zm0 0" fill="#5c647d"/><path d="m85.332031 102.398438h341.332031v86.144531h-341.332031zm0 0" fill="#717b99"/><path d="m68.265625 186.617188v-95.101563c0-3.414063 2.765625-6.183594 6.179687-6.183594h13.238282c3.414062 0 6.183594 2.769531 6.183594 6.183594v95.101563zm0 0" fill="#ffaf10"/><path d="m418.132812 188.539062v-97.023437c0-3.414063 2.765626-6.183594 6.179688-6.183594h13.238281c3.414063 0 6.183594 2.769531 6.183594 6.183594v97.023437zm0 0" fill="#ffaf10"/><path d="m68.265625 111.742188h25.601563v15.453124h-25.601563zm0 0" fill="#ff890a"/><path d="m418.132812 111.742188h25.601563v15.453124h-25.601563zm0 0" fill="#ff890a"/><path d="m494.933594 332.804688v-128.003907c0-18.851562-15.28125-34.132812-34.132813-34.132812h-409.601562c-18.851563 0-34.132813 15.28125-34.132813 34.132812v128zm0 0" fill="#393e4d"/><path d="m460.800781 170.667969h-24.726562c18.851562 0 34.132812 15.28125 34.132812 34.132812v128.003907h24.726563v-128.003907c0-18.851562-15.28125-34.132812-34.132813-34.132812zm0 0" fill="#313542"/><path d="m0 352.222656v-38.839844c0-3.414062 2.765625-6.179687 6.179688-6.179687l499.640624-.003906c3.414063 0 6.179688 2.769531 6.179688 6.183593v38.839844c0 3.414063-2.765625 6.179688-6.179688 6.179688h-499.640624c-3.414063 0-6.179688-2.765625-6.179688-6.179688zm0 0" fill="#ffaf10"/><path d="m505.820312 307.199219h-24.722656c3.410156 0 6.179688 2.769531 6.179688 6.183593v38.839844c0 3.414063-2.769532 6.179688-6.183594 6.179688h24.726562c3.414063 0 6.179688-2.765625 6.179688-6.179688v-38.839844c0-3.414062-2.765625-6.183593-6.179688-6.183593zm0 0" fill="#ff890a"/><path d="m17.066406 229.59375h34.132813c4.269531 0 7.726562-3.457031 7.726562-7.726562 0-4.265626-3.457031-7.722657-7.726562-7.722657h-34.132813zm0 0" fill="#313542"/><path d="m494.933594 214.144531h-34.132813c-4.269531 0-7.726562 3.457031-7.726562 7.722657 0 4.269531 3.457031 7.726562 7.726562 7.726562h34.132813zm0 0" fill="#313542"/><path d="m375.464844 332.800781v121.820313c0 3.414062-2.765625 6.179687-6.179688 6.179687h-226.570312c-3.414063 0-6.183594-2.765625-6.183594-6.179687v-121.820313zm0 0" fill="#c3ddf4"/><path d="m350.742188 332.800781v121.820313c0 3.414062-2.769532 6.179687-6.183594 6.179687h24.726562c3.414063 0 6.179688-2.765625 6.179688-6.179687v-121.820313zm0 0" fill="#9cc2ed"/><path d="m136.53125 196.265625v-190.085937c0-3.414063 2.769531-6.179688 6.183594-6.179688h181.550781l51.199219 51.199219v145.066406zm0 0" fill="#c3ddf4"/><path d="m136.53125 196.265625v-190.085937c0-3.414063 2.769531-6.179688 6.183594-6.179688h181.550781l51.199219 51.199219v145.066406zm0 0" fill="#c3ddf4"/><path d="m350.742188 196.265625h24.722656v-145.070313l-24.722656-24.722656zm0 0" fill="#9cc2ed"/><path d="m179.199219 332.804688v53.546874c0 3.414063 2.765625 6.179688 6.179687 6.179688h32.222656v-59.726562zm0 0" fill="#f26892"/><path d="m217.597656 332.804688h38.402344v59.726562h-38.402344zm0 0" fill="#fe3745"/><path d="m255.996094 332.804688h38.402344v59.726562h-38.402344zm0 0" fill="#69cdff"/><path d="m294.398438 332.804688v59.726562h32.21875c3.414062 0 6.183593-2.765625 6.183593-6.179688v-53.546874zm0 0" fill="#02af8e"/><path d="m102.398438 264.535156c0 9.425782-7.640626 17.066406-17.066407 17.066406s-17.066406-7.640624-17.066406-17.066406c0-9.425781 7.640625-17.066406 17.066406-17.066406s17.066407 7.640625 17.066407 17.066406zm0 0" fill="#ffaf10"/><path d="m443.730469 256.808594h-34.128907c-4.269531 0-7.726562 3.457031-7.726562 7.726562 0 4.269532 3.457031 7.726563 7.726562 7.726563h34.128907c4.269531 0 7.726562-3.457031 7.726562-7.726563 0-4.269531-3.457031-7.726562-7.726562-7.726562zm0 0" fill="#69cdff"/><g fill="#717b99"><path d="m136.53125 248.277344c-4.265625 0-7.726562 3.457031-7.726562 7.726562v17.0625c0 4.269532 3.460937 7.726563 7.726562 7.726563 4.269531 0 7.726562-3.457031 7.726562-7.726563v-17.0625c0-4.269531-3.457031-7.726562-7.726562-7.726562zm0 0"/><path d="m162.132812 248.277344c-4.265624 0-7.726562 3.457031-7.726562 7.726562v17.0625c0 4.269532 3.460938 7.726563 7.726562 7.726563 4.265626 0 7.726563-3.457031 7.726563-7.726563v-17.0625c0-4.269531-3.460937-7.726562-7.726563-7.726562zm0 0"/><path d="m187.734375 248.277344c-4.269531 0-7.726563 3.457031-7.726563 7.726562v17.0625c0 4.269532 3.457032 7.726563 7.726563 7.726563 4.265625 0 7.726563-3.457031 7.726563-7.726563v-17.0625c0-4.269531-3.460938-7.726562-7.726563-7.726562zm0 0"/></g><path d="m392.53125 325.074219h-273.066406c-4.265625 0-7.726563 3.457031-7.726563 7.726562s3.460938 7.726563 7.726563 7.726563h273.066406c4.269531 0 7.726562-3.457032 7.726562-7.726563 0-4.265625-3.457031-7.726562-7.726562-7.726562zm0 0" fill="#ff890a"/><path d="m50.390625 358.398438v-25.597657c0-4.269531-3.457031-7.726562-7.726563-7.726562-4.265624 0-7.722656 3.457031-7.722656 7.726562v25.597657zm0 0" fill="#ff890a"/><path d="m477.058594 358.398438v-25.597657c0-4.269531-3.460938-7.726562-7.726563-7.726562s-7.726562 3.457031-7.726562 7.726562v25.597657zm0 0" fill="#ff890a"/><path d="m332.800781 418.945312h-25.601562c-4.265625 0-7.726563 3.457032-7.726563 7.726563 0 4.265625 3.460938 7.722656 7.726563 7.722656h25.601562c4.265625 0 7.726563-3.457031 7.726563-7.722656 0-4.269531-3.460938-7.726563-7.726563-7.726563zm0 0" fill="#393e4d"/><path d="m392.53125 188.539062h-273.066406c-4.265625 0-7.726563 3.460938-7.726563 7.726563 0 4.269531 3.460938 7.726563 7.726563 7.726563h273.066406c4.269531 0 7.726562-3.457032 7.726562-7.726563 0-4.265625-3.457031-7.726563-7.726562-7.726563zm0 0" fill="#313542"/><path d="m324.265625 0v45.019531c0 3.414063 2.765625 6.179688 6.179687 6.179688h45.019532zm0 0" fill="#e5edf4"/></svg>