<svg id="Capa_1" enable-background="new 0 0 512 512" height="512" viewBox="0 0 512 512" width="512" xmlns="http://www.w3.org/2000/svg"><g><path d="m401.667 504.5h30c34.309 0 63.06-23.729 70.779-55.667l-100.779-30z" fill="#e04b3a"/><g fill="#ff6145"><path d="m472.446 429.5h-392.113v75h321.333c34.309 0 63.06-23.729 70.779-55.667v-19.333z"/><path d="m503.35 418.833-21.395-15 8.605-15c-13.243-18.177-34.682-30-58.893-30h-30l70.779 90h30c1.331-5.507 2.054-11.251 2.054-17.167 0-4.381-.409-8.664-1.15-12.833z"/><path d="m401.667 97.5 88.893-60c-13.243-18.177-34.682-30-58.893-30h-30z"/></g><path d="m401.667 7.5h-321.334v85.667h277.125l103.102-55.667c-13.243-18.177-34.682-30-58.893-30z" fill="#ff7e4f"/><path d="m490.56 37.5h-30l-58.893 115.667h30c40.225 0 72.833-32.609 72.833-72.833 0-16.014-5.181-30.811-13.94-42.834z" fill="#e04b3a"/><path d="m474.5 80.333c0-16.014-5.181-30.811-13.94-42.833h-63.62c-12.74 0-25.061 4.551-34.741 12.833s-22.001 12.833-34.741 12.833h-247.125v90h321.333c40.226.001 72.834-32.608 72.834-72.833z" fill="#ff6145"/><path d="m342.458 93.167h-262.125v30h262.125c8.284 0 15-6.716 15-15 0-8.285-6.715-15-15-15z" fill="#ff9457"/><circle cx="80.333" cy="80.333" fill="#fff7e8" r="72.833"/><path d="m80.333 37.5v85.667c23.656 0 42.833-19.177 42.833-42.833.001-23.657-19.176-42.834-42.833-42.834z" fill="#ffe75e"/><path d="m93.167 80.333c0-23.656-5.746-42.833-12.834-42.833-23.656 0-42.833 19.177-42.833 42.833s19.177 42.833 42.833 42.833c7.088.001 12.834-19.176 12.834-42.833z" fill="#fff1a0"/><path d="m431.667 183.167h-30v60l88.893-30c-13.243-18.177-34.682-30-58.893-30z" fill="#ff6145"/><path d="m401.667 183.167h-321.334v85.667h380.227v-55.667c-13.243-18.177-34.682-30-58.893-30z" fill="#ff7e4f"/><path d="m504.5 256c0-16.014-5.181-30.811-13.94-42.833h-30l-58.893 115.667h30c29.526 0 54.929-17.579 66.364-42.833l-11.765-11.765z" fill="#e04b3a"/><path d="m468.03 286h-182.39c-8.284 0-15-6.716-15-15s6.716-15 15-15h188.86c0-16.014-5.181-30.811-13.94-42.833h-175.406c-12.74 0-25.06 4.551-34.741 12.833-9.68 8.282-22.001 12.833-34.741 12.833h-135.339v90h321.333c29.526 0 54.93-17.579 66.364-42.833z" fill="#ff6145"/><path d="m474.5 256-6.469 30h30c4.144-9.151 6.47-19.301 6.47-30z" fill="#ff6145"/><path d="m270.641 271c0 8.284 6.716 15 15 15h182.39c4.144-9.151 6.469-19.301 6.469-30h-188.86c-8.284 0-14.999 6.716-14.999 15z" fill="#ff7e4f"/><circle cx="80.333" cy="256" fill="#fff7e8" r="72.833"/><path d="m80.333 213.166v85.667c23.656 0 42.833-19.177 42.833-42.833.001-23.656-19.176-42.834-42.833-42.834z" fill="#ffe75e"/><path d="m93.167 256c0-23.656-5.746-42.833-12.834-42.833-23.656-.001-42.833 19.177-42.833 42.833s19.177 42.833 42.833 42.833c7.088 0 12.834-19.177 12.834-42.833z" fill="#fff1a0"/><path d="m473.35 418.833h30c-1.969-11.067-6.427-21.267-12.79-30h-30z" fill="#e04b3a"/><path d="m195 388.833c-8.284 0-15 6.716-15 15s6.716 15 15 15h278.35c-1.969-11.067-6.427-21.267-12.79-30z" fill="#ff6145"/><path d="m267.614 461.667c9.68-8.282 22.001-12.833 34.74-12.833h170.091c1.331-5.507 2.054-11.251 2.054-17.167 0-4.381-.409-8.665-1.15-12.833h-278.349c-8.284 0-15-6.716-15-15s6.716-15 15-15h265.56c-13.243-18.177-34.682-30-58.893-30h-321.334v115.666h152.54c12.74 0 25.061-4.551 34.741-12.833z" fill="#ff7e4f"/><circle cx="80.333" cy="431.667" fill="#fff7e8" r="72.833"/><path d="m80.333 388.833v85.667c23.656 0 42.833-19.177 42.833-42.833.001-23.657-19.176-42.834-42.833-42.834z" fill="#ffe75e"/><path d="m93.167 431.667c0-23.656-5.746-42.833-12.834-42.833-23.656 0-42.833 19.177-42.833 42.833s19.177 42.833 42.833 42.833c7.088 0 12.834-19.177 12.834-42.833z" fill="#fff1a0"/><path d="m80.333 160.667h351.334c44.296 0 80.333-36.037 80.333-80.333s-36.037-80.334-80.333-80.334h-351.334c-44.296 0-80.333 36.038-80.333 80.333s36.037 80.334 80.333 80.334zm351.334-15h-304.677c5.951-4.262 11.3-9.309 15.889-15h199.579c12.406 0 22.5-10.093 22.5-22.5s-10.094-22.5-22.5-22.5h-181.988c.116-1.765.197-3.539.197-5.333 0-3.273-.22-6.495-.602-9.667h167.393c14.517 0 28.586-5.197 39.617-14.634 8.316-7.115 18.922-11.033 29.864-11.033h89.638c6.584 10.195 10.423 22.321 10.423 35.333 0 36.025-29.309 65.334-65.333 65.334zm-273.613-45h184.404c4.136 0 7.5 3.364 7.5 7.5s-3.364 7.5-7.5 7.5h-190c2.34-4.757 4.227-9.774 5.596-15zm273.613-85.667c15.795 0 30.297 5.636 41.606 15h-76.333c-14.516 0-28.585 5.197-39.616 14.634-8.315 7.114-18.922 11.032-29.865 11.032h-170.683c-5.351-16.543-15.932-30.744-29.786-40.666zm-351.334 0c36.025 0 65.334 29.309 65.334 65.333s-29.309 65.333-65.334 65.333c-36.024.001-65.333-29.308-65.333-65.333s29.309-65.333 65.333-65.333z"/><path d="m80.333 130.667c27.754 0 50.334-22.58 50.334-50.333s-22.58-50.334-50.334-50.334-50.333 22.58-50.333 50.333 22.579 50.334 50.333 50.334zm0-85.667c19.483 0 35.334 15.851 35.334 35.333s-15.851 35.333-35.334 35.333c-19.482.001-35.333-15.85-35.333-35.333s15.851-35.333 35.333-35.333z"/><path d="m431.667 175.667h-351.334c-44.296 0-80.333 36.037-80.333 80.333s36.037 80.333 80.333 80.333h351.334c44.296 0 80.333-36.037 80.333-80.333s-36.037-80.333-80.333-80.333zm-416.667 80.333c0-36.025 29.309-65.333 65.333-65.333 36.025 0 65.334 29.309 65.334 65.333s-29.309 65.333-65.334 65.333c-36.024 0-65.333-29.308-65.333-65.333zm416.667 65.333h-304.677c20.367-14.587 33.677-38.427 33.677-65.333 0-3.273-.22-6.495-.602-9.667h55.608c14.516 0 28.585-5.197 39.616-14.635 8.315-7.114 18.922-11.032 29.864-11.032h94.431c4.143 0 7.5-3.358 7.5-7.5s-3.357-7.5-7.5-7.5h-94.431c-14.516 0-28.585 5.197-39.616 14.635-8.315 7.114-18.922 11.032-29.864 11.032h-58.896c-5.352-16.544-15.933-30.745-29.787-40.667h304.677c15.795 0 30.297 5.636 41.606 15h-63.689c-4.143 0-7.5 3.358-7.5 7.5s3.357 7.5 7.5 7.5h76.993c5.3 8.207 8.811 17.666 9.979 27.833h-210.915c-12.406 0-22.5 10.093-22.5 22.5s10.094 22.5 22.5 22.5h199.477c-11.833 16.816-31.374 27.834-53.451 27.834zm64.889-57.833c-.598 5.208-1.797 10.235-3.551 15h-207.364c-4.136 0-7.5-3.364-7.5-7.5s3.364-7.5 7.5-7.5z"/><path d="m80.333 205.667c-27.754 0-50.333 22.579-50.333 50.333s22.579 50.333 50.333 50.333 50.334-22.58 50.334-50.333-22.58-50.333-50.334-50.333zm0 85.666c-19.482 0-35.333-15.85-35.333-35.333s15.851-35.333 35.333-35.333c19.483 0 35.334 15.851 35.334 35.333s-15.851 35.333-35.334 35.333z"/><path d="m431.667 351.333h-351.334c-44.296 0-80.333 36.038-80.333 80.334s36.037 80.333 80.333 80.333h351.334c44.296 0 80.333-36.038 80.333-80.333s-36.037-80.334-80.333-80.334zm54.911 45c2.992 4.634 5.414 9.664 7.166 15h-298.744c-4.136 0-7.5-3.364-7.5-7.5s3.364-7.5 7.5-7.5zm-54.911-30c15.795 0 30.297 5.636 41.606 15h-278.273c-12.406 0-22.5 10.093-22.5 22.5s10.094 22.5 22.5 22.5h301.764c.143 1.761.236 3.536.236 5.333 0 3.284-.25 6.511-.72 9.667h-193.926c-14.517 0-28.586 5.197-39.616 14.634-8.315 7.115-18.922 11.033-29.865 11.033h-80.415c5.249-10.67 8.209-22.661 8.209-35.333 0-26.906-13.31-50.747-33.677-65.333h304.677zm-416.667 65.334c0-36.025 29.309-65.333 65.333-65.333 36.025 0 65.334 29.308 65.334 65.333s-29.309 65.333-65.334 65.333c-36.024 0-65.333-29.309-65.333-65.333zm416.667 65.333h-304.677c5.951-4.262 11.3-9.309 15.889-15h89.994c14.517 0 28.586-5.197 39.617-14.635 8.314-7.114 18.921-11.032 29.864-11.032h189.796c-9.755 23.83-33.184 40.667-60.483 40.667z"/><path d="m80.333 381.333c-27.754 0-50.333 22.58-50.333 50.333s22.579 50.334 50.333 50.334 50.334-22.58 50.334-50.333-22.58-50.334-50.334-50.334zm0 85.667c-19.482 0-35.333-15.851-35.333-35.333s15.851-35.333 35.333-35.333c19.483 0 35.334 15.851 35.334 35.333s-15.851 35.333-35.334 35.333z"/><path d="m80.333 160.667h351.334c44.296 0 80.333-36.037 80.333-80.333s-36.037-80.334-80.333-80.334h-351.334c-44.296 0-80.333 36.038-80.333 80.333s36.037 80.334 80.333 80.334zm351.334-15h-304.677c5.951-4.262 11.3-9.309 15.889-15h199.579c12.406 0 22.5-10.093 22.5-22.5s-10.094-22.5-22.5-22.5h-181.988c.116-1.765.197-3.539.197-5.333 0-3.273-.22-6.495-.602-9.667h167.393c14.517 0 28.586-5.197 39.617-14.634 8.316-7.115 18.922-11.033 29.864-11.033h89.638c6.584 10.195 10.423 22.321 10.423 35.333 0 36.025-29.309 65.334-65.333 65.334zm-273.613-45h184.404c4.136 0 7.5 3.364 7.5 7.5s-3.364 7.5-7.5 7.5h-190c2.34-4.757 4.227-9.774 5.596-15zm273.613-85.667c15.795 0 30.297 5.636 41.606 15h-76.333c-14.516 0-28.585 5.197-39.616 14.634-8.315 7.114-18.922 11.032-29.865 11.032h-170.683c-5.351-16.543-15.932-30.744-29.786-40.666zm-351.334 0c36.025 0 65.334 29.309 65.334 65.333s-29.309 65.333-65.334 65.333c-36.024.001-65.333-29.308-65.333-65.333s29.309-65.333 65.333-65.333z"/><path d="m80.333 130.667c27.754 0 50.334-22.58 50.334-50.333s-22.58-50.334-50.334-50.334-50.333 22.58-50.333 50.333 22.579 50.334 50.333 50.334zm0-85.667c19.483 0 35.334 15.851 35.334 35.333s-15.851 35.333-35.334 35.333c-19.482.001-35.333-15.85-35.333-35.333s15.851-35.333 35.333-35.333z"/><path d="m431.667 175.667h-351.334c-44.296 0-80.333 36.037-80.333 80.333s36.037 80.333 80.333 80.333h351.334c44.296 0 80.333-36.037 80.333-80.333s-36.037-80.333-80.333-80.333zm-416.667 80.333c0-36.025 29.309-65.333 65.333-65.333 36.025 0 65.334 29.309 65.334 65.333s-29.309 65.333-65.334 65.333c-36.024 0-65.333-29.308-65.333-65.333zm416.667 65.333h-304.677c20.367-14.587 33.677-38.427 33.677-65.333 0-3.273-.22-6.495-.602-9.667h55.608c14.516 0 28.585-5.197 39.616-14.635 8.315-7.114 18.922-11.032 29.864-11.032h94.431c4.143 0 7.5-3.358 7.5-7.5s-3.357-7.5-7.5-7.5h-94.431c-14.516 0-28.585 5.197-39.616 14.635-8.315 7.114-18.922 11.032-29.864 11.032h-58.896c-5.352-16.544-15.933-30.745-29.787-40.667h304.677c15.795 0 30.297 5.636 41.606 15h-63.689c-4.143 0-7.5 3.358-7.5 7.5s3.357 7.5 7.5 7.5h76.993c5.3 8.207 8.811 17.666 9.979 27.833h-210.915c-12.406 0-22.5 10.093-22.5 22.5s10.094 22.5 22.5 22.5h199.477c-11.833 16.816-31.374 27.834-53.451 27.834zm64.889-57.833c-.598 5.208-1.797 10.235-3.551 15h-207.364c-4.136 0-7.5-3.364-7.5-7.5s3.364-7.5 7.5-7.5z"/><path d="m80.333 205.667c-27.754 0-50.333 22.579-50.333 50.333s22.579 50.333 50.333 50.333 50.334-22.58 50.334-50.333-22.58-50.333-50.334-50.333zm0 85.666c-19.482 0-35.333-15.85-35.333-35.333s15.851-35.333 35.333-35.333c19.483 0 35.334 15.851 35.334 35.333s-15.851 35.333-35.334 35.333z"/><path d="m431.667 351.333h-351.334c-44.296 0-80.333 36.038-80.333 80.334s36.037 80.333 80.333 80.333h351.334c44.296 0 80.333-36.038 80.333-80.333s-36.037-80.334-80.333-80.334zm54.911 45c2.992 4.634 5.414 9.664 7.166 15h-298.744c-4.136 0-7.5-3.364-7.5-7.5s3.364-7.5 7.5-7.5zm-54.911-30c15.795 0 30.297 5.636 41.606 15h-278.273c-12.406 0-22.5 10.093-22.5 22.5s10.094 22.5 22.5 22.5h301.764c.143 1.761.236 3.536.236 5.333 0 3.284-.25 6.511-.72 9.667h-193.926c-14.517 0-28.586 5.197-39.616 14.634-8.315 7.115-18.922 11.033-29.865 11.033h-80.415c5.249-10.67 8.209-22.661 8.209-35.333 0-26.906-13.31-50.747-33.677-65.333h304.677zm-416.667 65.334c0-36.025 29.309-65.333 65.333-65.333 36.025 0 65.334 29.308 65.334 65.333s-29.309 65.333-65.334 65.333c-36.024 0-65.333-29.309-65.333-65.333zm416.667 65.333h-304.677c5.951-4.262 11.3-9.309 15.889-15h89.994c14.517 0 28.586-5.197 39.617-14.635 8.314-7.114 18.921-11.032 29.864-11.032h189.796c-9.755 23.83-33.184 40.667-60.483 40.667z"/><path d="m80.333 381.333c-27.754 0-50.333 22.58-50.333 50.333s22.579 50.334 50.333 50.334 50.334-22.58 50.334-50.333-22.58-50.334-50.334-50.334zm0 85.667c-19.482 0-35.333-15.851-35.333-35.333s15.851-35.333 35.333-35.333c19.483 0 35.334 15.851 35.334 35.333s-15.851 35.333-35.334 35.333z"/></g></svg>