<svg xmlns="http://www.w3.org/2000/svg" version="1.1" xmlns:xlink="http://www.w3.org/1999/xlink" xmlns:svgjs="http://svgjs.com/svgjs" width="512" height="512" x="0" y="0" viewBox="0 0 58 52" style="enable-background:new 0 0 512 512" xml:space="preserve" class=""><g><g id="Page-1" fill="none" fill-rule="evenodd"><g id="051---Report-Button"><path id="Path" d="m36.02 22h10.98c6.0751322 0 11-4.9248678 11-11 0-6.07513225-4.9248678-11-11-11h-36c-6.07513225 0-11 4.92486775-11 11 0 6.0751322 4.92486775 11 11 11z" fill="#e64c3c" data-original="#e64c3c" class=""></path><path id="Path" d="m54.6 48.292-2.314 1.752-2.312 1.756c-.4449099.3342352-1.0765006.2447113-1.411-.2l-9.309-12.292-4.977 6.2c-.193027.2379879-.5071411.3415061-.803841.2649107-.2966998-.0765955-.5214527-.3192266-.575159-.6209107l-4.351-24.975c-.0628896-.3707481.0860346-.7456478.3861871-.972182.3001525-.2265341.7015182-.2669548 1.0408129-.104818l22.856 10.953c.2766563.1328165.4500539.4151764.4433746.7219895-.0066792.3068132-.1922004.5813596-.4743746.7020105l-7.313 3.111 9.314 12.293c.3342352.4449099.2447113 1.0765006-.2 1.411z" fill="#3b97d3" data-original="#3b97d3" class=""></path><g fill="#fff"><path id="Path" d="m53 6h-6c-.5522847 0-1 .44771525-1 1s.4477153 1 1 1h2v7c0 .5522847.4477153 1 1 1s1-.4477153 1-1v-7h2c.5522847 0 1-.44771525 1-1s-.4477153-1-1-1z" fill="#ffffff" data-original="#ffffff"></path><path id="Shape" d="m12 9c0-1.65685425-1.3431458-3-3-3h-3c-.55228475 0-1 .44771525-1 1v8c0 .5522847.44771525 1 1 1s1-.4477153 1-1v-3h1.382l1.723 3.447c.2468713.4942948.8477051.6948713 1.342.448.4942948-.2468713.6948713-.8477052.448-1.342l-1.466-2.932c.9644325-.5197345 1.5672451-1.5254454 1.571-2.621zm-5-1h2c.55228475 0 1 .44771525 1 1s-.44771525 1-1 1h-2z" fill-rule="nonzero" fill="#ffffff" data-original="#ffffff"></path><path id="Shape" d="m25 6h-3c-.5522847 0-1 .44771525-1 1v8c0 .5522847.4477153 1 1 1s1-.4477153 1-1v-3h2c1.6568542 0 2.9999999-1.3431458 2.9999999-3 0-1.65685422-1.3431457-2.99999997-2.9999999-3zm0 4h-2v-2h2c.5522847 0 1 .44771525 1 1s-.4477153 1-1 1z" fill-rule="nonzero" fill="#ffffff" data-original="#ffffff"></path><path id="Path" d="m18 8c.5522847 0 1-.44771525 1-1s-.4477153-1-1-1h-4c-.5522847 0-1 .44771525-1 1v8c0 .5522847.4477153 1 1 1h4c.5522847 0 1-.4477153 1-1s-.4477153-1-1-1h-3v-2h3c.5522847 0 1-.4477153 1-1s-.4477153-1-1-1h-3v-2z" fill="#ffffff" data-original="#ffffff"></path><path id="Shape" d="m33 6c-2.206 0-4 2.243-4 5s1.794 5 4 5 4-2.243 4-5-1.794-5-4-5zm0 8c-1.084 0-2-1.374-2-3s.916-3 2-3 2 1.374 2 3-.916 3-2 3z" fill-rule="nonzero" fill="#ffffff" data-original="#ffffff"></path><path id="Shape" d="m45 9c0-1.65685425-1.3431458-3-3-3h-3c-.5522847 0-1 .44771525-1 1v8c0 .5522847.4477153 1 1 1s1-.4477153 1-1v-3h1.382l1.723 3.447c.1596977.3197527.4778505.5300187.8346134.5515928.3567628.021574.6979349-.1488214.895-.4470001.1970651-.2981786.2200843-.67884.0603866-.9985927l-1.466-2.932c.9644325-.5197345 1.5672451-1.5254454 1.571-2.621zm-5-1h2c.5522847 0 1 .44771525 1 1s-.4477153 1-1 1h-2z" fill-rule="nonzero" fill="#ffffff" data-original="#ffffff"></path></g></g></g></g></svg>