<svg xmlns="http://www.w3.org/2000/svg" version="1.1" xmlns:xlink="http://www.w3.org/1999/xlink" xmlns:svgjs="http://svgjs.com/svgjs" width="512" height="512" x="0" y="0" viewBox="0 0 512 512" style="enable-background:new 0 0 512 512" xml:space="preserve" class=""><g><g id="_30.Category" data-name="30.Category"><path d="m13.5 504.472a5 5 0 0 1 -3.532-8.539l84.375-84.209a5 5 0 1 1 7.064 7.078l-84.375 84.209a4.985 4.985 0 0 1 -3.532 1.461z" fill="#3aa1d9" data-original="#3aa1d9"></path><ellipse cx="165.245" cy="347.307" fill="#a1daf9" rx="95.625" ry="95.023" data-original="#a1daf9"></ellipse><path d="m258.882 7.528h1.988a0 0 0 0 1 0 0v200.124a0 0 0 0 1 0 0h-201.241a0 0 0 0 1 0 0v-.871a199.253 199.253 0 0 1 199.253-199.253z" fill="#f8b117" data-original="#f8b117" class=""></path><path d="m502.071 6.97h.871a0 0 0 0 1 0 0v201.24a0 0 0 0 1 0 0h-200.124a0 0 0 0 1 0 0v-1.988a199.253 199.253 0 0 1 199.253-199.252z" fill="#fb530a" transform="matrix(0 1 -1 0 510.47 -295.29)" data-original="#fb530a"></path><path d="m302.26 252.284h201.24a0 0 0 0 1 0 0v.871a199.253 199.253 0 0 1 -199.253 199.253h-1.987a0 0 0 0 1 0 0v-200.124a0 0 0 0 1 0 0z" fill="#f8830e" data-original="#f8830e"></path></g></g></svg>