<svg height="464pt" viewBox="0 0 464 464" width="464pt" xmlns="http://www.w3.org/2000/svg"><path d="m32 32h400v240h-400zm0 0" fill="#f1f2f2"/><path d="m432 0h-400c-17.671875 0-32 14.328125-32 32v272h464v-272c0-17.671875-14.328125-32-32-32zm0 272h-400v-240h400zm0 0" fill="#57a4ff"/><path d="m0 352c0 8.835938 7.164062 16 16 16h432c8.835938 0 16-7.164062 16-16v-48h-464zm0 0" fill="#898890"/><path d="m312 432h-40v-64h-80v64h-40c-8.835938 0-16 7.164062-16 16s7.164062 16 16 16h160c8.835938 0 16-7.164062 16-16s-7.164062-16-16-16zm0 0" fill="#57565c"/><path d="m182.71875 178.640625v.078125l-24.238281 24.160156 22.640625 22.640625 24.238281-24.238281c3.386719 1.824219 6.953125 3.300781 10.640625 4.398438v34.320312h32v-34.320312c3.6875-1.097657 7.253906-2.574219 10.640625-4.398438l24.238281 24.238281 22.640625-22.640625-24.238281-24.160156v-.078125c1.824219-3.386719 3.300781-6.953125 4.398438-10.640625h34.320312v-32h-34.320312c-1.097657-3.6875-2.574219-7.253906-4.398438-10.640625l24.238281-24.238281-22.640625-22.640625-24.160156 24.238281h-.078125c-3.386719-1.824219-6.953125-3.300781-10.640625-4.398438v-34.320312h-32v34.320312c-3.6875 1.097657-7.253906 2.574219-10.640625 4.398438h-.078125l-24.160156-24.238281-22.640625 22.640625 24.238281 24.238281c-1.824219 3.386719-3.300781 6.953125-4.398438 10.640625h-34.320312v32h34.320312c1.097657 3.6875 2.574219 7.253906 4.398438 10.640625zm49.28125-50.640625c13.253906 0 24 10.746094 24 24s-10.746094 24-24 24-24-10.746094-24-24 10.746094-24 24-24zm0 0" fill="#ff6243"/></svg>