<svg id="Layer_2" enable-background="new 0 0 512 512" height="512" viewBox="0 0 512 512" width="512" xmlns="http://www.w3.org/2000/svg"><g><g><path d="m42 56h368v446h-368z" fill="#edeff1"/><g><path d="m262 46c0-19.851-16.149-36-36-36s-36 16.149-36 36h-64v42h200v-42z" fill="#6e83b7"/><circle cx="226" cy="46" fill="#466089" r="17.5"/></g><g><g fill="#d3d3d3"><path d="m196 449h160v14h-160z"/><path d="m196 403h160v14h-160z"/><path d="m196 357h160v14h-160z"/><path d="m196 311h160v14h-160z"/><path d="m196 265h160v14h-160z"/><path d="m196 219h160v14h-160z"/><path d="m196 173h160v14h-160z"/><path d="m196 127h160v14h-160z"/></g><g><g><path d="m96 304.333h70v70h-70z" fill="#80d6fb"/><path d="m123.5 361.405-18.535-18.536 7.07-7.071 11.465 11.464 26.465-26.464 7.07 7.071z" fill="#6e83b7"/></g><g><path d="m96 393h70v70h-70z" fill="#80d6fb"/><path d="m123.5 450.071-18.535-18.535 7.07-7.072 11.465 11.465 26.465-26.465 7.07 7.072z" fill="#6e83b7"/></g></g></g></g><g><path d="m166 217v70l-35-26.25-35 26.25v-70z" fill="#ffb0aa"/><circle cx="131" cy="187" fill="#ffe352" r="60"/><path d="m131 151.335 11.588 23.481 25.912 3.765-18.75 18.276 4.426 25.808-23.176-12.185-23.176 12.185 4.426-25.808-18.75-18.276 25.912-3.765z" fill="#6e83b7"/></g><g><circle cx="410" cy="196" fill="#ffe352" r="60"/><circle cx="410" cy="196" fill="#ffb236" r="54"/><circle cx="410" cy="196" fill="#ffe352" r="48"/><path d="m410 190c-4.411 0-8-3.589-8-8s3.589-8 8-8 8 3.589 8 8h12c0-8.938-5.895-16.523-14-19.078v-7.722h-12v7.722c-8.105 2.555-14 10.14-14 19.078 0 11.028 8.972 20 20 20 4.411 0 8 3.589 8 8s-3.589 8-8 8-8-3.589-8-8h-12c0 8.938 5.895 16.523 14 19.078v7.722h12v-7.722c8.105-2.555 14-10.14 14-19.078 0-11.028-8.972-20-20-20z" fill="#6e83b7"/></g><g><g><path d="m494.5 502h-169c-4.142 0-7.5-3.358-7.5-7.5v-231c0-4.142 3.358-7.5 7.5-7.5h169c4.142 0 7.5 3.358 7.5 7.5v231c0 4.142-3.358 7.5-7.5 7.5z" fill="#6e83b7"/><path d="m318 315.5h184v5h-184z" fill="#466089"/><path d="m394 212h32v150h-32z" fill="#80d6fb" transform="matrix(0 1 -1 0 697 -123)"/><path d="m407.5 225.5h5v150h-5z" fill="#46bee8" transform="matrix(0 1 -1 0 710.5 -109.5)"/></g><g fill="#edeff1"><path d="m402 405h-64c-1.657 0-3-1.343-3-3v-64c0-1.657 1.343-3 3-3h64c1.657 0 3 1.343 3 3v64c0 1.657-1.343 3-3 3z"/><path d="m482 405h-64c-1.657 0-3-1.343-3-3v-64c0-1.657 1.343-3 3-3h64c1.657 0 3 1.343 3 3v64c0 1.657-1.343 3-3 3z"/><path d="m402 485h-64c-1.657 0-3-1.343-3-3v-64c0-1.657 1.343-3 3-3h64c1.657 0 3 1.343 3 3v64c0 1.657-1.343 3-3 3z"/><path d="m482 485h-64c-1.657 0-3-1.343-3-3v-64c0-1.657 1.343-3 3-3h64c1.657 0 3 1.343 3 3v64c0 1.657-1.343 3-3 3z"/></g><g fill="#6e83b7"><path d="m391.5 365h-16.5v-16.5h-10v16.5h-16.5v10h16.5v16.5h10v-16.5h16.5z"/><path d="m389.285 437.786-7.07-7.072-12.215 12.215-12.215-12.215-7.07 7.072 12.214 12.214-12.214 12.214 7.07 7.072 12.215-12.215 12.215 12.215 7.07-7.072-12.214-12.214z"/><path d="m428.5 365h43v10h-43z"/><g><circle cx="450" cy="433.191" r="5.864"/><circle cx="450" cy="466.809" r="5.864"/><path d="m428.5 445h43v10h-43z"/></g></g></g></g></svg>