<?xml version="1.0" encoding="iso-8859-1"?>
<!-- Generator: Adobe Illustrator 19.0.0, SVG Export Plug-In . SVG Version: 6.00 Build 0)  -->
<svg version="1.1" id="Capa_1" xmlns="http://www.w3.org/2000/svg" xmlns:xlink="http://www.w3.org/1999/xlink" x="0px" y="0px"
	 viewBox="0 0 512 512" style="enable-background:new 0 0 512 512;" xml:space="preserve">
<path style="fill:#75E0F1;" d="M437.02,74.98C388.667,26.629,324.38,0,256,0S123.333,26.629,74.98,74.98
	C26.629,123.333,0,187.62,0,256s26.629,132.667,74.98,181.02C123.333,485.371,187.62,512,256,512s132.667-26.629,181.02-74.98
	C485.371,388.667,512,324.38,512,256S485.371,123.333,437.02,74.98z"/>
<path style="fill:#53D9ED;" d="M414.392,97.608C372.084,55.3,315.832,32,256,32S139.916,55.3,97.608,97.608S32,196.168,32,256
	s23.3,116.084,65.608,158.392S196.168,480,256,480s116.084-23.3,158.392-65.608S480,315.832,480,256S456.7,139.916,414.392,97.608z"
	/>
<path style="fill:#FDC572;" d="M256,48C141.309,48,48,141.309,48,256s93.309,208,208,208s208-93.309,208-208S370.691,48,256,48z"/>
<path style="fill:#F6F5F5;" d="M256,96c-88.225,0-160,71.775-160,160s71.775,160,160,160s160-71.775,160-160S344.225,96,256,96z"/>
<path style="fill:#DE5762;" d="M256,136c-66.168,0-120,53.832-120,120s53.832,120,120,120s120-53.832,120-120S322.168,136,256,136z"
	/>
<path style="fill:#EE6482;" d="M256,160c-52.934,0-96,43.066-96,96s43.066,96,96,96s96-43.066,96-96S308.934,160,256,160z"/>
<g>
	<path style="fill:#DDD8D5;" d="M504,48.5h-16.5V32c0-4.143-3.357-7.5-7.5-7.5s-7.5,3.357-7.5,7.5v20.893L322.696,202.696
		c-2.73,2.731-2.912,7.241-0.398,10.177c2.804,3.276,7.955,3.479,11.006,0.431L483.107,63.5H504c4.143,0,7.5-3.357,7.5-7.5
		S508.143,48.5,504,48.5z"/>
	<path style="fill:#DDD8D5;" d="M205.304,194.696L39.5,28.893V8c0-4.143-3.357-7.5-7.5-7.5S24.5,3.857,24.5,8v16.5H8
		c-4.143,0-7.5,3.357-7.5,7.5s3.357,7.5,7.5,7.5h20.893l165.804,165.804c3.051,3.049,8.201,2.846,11.006-0.431
		C208.215,201.937,208.034,197.427,205.304,194.696z"/>
	<path style="fill:#DDD8D5;" d="M205.304,274.696c-2.93-2.928-7.678-2.928-10.607,0L28.893,440.5H8c-4.143,0-7.5,3.357-7.5,7.5
		s3.357,7.5,7.5,7.5h16.5V472c0,4.143,3.357,7.5,7.5,7.5s7.5-3.357,7.5-7.5v-20.893l165.804-165.804
		C208.232,282.374,208.232,277.626,205.304,274.696z"/>
</g>
<path style="fill:#FFFFFF;" d="M256,248.5h-8c-9.098,0-16.5-7.402-16.5-16.5s7.402-16.5,16.5-16.5h32c4.143,0,7.5-3.357,7.5-7.5
	s-3.357-7.5-7.5-7.5h-16.5V192c0-4.143-3.357-7.5-7.5-7.5s-7.5,3.357-7.5,7.5v8.5H248c-17.369,0-31.5,14.131-31.5,31.5
	s14.131,31.5,31.5,31.5h8c9.098,0,16.5,7.402,16.5,16.5s-7.402,16.5-16.5,16.5h-32c-4.143,0-7.5,3.357-7.5,7.5s3.357,7.5,7.5,7.5
	h24.5v8.5c0,4.143,3.357,7.5,7.5,7.5s7.5-3.357,7.5-7.5v-9.409c13.759-3.375,24-15.806,24-30.591
	C287.5,262.631,273.369,248.5,256,248.5z"/>
<g>
</g>
<g>
</g>
<g>
</g>
<g>
</g>
<g>
</g>
<g>
</g>
<g>
</g>
<g>
</g>
<g>
</g>
<g>
</g>
<g>
</g>
<g>
</g>
<g>
</g>
<g>
</g>
<g>
</g>
</svg>
