<?xml version="1.0" standalone="no"?>
<!DOCTYPE svg PUBLIC "-//W3C//DTD SVG 20010904//EN"
 "http://www.w3.org/TR/2001/REC-SVG-20010904/DTD/svg10.dtd">
<svg version="1.0" xmlns="http://www.w3.org/2000/svg"
 width="1000.000000pt" height="990.000000pt" viewBox="0 0 1000.000000 990.000000"
 preserveAspectRatio="xMidYMid meet">

<g transform="translate(0.000000,990.000000) scale(0.100000,-0.100000)"
fill="#000000" stroke="none">
<path d="M3584 8921 c-41 -25 -76 -72 -110 -145 l-27 -58 5 -224 c2 -123 7
-227 11 -230 4 -4 561 -85 1239 -180 1648 -232 1618 -228 1623 -222 3 2 0 49
-5 104 -21 220 -9 473 31 662 11 52 19 95 17 97 -3 3 -2705 215 -2738 215 -8
0 -29 -9 -46 -19z"/>
<path d="M6430 8683 c-36 -131 -45 -221 -45 -473 0 -276 8 -382 32 -405 20
-21 60 -19 73 4 14 27 15 635 1 731 -16 107 -33 180 -42 180 -4 0 -13 -17 -19
-37z"/>
<path d="M2810 7173 c-344 -560 -660 -1074 -703 -1142 -43 -68 -76 -125 -74
-127 1 -2 77 -21 167 -43 91 -22 440 -107 775 -190 1485 -365 2008 -492 2010
-489 2 2 216 383 477 848 261 465 582 1035 713 1268 l237 423 -38 34 c-22 19
-44 34 -50 35 -6 0 -651 90 -1435 200 -783 110 -1431 200 -1439 200 -10 0
-245 -374 -640 -1017z m1221 365 c63 -30 156 -72 207 -93 62 -26 110 -53 142
-82 177 -159 151 -506 -55 -756 -122 -148 -306 -233 -448 -207 -77 14 -448
201 -499 252 -92 92 -128 249 -93 410 30 145 95 265 200 372 113 114 233 168
361 162 62 -2 85 -10 185 -58z"/>
<path d="M3739 7520 c-167 -50 -334 -245 -385 -450 -22 -89 -15 -217 16 -288
28 -64 96 -128 154 -143 121 -33 254 17 375 139 134 135 197 290 189 467 -7
134 -57 223 -153 266 -42 20 -147 24 -196 9z"/>
<path d="M4125 7404 c25 -60 37 -144 32 -224 -17 -261 -197 -510 -429 -595
l-63 -23 95 -46 c117 -57 168 -65 256 -41 177 48 346 240 400 455 24 97 15
231 -20 304 -41 84 -74 106 -270 185 -5 2 -6 -4 -1 -15z"/>
<path d="M6504 7731 c-12 -10 -49 -68 -82 -128 l-61 -109 -8 -378 c-5 -250 -5
-380 2 -385 16 -12 1547 -713 1550 -709 1 2 -158 206 -354 453 -196 248 -502
635 -680 860 -178 226 -329 411 -335 413 -6 1 -21 -6 -32 -17z"/>
<path d="M5860 6603 c-454 -809 -508 -907 -488 -882 7 8 214 238 459 510 l446
494 8 318 c4 174 5 317 3 317 -1 0 -194 -341 -428 -757z"/>
<path d="M5760 6053 c-538 -598 -557 -620 -623 -736 -37 -66 -66 -121 -65
-122 6 -4 2858 730 2858 735 0 3 -33 19 -73 37 -39 18 -396 181 -792 364 -396
182 -727 333 -735 335 -10 3 -209 -211 -570 -613z"/>
<path d="M7095 5644 c-478 -123 -1135 -292 -1460 -375 -324 -83 -593 -153
-597 -156 -5 -2 -8 -961 -8 -2130 0 -1696 3 -2124 13 -2120 17 7 1188 531
2142 960 l810 363 3 1842 c2 1750 1 1842 -15 1841 -10 0 -409 -102 -888 -225z"/>
<path d="M2000 4018 l0 -1823 843 -379 c463 -209 1130 -510 1481 -668 351
-158 640 -288 642 -288 2 0 3 957 2 2127 l-3 2127 -440 108 c-242 59 -613 151
-825 203 -860 211 -1693 415 -1696 415 -2 0 -4 -820 -4 -1822z m1379 653 c15
-29 31 -183 32 -324 2 -122 4 -137 18 -131 9 4 63 9 121 12 116 4 197 -11 280
-53 50 -25 115 -91 130 -131 13 -34 13 -116 -1 -151 -38 -101 -170 -141 -306
-93 -73 26 -75 25 -30 -6 50 -33 148 -158 186 -236 106 -215 31 -398 -164
-398 -165 0 -295 210 -282 456 7 146 55 223 141 224 l41 1 -70 36 c-145 75
-379 174 -448 189 -198 45 -264 108 -210 202 28 49 61 62 157 62 91 0 177 -22
245 -61 18 -11 36 -17 40 -14 3 4 8 91 11 193 6 188 12 221 47 240 21 12 51 4
62 -17z m-310 -688 c125 -60 239 -228 263 -385 19 -130 -16 -264 -93 -353 -25
-29 -29 -37 -14 -31 47 18 125 19 170 1 66 -25 98 -71 103 -150 4 -52 0 -73
-21 -119 -31 -66 -106 -150 -162 -179 -57 -29 -140 -29 -181 0 -86 61 -98 239
-25 354 l28 44 -68 -3 c-56 -4 -77 0 -122 21 -104 48 -190 149 -229 270 -27
82 -30 276 -5 357 55 183 196 252 356 173z"/>
<path d="M3331 4370 c0 -80 -5 -161 -9 -180 -10 -47 -40 -51 -89 -11 -109 87
-317 119 -359 56 -27 -42 2 -61 152 -99 108 -27 200 -65 455 -187 92 -44 196
-87 233 -96 62 -15 69 -15 111 2 57 21 80 55 80 115 0 95 -99 167 -258 191
-85 13 -194 1 -246 -25 -18 -10 -32 -11 -43 -5 -15 8 -17 24 -12 122 3 62 1
146 -4 187 -9 72 -9 70 -11 -70z"/>
<path d="M3466 3750 c-31 -37 -40 -95 -33 -209 6 -103 33 -181 83 -240 46 -53
81 -71 141 -71 184 0 176 244 -13 449 -65 70 -107 101 -138 101 -8 0 -26 -14
-40 -30z"/>
<path d="M2875 3931 c-74 -46 -107 -119 -113 -256 -7 -163 28 -276 113 -360
190 -191 411 -54 392 243 -4 73 -11 96 -45 166 -87 174 -247 269 -347 207z"/>
<path d="M3240 3149 c-56 -23 -95 -77 -109 -157 -19 -100 20 -182 87 -182 99
0 214 129 216 243 1 43 -3 52 -32 78 -27 24 -40 29 -85 28 -28 0 -63 -5 -77
-10z"/>
</g>
</svg>
