<svg id="Filled" height="512" viewBox="0 0 512 512" width="512" xmlns="http://www.w3.org/2000/svg"><g><rect fill="#4dccff" height="464" rx="20" width="256" x="128" y="24"/><path d="m128 376h256v24h-256z" fill="#25b1fa"/><rect fill="#f2faff" height="48" rx="20" width="128" x="192" y="408"/><rect fill="#fff5f1" height="296" rx="10" width="464" x="24" y="80"/><path d="m24 312v54a10 10 0 0 0 10 10h444a10 10 0 0 0 10-10v-54z" fill="#fb8656"/><g><path d="m104 256v-128l128 64z" fill="#fb8656"/><g><path d="m455.729 376q.269-3.855.271-8c0-57.438-24-144-88-144s-88 86.562-88 144q0 4.147.271 8z" fill="#fdbf67"/><path d="m311.022 270h-8.759c-15.619 29.5-22.263 67.779-22.263 98q0 4.147.271 8h50.029z" fill="#fdad67"/><path d="m416 240-16 56-32-24 24-40z" fill="#fffdfa"/><path d="m320 240 16 56 32-24-24-40z" fill="#fffdfa"/><path d="m208 248h68a20 20 0 0 1 20 20v20a0 0 0 0 1 0 0h-48a40 40 0 0 1 -40-40 0 0 0 0 1 0 0z" fill="#ffd4cf"/><path d="m296 288h-32v68a20 20 0 0 0 20 20h28z" fill="#fdbf67"/><path d="m352 192h32l8 40-24 40-24-40z" fill="#ffd4cf"/><path d="m384 192h-32l-4.056 20.282.5.3a38 38 0 0 0 39.1 0l.5-.3z" fill="#fbb8b0"/></g><path d="m337.71 185.15 20 12a20 20 0 0 0 20.58 0l20-12a20 20 0 0 0 9.71-17.15v-68.676h-80v68.676a20 20 0 0 0 9.71 17.15z" fill="#ffd4cf"/><path d="m402 64h-52a30 30 0 0 0 -30 30v18h40s13.432 16 30 16h42v-34a30 30 0 0 0 -30-30z" fill="#fb8656"/></g><path d="m120 400v68a28.032 28.032 0 0 0 28 28h148v-16h-148a12.013 12.013 0 0 1 -12-12v-68z"/><path d="m312 496h52a28.032 28.032 0 0 0 28-28v-68h-16v68a12.013 12.013 0 0 1 -12 12h-52z"/><path d="m300 400h-88a28.032 28.032 0 0 0 -28 28v8a28.032 28.032 0 0 0 28 28h88a28.032 28.032 0 0 0 28-28v-8a28.032 28.032 0 0 0 -28-28zm12 36a12.013 12.013 0 0 1 -12 12h-88a12.013 12.013 0 0 1 -12-12v-8a12.013 12.013 0 0 1 12-12h88a12.013 12.013 0 0 1 12 12z"/><path d="m156.422 163.155 7.156-14.31-56-28a8 8 0 0 0 -11.578 7.155v128a8 8 0 0 0 11.578 7.155l128-64a8 8 0 0 0 0-14.31l-56-28-7.156 14.31 41.689 20.845-102.111 51.056v-102.112z"/><path d="m48 336h32v16h-32z"/><path d="m96 336h72v16h-72z"/><path d="m184 336h16v16h-16z"/><path d="m216 336h16v16h-16z"/><path d="m478 72h-22v16h22a2 2 0 0 1 2 2v150h16v-150a18.021 18.021 0 0 0 -18-18z"/><path d="m480 304h-24.616a205.3 205.3 0 0 0 -6.617-20.223c-11.751-30.272-29.164-51.361-50.5-61.242l-5.009-25.035 9.148-5.489a28.141 28.141 0 0 0 13.594-24.011v-32h16a8 8 0 0 0 8-8v-34a38.043 38.043 0 0 0 -38-38h-10v-12a28.032 28.032 0 0 0 -28-28h-216a28.032 28.032 0 0 0 -28 28v12h16v-12a12.013 12.013 0 0 1 12-12h216a12.013 12.013 0 0 1 12 12v12h-26a38.043 38.043 0 0 0 -38 38v18a8 8 0 0 0 8 8v48a28.141 28.141 0 0 0 13.594 24.01l9.147 5.488-5.007 25.038c-13.991 6.484-26.325 17.819-36.467 33.4a28.035 28.035 0 0 0 -25.267-15.936h-68a8 8 0 0 0 -8 8 48.055 48.055 0 0 0 48 48h8v60a27.836 27.836 0 0 0 2.7 12h-224.7a2 2 0 0 1 -2-2v-46h200v-16h-200v-214a2 2 0 0 1 2-2h262v-16h-262a18.021 18.021 0 0 0 -18 18v276a18.021 18.021 0 0 0 18 18h444a18.021 18.021 0 0 0 18-18v-110h-16zm-140.672-64.238 18.1 30.167-16.929 12.7-10.338-36.184a62.994 62.994 0 0 1 9.167-6.683zm28.672-31.754a27.944 27.944 0 0 0 10.623-2.1l4.926 24.627-15.549 25.916-15.549-25.915 4.925-24.627a27.949 27.949 0 0 0 10.624 2.099zm28.674 31.752a62.832 62.832 0 0 1 9.168 6.672l-10.342 36.194-16.929-12.7zm27.326-145.76v26h-34a22.025 22.025 0 0 1 -22-22v-26h34a22.025 22.025 0 0 1 22 22zm-96 0a22.025 22.025 0 0 1 22-22h2v32h-24zm8 74v-48h23.032a37.981 37.981 0 0 0 30.968 16h10v32a12.059 12.059 0 0 1 -5.826 10.29l-20 12a11.98 11.98 0 0 1 -12.348 0l-20-12a12.059 12.059 0 0 1 -5.826-10.29zm-118.987 88h58.987a12.013 12.013 0 0 1 12 12v12h-40a32.056 32.056 0 0 1 -30.987-24zm66.987 112a12.013 12.013 0 0 1 -12-12v-60h17.323l13.091 72zm140 0v-40h-16v40h-89.323l-14.677-80.722v-2.278a126.831 126.831 0 0 1 13.534-24.513l10.774 37.713a8 8 0 0 0 12.492 4.2l27.2-20.4 27.2 20.4a8 8 0 0 0 12.492-4.2l10.777-37.718a131.969 131.969 0 0 1 15.382 29.087c8.992 23.163 14.149 51.751 14.149 78.431zm54 0h-14a247.684 247.684 0 0 0 -4.848-48h20.848v46a2 2 0 0 1 -2 2z"/></g></svg>