<svg id="Layer_5" enable-background="new 0 0 64 64" height="512" viewBox="0 0 64 64" width="512" xmlns="http://www.w3.org/2000/svg"><g><g><g><path d="m10.43 39.6c-.43.15-.85.33-1.26.53l-1.17-.56v-.01-25.56h48v27.17c-1.26-.6-2.63-.99-4-1.12v-21.05c0-.55-.45-1-1-1h-38c-.55 0-1 .45-1 1v19h-1z" fill="#e6e9ed"/></g><g><path d="m54 6h-44c-1.1 0-2 .9-2 2v6h48v-6c0-1.1-.9-2-2-2z" fill="#aab2bd"/></g><g><path d="m51 18h-38c-.55 0-1 .45-1 1v19h5l.57 1.6c.43.15.85.33 1.26.53l1.17-.56v-.01l.36-.17 4.25 4.25-.66 1.36h18.4c.46-.79 1.01-1.5 1.65-2.13 1.8-1.78 4.27-2.87 7-2.87.33 0 .67.02 1 .05v-21.05c0-.55-.45-1-1-1z" fill="#b4dd7f"/></g><g><path d="m22 6v2c0 1.1-.9 2-2 2h-2c-1.1 0-2-.9-2-2v-2-2c0-1.1.9-2 2-2h2c1.1 0 2 .9 2 2z" fill="#ff826e"/></g><g><path d="m48 6v2c0 1.1-.9 2-2 2h-2c-1.1 0-2-.9-2-2v-2-2c0-1.1.9-2 2-2h2c1.1 0 2 .9 2 2z" fill="#ff826e"/></g><g><path d="m56 41.17c2.23 1.06 4.1 2.76 5 4.83h-12v1l3 7h9c-1.54 3.53-5.9 6-10 6-3.7 0-6.92-2.01-8.65-5h-18.4l-.08-.17c.2-.41.38-.83.53-1.26l1.6-.57v-6l-1.6-.57c-.15-.43-.33-.85-.53-1.26l.08-.17h4.05 8 6.35c.46-.79 1.01-1.5 1.65-2.13 1.8-1.78 4.27-2.87 7-2.87.33 0 .67.02 1 .05 1.37.13 2.74.52 4 1.12z" fill="#cf9e76"/></g><g><path d="m8 39.57 1.17.56c.41-.2.83-.38 1.26-.53l.57-1.6h1 5l.57 1.6c.43.15.85.33 1.26.53l1.17-.56v-.01l.36-.17 4.25 4.25-.66 1.36-.08.17c.2.41.38.83.53 1.26l1.6.57v6l-1.6.57c-.15.43-.33.85-.53 1.26l.08.17.66 1.36-4.25 4.25-1.53-.74c-.41.2-.83.38-1.26.53l-.57 1.6h-6l-.57-1.6c-.43-.15-.85-.33-1.26-.53l-1.53.74-4.25-4.25.74-1.53c-.2-.41-.38-.83-.53-1.26l-1.6-.57v-6l1.6-.57c.15-.43.33-.85.53-1.26l-.74-1.53 4.25-4.25.36.17zm13 10.43c0-3.87-3.13-7-7-7s-7 3.13-7 7 3.13 7 7 7 7-3.13 7-7z" fill="#ffc729"/></g><g><path d="m14 43c3.87 0 7 3.13 7 7s-3.13 7-7 7-7-3.13-7-7 3.13-7 7-7zm3 7c0-1.66-1.34-3-3-3s-3 1.34-3 3 1.34 3 3 3 3-1.34 3-3z" fill="#fcd770"/></g></g><g><path d="m14 42c-4.411 0-8 3.589-8 8s3.589 8 8 8 8-3.589 8-8-3.589-8-8-8zm0 14c-3.309 0-6-2.691-6-6s2.691-6 6-6 6 2.691 6 6-2.691 6-6 6z"/><path d="m14 46c-2.206 0-4 1.794-4 4s1.794 4 4 4 4-1.794 4-4-1.794-4-4-4zm0 6c-1.103 0-2-.897-2-2s.897-2 2-2 2 .897 2 2-.897 2-2 2z"/><path d="m50.088 47h12.44l-.612-1.4c-.917-2.097-2.714-3.875-4.916-5.057v-32.543c0-1.654-1.346-3-3-3h-5v-1c0-1.654-1.346-3-3-3h-2c-1.654 0-3 1.346-3 3v1h-18v-1c0-1.654-1.346-3-3-3h-2c-1.654 0-3 1.346-3 3v1h-5c-1.654 0-3 1.346-3 3v30.615l-4.813 4.813.836 1.749c-.069.156-.135.313-.196.471l-1.827.644v7.416l1.826.644c.062.157.127.314.196.471l-.836 1.749 5.242 5.242 1.749-.836c.156.069.313.135.471.196l.644 1.826h7.416l.644-1.826c.157-.062.314-.127.471-.196l1.749.836 5.242-5.242-.274-.572h16.25c2.022 3.099 5.499 5 9.21 5 4.653 0 9.244-2.775 10.916-6.6l.612-1.4h-9.869zm2.912-7.826v-20.174c0-1.103-.897-2-2-2h-38c-1.103 0-2 .897-2 2v18h-.708l-.644 1.826c-.157.062-.314.127-.471.196l-.177-.084v-23.938h46v24.677c-.65-.22-1.319-.389-2-.503zm-32-.559v-3.615h6v9h-1.46l.273-.571zm8-11.615h6v6h-6zm-2 6h-6v-6h6zm10-6h6v6h-6zm8 0h6v6h-6zm6-2h-6v-6h6zm-8 0h-6v-6h6zm-8 0h-6v-6h6zm-8 0h-6v-6h6zm-8 0h-6v-6h6zm-6 2h6v6h-6zm0 8h6v3.938l-.178.085c-.156-.069-.313-.135-.471-.196l-.643-1.827h-4.708zm16 0h6v9h-6zm8 0h6v7.494c-.439.467-.854.96-1.21 1.506h-4.79zm8 0h6v4c-2.163 0-4.238.662-6 1.815zm-2-31c0-.552.448-1 1-1h2c.552 0 1 .448 1 1v4c0 .552-.448 1-1 1h-2c-.552 0-1-.448-1-1zm-26 0c0-.552.448-1 1-1h2c.552 0 1 .448 1 1v4c0 .552-.448 1-1 1h-2c-.552 0-1-.448-1-1zm-7 3h5v1c0 1.654 1.346 3 3 3h2c1.654 0 3-1.346 3-3v-1h18v1c0 1.654 1.346 3 3 3h2c1.654 0 3-1.346 3-3v-1h5c.552 0 1 .448 1 1v5h-46v-5c0-.552.448-1 1-1zm13.451 46.242c-.13.382-.291.767-.477 1.145l-.214.436.639 1.335-3.242 3.242-1.335-.639-.436.214c-.378.186-.763.347-1.145.477l-.459.156-.49 1.392h-4.584l-.491-1.393-.459-.156c-.382-.13-.767-.291-1.145-.477l-.436-.214-1.335.639-3.242-3.242.639-1.335-.214-.436c-.186-.378-.347-.763-.477-1.145l-.156-.459-1.392-.49v-4.584l1.393-.491.156-.459c.13-.382.291-.767.477-1.145l.214-.436-.639-1.335 3.242-3.242 1.335.639.436-.214c.378-.186.763-.347 1.145-.477l.459-.156.49-1.392h4.584l.491 1.393.459.156c.382.13.767.291 1.145.477l.436.214 1.335-.639 3.242 3.242-.639 1.335.214.436c.186.378.347.763.477 1.145l.156.459 1.392.49v4.584l-1.393.491zm27.549 5.758c-3.194 0-6.178-1.725-7.786-4.501l-.289-.499h-16.754l.829-.292v-7.416l-.829-.292h.829 2 6 2 5.925l.289-.499c1.608-2.776 4.592-4.501 7.786-4.501 3.225 0 6.501 1.645 8.261 4h-11.261v2.205l3.341 7.795h7.92c-1.76 2.355-5.036 4-8.261 4z"/></g></g></svg>