
<svg width="128" height="128" xmlns="http://www.w3.org/2000/svg" version="1.1">
 <g>
  <title>Layer 1</title>
  <g fill-rule="evenodd" fill="none" id="Page-1">
   <g id="Desktop">
    <g id="V-1-Copy-2">
     <g id="Imported-Layers">
      <path fill="#8FD86E" id="Fill-1" d="m16.66947,90.86356c-0.7071,2.69181 0.86316,5.46097 3.50649,6.18666l16.32404,4.44978l-11.3122,-43l-8.51833,32.36356z"/>
      <path fill="#5DD0AD" id="Fill-2" d="m43.9771,103.80209c0.71872,2.65912 3.46129,4.23875 6.12724,3.52743l18.39566,-4.91673l-34,-33.91279l9.4771,35.30209z"/>
      <path fill="#2DC9DF" id="Fill-3" d="m110.02602,62.34235l-39.38527,-39.38786c-0.92761,-0.9275 -2.19112,-1.44887 -3.50241,-1.45449l-26.90758,0c-3.71604,0 -6.73076,3.01438 -6.73076,6.73l0,26.90455c0,1.31115 0.52143,2.57452 1.44903,3.50764l39.38668,39.38084c0.98804,0.98792 2.27825,1.47697 3.56847,1.47697c1.29021,0 2.58043,-0.49467 3.56847,-1.47697l28.54775,-28.55016c1.97186,-1.97164 1.97186,-5.1659 0.00562,-7.13052l0,0zm-61.94435,-22.22207c-2.90931,0 -5.27048,-2.36091 -5.27048,-5.26989c0,-2.90898 2.36117,-5.26989 5.27048,-5.26989c2.90931,0 5.27049,2.36091 5.27049,5.26989c0,2.90898 -2.36118,5.26989 -5.27049,5.26989l0,0z"/>
      <circle r="17.5" cy="38" cx="93" fill="#304048" id="Oval"/>
      <path fill="#FFFFFF" id="Fill-1-Copy" d="m92.99093,25.46604c-6.9076,0 -12.5083,5.60424 -12.5083,12.51698c0,6.91197 5.6007,12.51698 12.5083,12.51698c6.90837,0 12.50907,-5.60501 12.50907,-12.51698c0,-6.91274 -5.59762,-12.51698 -12.50907,-12.51698zm5.85377,14.60673l-3.76226,0l0,3.76387c0,1.15456 -0.9346,2.09284 -2.08843,2.09284c-1.15383,0 -2.09151,-0.9352 -2.09151,-2.09284l0,-3.76387l-3.76149,0c-1.15383,0 -2.09151,-0.93519 -2.09151,-2.09283c0,-1.15456 0.9346,-2.09283 2.09151,-2.09283l3.76149,0l0,-3.76387c0,-1.15456 0.9346,-2.09284 2.09151,-2.09284c1.15383,0 2.08843,0.9352 2.08843,2.09284l0,3.76387l3.76226,0c1.15383,0 2.09074,0.93827 2.09074,2.09283c0,1.15764 -0.93691,2.09283 -2.09074,2.09283z"/>
     </g>
    </g>
   </g>
  </g>
 </g>
</svg>