<svg id="Capa_1" enable-background="new 0 0 512 512" height="512" viewBox="0 0 512 512" width="512" xmlns="http://www.w3.org/2000/svg"><g><g><path d="m355.455 308.677v93.99c-24.522 15.662-83.788 48.862-166.305 50.517-90.055 1.796-154.891-35.047-179.131-50.517v-127.19s10.521 73.222 170.166 73.222c117.563.001 175.27-40.022 175.27-40.022" fill="#d2a182"/><path d="m158.119 258.961-1.574-55.879c-82.96 5.348-146.525 35.723-146.525 72.395 0 40.436 77.33 73.222 172.713 73.222 66.249 0 123.79-15.813 152.762-39.013-111.88 5.262-177.376-50.725-177.376-50.725z" fill="#ffe7b1"/><path d="m501.98 131.979v127.191c-22.514 14.39-74.322 43.544-146.526 49.508-6.438.525-13.028.878-19.779 1.009-.061 0-.121 0-.182 0-29.497.575-56.289-2.997-79.832-8.608-48.246-11.484-82.839-31.505-99.117-41.909v-14.875-41.213-71.103s11.617 73.233 172.718 73.233c160.862-.001 172.718-73.233 172.718-73.233z" fill="#d2a182"/><path d="m374.476 61.281c73.519 7.905 127.504 36.885 127.504 70.697 0 40.446-77.33 73.233-172.723 73.233-95.383 0-172.713-32.787-172.713-73.233 0-33.774 53.923-62.208 127.253-70.669.001.001 47.173-4.705 90.679-.028z" fill="#ffe7b1"/></g><g><path d="m470.579 78.317c-24.407-13.331-57.244-22.663-94.96-26.99-5.497-.626-10.466 3.315-11.096 8.813-.631 5.498 3.315 10.466 8.813 11.096 67.628 7.757 118.626 33.871 118.626 60.743 0 15.062-16.212 30.574-44.48 42.559-31.414 13.319-73.399 20.654-118.223 20.654-44.819 0-86.801-7.335-118.214-20.654-28.267-11.986-44.479-27.498-44.479-42.559 0-12.333 10.979-25.131 30.916-36.037 21.794-11.921 52.857-20.685 87.465-24.679 5.498-.634 9.439-5.605 8.805-11.102-.635-5.498-5.619-9.443-11.102-8.805-37.654 4.344-70.43 13.682-94.785 27.005-27.044 14.793-41.339 33.334-41.339 53.617v61.825c-38.033 3.362-72.816 12.04-98.756 24.729-30.805 15.069-47.77 35.293-47.77 56.945v127.19c0 3.421 1.746 6.606 4.629 8.446 30.858 19.694 97.688 52.121 181.484 52.121 2.145 0-2.172.043 0 0 76.745-1.539 138.859-29.209 174.736-52.123 2.882-1.841 4.626-5.024 4.626-8.444v-84.909c63.118-7.001 111.739-30.867 141.902-50.147 2.88-1.841 4.623-5.024 4.623-8.442v-127.19c0-20.306-14.323-38.862-41.421-53.662zm-262.261 218.333c-8.31.471-16.868.716-25.586.716-29.782 0-58.193-2.863-79.999-8.062-22.693-5.411-30.575-11.572-31.996-13.824 1.193-1.85 7.155-6.81 23.69-11.646 13.907-4.067 32.121-7.121 52.098-8.788v4.123c0 3.419 1.743 6.601 4.623 8.442 17.79 11.371 37.095 21.146 57.17 29.039zm-151.743-60.117c23.401-11.447 55.029-19.367 89.951-22.613v21.025c-31.287 2.529-95.968 11.307-95.968 40.532 0 33.097 83.083 41.928 132.175 41.928 26.303 0 51.38-2.108 72.716-6.094 14.734 3.409 29.674 5.799 44.701 7.146-30.449 12.775-72.378 20.223-117.416 20.223-44.818 0-86.8-7.335-118.214-20.653-28.267-11.984-44.479-27.493-44.479-42.55-.002-13.588 12.974-27.418 36.534-38.944zm258.338 177.057v-35.758c0-5.534-4.486-10.02-10.02-10.02s-10.02 4.486-10.02 10.02v44.361c-28.366 11.023-62.681 19.587-102.118 20.859v-51.849c0-5.534-4.486-10.02-10.02-10.02s-10.02 4.486-10.02 10.02v51.839c-39.772-1.329-74.351-10.28-102.118-21.032v-44.178c0-5.534-4.486-10.02-10.02-10.02s-10.02 4.486-10.02 10.02v35.628c-12.026-5.619-22.278-11.308-30.521-16.347v-82.746c9.239 8.235 21.539 15.701 36.657 22.11 15.466 6.557 33.222 11.762 52.469 15.487v42.687c0 5.534 4.486 10.02 10.02 10.02s10.02-4.486 10.02-10.02v-39.42c17.119 2.293 35.119 3.488 53.528 3.488 18.21 0 36.007-1.197 52.91-3.449v39.381c0 5.534 4.486 10.02 10.02 10.02s10.02-4.486 10.02-10.02v-42.629c34.39-6.604 63.767-17.815 83.332-32.404 2.126-.063 4.265-.142 6.422-.248v77.75c-8.868 5.445-19.075 11.082-30.521 16.47zm146.525-143.51v-35.743c0-5.534-4.486-10.02-10.02-10.02s-10.02 4.486-10.02 10.02v44.328c-24.495 9.509-53.61 17.289-86.758 20.027-5.17.421-10.316.71-15.36.873v-51.856c0-5.534-4.486-10.02-10.02-10.02s-10.02 4.486-10.02 10.02v51.845c-20.605-.679-41.143-3.427-61.26-8.221-13.815-3.288-27.514-7.574-40.858-12.745v-44.25c0-5.534-4.486-10.02-10.02-10.02s-10.02 4.486-10.02 10.02v35.682c-10.534-4.931-20.756-10.407-30.52-16.396v-82.748c9.239 8.236 21.539 15.703 36.657 22.113 15.466 6.558 33.221 11.764 52.468 15.488v42.68c0 5.534 4.486 10.02 10.02 10.02s10.02-4.486 10.02-10.02v-39.412c17.119 2.294 35.12 3.488 53.529 3.488 18.187 0 35.976-1.165 52.909-3.404v39.328c0 5.534 4.486 10.02 10.02 10.02s10.02-4.486 10.02-10.02v-42.558c19.49-3.733 37.462-8.982 53.096-15.611 15.119-6.41 27.419-13.877 36.658-22.113v82.75c-8.755 5.374-18.966 11.023-30.521 16.455z"/><path d="m197.085 131.978c0 33.102 83.084 41.934 132.177 41.934s132.177-8.832 132.177-41.934-83.084-41.934-132.177-41.934-132.177 8.831-132.177 41.934zm244.176 0c-1.41 2.248-9.283 8.415-31.992 13.831-21.805 5.201-50.219 8.065-80.008 8.065s-58.203-2.864-80.008-8.065c-22.709-5.416-30.582-11.583-31.992-13.831 1.409-2.248 9.283-8.415 31.992-13.831 21.805-5.201 50.219-8.065 80.008-8.065s58.203 2.864 80.008 8.065c22.709 5.416 30.582 11.583 31.992 13.831z"/><circle cx="329.261" cy="58.746" r="10"/></g></g></svg>